%TF.GenerationSoftware,KiCad,Pcbnew,9.0.2*%
%TF.CreationDate,2025-10-01T10:40:14+03:00*%
%TF.ProjectId,555_flip_flop,3535355f-666c-4697-905f-666c6f702e6b,rev?*%
%TF.SameCoordinates,Original*%
%TF.FileFunction,Legend,Bot*%
%TF.FilePolarity,Positive*%
%FSLAX46Y46*%
G04 Gerber Fmt 4.6, Leading zero omitted, Abs format (unit mm)*
G04 Created by KiCad (PCBNEW 9.0.2) date 2025-10-01 10:40:14*
%MOMM*%
%LPD*%
G01*
G04 APERTURE LIST*
%ADD10C,0.010000*%
G04 APERTURE END LIST*
D10*
%TO.C,REF\u002A\u002A*%
X50982829Y-39451097D02*
X51042753Y-39473355D01*
X51067673Y-39490080D01*
X51092910Y-39514043D01*
X51110912Y-39544526D01*
X51122858Y-39586023D01*
X51129930Y-39643032D01*
X51133308Y-39720047D01*
X51134171Y-39821565D01*
X51134002Y-39874027D01*
X51133153Y-39945715D01*
X51131711Y-40002925D01*
X51129814Y-40040809D01*
X51127597Y-40054514D01*
X51113172Y-40049981D01*
X51084054Y-40037670D01*
X51083181Y-40037272D01*
X51068060Y-40029356D01*
X51057891Y-40018495D01*
X51051691Y-39999471D01*
X51048478Y-39967069D01*
X51047270Y-39916071D01*
X51047086Y-39841261D01*
X51046714Y-39793804D01*
X51042750Y-39704615D01*
X51033673Y-39639287D01*
X51018524Y-39594393D01*
X50996345Y-39566507D01*
X50966175Y-39552203D01*
X50961990Y-39551206D01*
X50905480Y-39550427D01*
X50861410Y-39575744D01*
X50830972Y-39626502D01*
X50825544Y-39641175D01*
X50813171Y-39673649D01*
X50806905Y-39688572D01*
X50794036Y-39686516D01*
X50765933Y-39675357D01*
X50739721Y-39656927D01*
X50727771Y-39622098D01*
X50731336Y-39597151D01*
X50753235Y-39546547D01*
X50788644Y-39499128D01*
X50830052Y-39466334D01*
X50847400Y-39458752D01*
X50913089Y-39446076D01*
X50982829Y-39451097D01*
G36*
X50982829Y-39451097D02*
G01*
X51042753Y-39473355D01*
X51067673Y-39490080D01*
X51092910Y-39514043D01*
X51110912Y-39544526D01*
X51122858Y-39586023D01*
X51129930Y-39643032D01*
X51133308Y-39720047D01*
X51134171Y-39821565D01*
X51134002Y-39874027D01*
X51133153Y-39945715D01*
X51131711Y-40002925D01*
X51129814Y-40040809D01*
X51127597Y-40054514D01*
X51113172Y-40049981D01*
X51084054Y-40037670D01*
X51083181Y-40037272D01*
X51068060Y-40029356D01*
X51057891Y-40018495D01*
X51051691Y-39999471D01*
X51048478Y-39967069D01*
X51047270Y-39916071D01*
X51047086Y-39841261D01*
X51046714Y-39793804D01*
X51042750Y-39704615D01*
X51033673Y-39639287D01*
X51018524Y-39594393D01*
X50996345Y-39566507D01*
X50966175Y-39552203D01*
X50961990Y-39551206D01*
X50905480Y-39550427D01*
X50861410Y-39575744D01*
X50830972Y-39626502D01*
X50825544Y-39641175D01*
X50813171Y-39673649D01*
X50806905Y-39688572D01*
X50794036Y-39686516D01*
X50765933Y-39675357D01*
X50739721Y-39656927D01*
X50727771Y-39622098D01*
X50731336Y-39597151D01*
X50753235Y-39546547D01*
X50788644Y-39499128D01*
X50830052Y-39466334D01*
X50847400Y-39458752D01*
X50913089Y-39446076D01*
X50982829Y-39451097D01*
G37*
X54931020Y-39417822D02*
X54998810Y-39449680D01*
X55054366Y-39504770D01*
X55065881Y-39522016D01*
X55075432Y-39541562D01*
X55082206Y-39566198D01*
X55086819Y-39600711D01*
X55089888Y-39649889D01*
X55092029Y-39718519D01*
X55093859Y-39811389D01*
X55098404Y-40069007D01*
X55060225Y-40054491D01*
X55025268Y-40041156D01*
X54999097Y-40028323D01*
X54982013Y-40011780D01*
X54972086Y-39986465D01*
X54967386Y-39947316D01*
X54965982Y-39889268D01*
X54965943Y-39807261D01*
X54965744Y-39741895D01*
X54964559Y-39679173D01*
X54961729Y-39636334D01*
X54956609Y-39608220D01*
X54948553Y-39589675D01*
X54936914Y-39575543D01*
X54908303Y-39555600D01*
X54860239Y-39548083D01*
X54812688Y-39567079D01*
X54809550Y-39569511D01*
X54799769Y-39580748D01*
X54792553Y-39598770D01*
X54787299Y-39628026D01*
X54783402Y-39672962D01*
X54780256Y-39738028D01*
X54777257Y-39827670D01*
X54770000Y-40067697D01*
X54708314Y-40040044D01*
X54646629Y-40012391D01*
X54646629Y-39793246D01*
X54646884Y-39733711D01*
X54649086Y-39650892D01*
X54654661Y-39589227D01*
X54664941Y-39543748D01*
X54681258Y-39509484D01*
X54704943Y-39481466D01*
X54737328Y-39454723D01*
X54783907Y-39427780D01*
X54857287Y-39410191D01*
X54931020Y-39417822D01*
G36*
X54931020Y-39417822D02*
G01*
X54998810Y-39449680D01*
X55054366Y-39504770D01*
X55065881Y-39522016D01*
X55075432Y-39541562D01*
X55082206Y-39566198D01*
X55086819Y-39600711D01*
X55089888Y-39649889D01*
X55092029Y-39718519D01*
X55093859Y-39811389D01*
X55098404Y-40069007D01*
X55060225Y-40054491D01*
X55025268Y-40041156D01*
X54999097Y-40028323D01*
X54982013Y-40011780D01*
X54972086Y-39986465D01*
X54967386Y-39947316D01*
X54965982Y-39889268D01*
X54965943Y-39807261D01*
X54965744Y-39741895D01*
X54964559Y-39679173D01*
X54961729Y-39636334D01*
X54956609Y-39608220D01*
X54948553Y-39589675D01*
X54936914Y-39575543D01*
X54908303Y-39555600D01*
X54860239Y-39548083D01*
X54812688Y-39567079D01*
X54809550Y-39569511D01*
X54799769Y-39580748D01*
X54792553Y-39598770D01*
X54787299Y-39628026D01*
X54783402Y-39672962D01*
X54780256Y-39738028D01*
X54777257Y-39827670D01*
X54770000Y-40067697D01*
X54708314Y-40040044D01*
X54646629Y-40012391D01*
X54646629Y-39793246D01*
X54646884Y-39733711D01*
X54649086Y-39650892D01*
X54654661Y-39589227D01*
X54664941Y-39543748D01*
X54681258Y-39509484D01*
X54704943Y-39481466D01*
X54737328Y-39454723D01*
X54783907Y-39427780D01*
X54857287Y-39410191D01*
X54931020Y-39417822D01*
G37*
X53107691Y-39466467D02*
X53112273Y-39469003D01*
X53149704Y-39498057D01*
X53183170Y-39535410D01*
X53189007Y-39543852D01*
X53200165Y-39563553D01*
X53208136Y-39586935D01*
X53213618Y-39619067D01*
X53217307Y-39665019D01*
X53219899Y-39729859D01*
X53222092Y-39818657D01*
X53222402Y-39833669D01*
X53223400Y-39930999D01*
X53221994Y-39999934D01*
X53218164Y-40040948D01*
X53211889Y-40054514D01*
X53192898Y-40050452D01*
X53160638Y-40038144D01*
X53153041Y-40034545D01*
X53141176Y-40026398D01*
X53132994Y-40013004D01*
X53127643Y-39989608D01*
X53124269Y-39951455D01*
X53122019Y-39893790D01*
X53120040Y-39811857D01*
X53119498Y-39787907D01*
X53117403Y-39712266D01*
X53114683Y-39659328D01*
X53110515Y-39624075D01*
X53104079Y-39601487D01*
X53094550Y-39586544D01*
X53081106Y-39574227D01*
X53041305Y-39552634D01*
X52992341Y-39548476D01*
X52948529Y-39564999D01*
X52917008Y-39599210D01*
X52904914Y-39648114D01*
X52904578Y-39661407D01*
X52897972Y-39685472D01*
X52878470Y-39689144D01*
X52840283Y-39674813D01*
X52831438Y-39670217D01*
X52807534Y-39643186D01*
X52807061Y-39602994D01*
X52829836Y-39547409D01*
X52850727Y-39517117D01*
X52904142Y-39474084D01*
X52970074Y-39449755D01*
X53040574Y-39446443D01*
X53107691Y-39466467D01*
G36*
X53107691Y-39466467D02*
G01*
X53112273Y-39469003D01*
X53149704Y-39498057D01*
X53183170Y-39535410D01*
X53189007Y-39543852D01*
X53200165Y-39563553D01*
X53208136Y-39586935D01*
X53213618Y-39619067D01*
X53217307Y-39665019D01*
X53219899Y-39729859D01*
X53222092Y-39818657D01*
X53222402Y-39833669D01*
X53223400Y-39930999D01*
X53221994Y-39999934D01*
X53218164Y-40040948D01*
X53211889Y-40054514D01*
X53192898Y-40050452D01*
X53160638Y-40038144D01*
X53153041Y-40034545D01*
X53141176Y-40026398D01*
X53132994Y-40013004D01*
X53127643Y-39989608D01*
X53124269Y-39951455D01*
X53122019Y-39893790D01*
X53120040Y-39811857D01*
X53119498Y-39787907D01*
X53117403Y-39712266D01*
X53114683Y-39659328D01*
X53110515Y-39624075D01*
X53104079Y-39601487D01*
X53094550Y-39586544D01*
X53081106Y-39574227D01*
X53041305Y-39552634D01*
X52992341Y-39548476D01*
X52948529Y-39564999D01*
X52917008Y-39599210D01*
X52904914Y-39648114D01*
X52904578Y-39661407D01*
X52897972Y-39685472D01*
X52878470Y-39689144D01*
X52840283Y-39674813D01*
X52831438Y-39670217D01*
X52807534Y-39643186D01*
X52807061Y-39602994D01*
X52829836Y-39547409D01*
X52850727Y-39517117D01*
X52904142Y-39474084D01*
X52970074Y-39449755D01*
X53040574Y-39446443D01*
X53107691Y-39466467D01*
G37*
X54178543Y-39249444D02*
X54225714Y-39269342D01*
X54225714Y-39666509D01*
X54225519Y-39769498D01*
X54224998Y-39862141D01*
X54224199Y-39940700D01*
X54223172Y-40001439D01*
X54221963Y-40040623D01*
X54220623Y-40054514D01*
X54220099Y-40054468D01*
X54202287Y-40049420D01*
X54169823Y-40038580D01*
X54124114Y-40022646D01*
X54124114Y-39818173D01*
X54123824Y-39737832D01*
X54122474Y-39679562D01*
X54119369Y-39639909D01*
X54113812Y-39613618D01*
X54105107Y-39595436D01*
X54092556Y-39580107D01*
X54083999Y-39571955D01*
X54037728Y-39549375D01*
X53986728Y-39551375D01*
X53939993Y-39578073D01*
X53933189Y-39584698D01*
X53922293Y-39598456D01*
X53914836Y-39616642D01*
X53910169Y-39644177D01*
X53907642Y-39685981D01*
X53906602Y-39746973D01*
X53906400Y-39832073D01*
X53906303Y-39875234D01*
X53905674Y-39946224D01*
X53904556Y-40003076D01*
X53903063Y-40040828D01*
X53901309Y-40054514D01*
X53900785Y-40054468D01*
X53882973Y-40049420D01*
X53850509Y-40038580D01*
X53804800Y-40022646D01*
X53804823Y-39817237D01*
X53804857Y-39798951D01*
X53806778Y-39703626D01*
X53812678Y-39631543D01*
X53824001Y-39577813D01*
X53842187Y-39537549D01*
X53868679Y-39505861D01*
X53904918Y-39477861D01*
X53940263Y-39460333D01*
X53996773Y-39446785D01*
X54052356Y-39446015D01*
X54095086Y-39459195D01*
X54098298Y-39461015D01*
X54108205Y-39460820D01*
X54114975Y-39445572D01*
X54119861Y-39410613D01*
X54124114Y-39351289D01*
X54131371Y-39229547D01*
X54178543Y-39249444D01*
G36*
X54178543Y-39249444D02*
G01*
X54225714Y-39269342D01*
X54225714Y-39666509D01*
X54225519Y-39769498D01*
X54224998Y-39862141D01*
X54224199Y-39940700D01*
X54223172Y-40001439D01*
X54221963Y-40040623D01*
X54220623Y-40054514D01*
X54220099Y-40054468D01*
X54202287Y-40049420D01*
X54169823Y-40038580D01*
X54124114Y-40022646D01*
X54124114Y-39818173D01*
X54123824Y-39737832D01*
X54122474Y-39679562D01*
X54119369Y-39639909D01*
X54113812Y-39613618D01*
X54105107Y-39595436D01*
X54092556Y-39580107D01*
X54083999Y-39571955D01*
X54037728Y-39549375D01*
X53986728Y-39551375D01*
X53939993Y-39578073D01*
X53933189Y-39584698D01*
X53922293Y-39598456D01*
X53914836Y-39616642D01*
X53910169Y-39644177D01*
X53907642Y-39685981D01*
X53906602Y-39746973D01*
X53906400Y-39832073D01*
X53906303Y-39875234D01*
X53905674Y-39946224D01*
X53904556Y-40003076D01*
X53903063Y-40040828D01*
X53901309Y-40054514D01*
X53900785Y-40054468D01*
X53882973Y-40049420D01*
X53850509Y-40038580D01*
X53804800Y-40022646D01*
X53804823Y-39817237D01*
X53804857Y-39798951D01*
X53806778Y-39703626D01*
X53812678Y-39631543D01*
X53824001Y-39577813D01*
X53842187Y-39537549D01*
X53868679Y-39505861D01*
X53904918Y-39477861D01*
X53940263Y-39460333D01*
X53996773Y-39446785D01*
X54052356Y-39446015D01*
X54095086Y-39459195D01*
X54098298Y-39461015D01*
X54108205Y-39460820D01*
X54114975Y-39445572D01*
X54119861Y-39410613D01*
X54124114Y-39351289D01*
X54131371Y-39229547D01*
X54178543Y-39249444D01*
G37*
X52153941Y-39449282D02*
X52185774Y-39461758D01*
X52222743Y-39478602D01*
X52222743Y-39965196D01*
X52176812Y-40011127D01*
X52166320Y-40021427D01*
X52137255Y-40044320D01*
X52107943Y-40051735D01*
X52064326Y-40048321D01*
X52046568Y-40046114D01*
X52000767Y-40041445D01*
X51968743Y-40039585D01*
X51959244Y-40039869D01*
X51920274Y-40042948D01*
X51873160Y-40048321D01*
X51858085Y-40050168D01*
X51820110Y-40050893D01*
X51792325Y-40039429D01*
X51760674Y-40011127D01*
X51714743Y-39965196D01*
X51714743Y-39705055D01*
X51715101Y-39628180D01*
X51716216Y-39554886D01*
X51717952Y-39496850D01*
X51720167Y-39458663D01*
X51722721Y-39444914D01*
X51723256Y-39444951D01*
X51741808Y-39451793D01*
X51773153Y-39466868D01*
X51815608Y-39488822D01*
X51819604Y-39717240D01*
X51823600Y-39945657D01*
X51910686Y-39945657D01*
X51914657Y-39695286D01*
X51915916Y-39627227D01*
X51917718Y-39554482D01*
X51919671Y-39496730D01*
X51921612Y-39458648D01*
X51923377Y-39444914D01*
X51923885Y-39444962D01*
X51941482Y-39450015D01*
X51973834Y-39460849D01*
X52019543Y-39476783D01*
X52019765Y-39696706D01*
X52019988Y-39734909D01*
X52021531Y-39809146D01*
X52024292Y-39871145D01*
X52027977Y-39915308D01*
X52032292Y-39936041D01*
X52047732Y-39947131D01*
X52079241Y-39950556D01*
X52113886Y-39945657D01*
X52117857Y-39695286D01*
X52119278Y-39631663D01*
X52122225Y-39556356D01*
X52126079Y-39497286D01*
X52130542Y-39458718D01*
X52135317Y-39444914D01*
X52153941Y-39449282D01*
G36*
X52153941Y-39449282D02*
G01*
X52185774Y-39461758D01*
X52222743Y-39478602D01*
X52222743Y-39965196D01*
X52176812Y-40011127D01*
X52166320Y-40021427D01*
X52137255Y-40044320D01*
X52107943Y-40051735D01*
X52064326Y-40048321D01*
X52046568Y-40046114D01*
X52000767Y-40041445D01*
X51968743Y-40039585D01*
X51959244Y-40039869D01*
X51920274Y-40042948D01*
X51873160Y-40048321D01*
X51858085Y-40050168D01*
X51820110Y-40050893D01*
X51792325Y-40039429D01*
X51760674Y-40011127D01*
X51714743Y-39965196D01*
X51714743Y-39705055D01*
X51715101Y-39628180D01*
X51716216Y-39554886D01*
X51717952Y-39496850D01*
X51720167Y-39458663D01*
X51722721Y-39444914D01*
X51723256Y-39444951D01*
X51741808Y-39451793D01*
X51773153Y-39466868D01*
X51815608Y-39488822D01*
X51819604Y-39717240D01*
X51823600Y-39945657D01*
X51910686Y-39945657D01*
X51914657Y-39695286D01*
X51915916Y-39627227D01*
X51917718Y-39554482D01*
X51919671Y-39496730D01*
X51921612Y-39458648D01*
X51923377Y-39444914D01*
X51923885Y-39444962D01*
X51941482Y-39450015D01*
X51973834Y-39460849D01*
X52019543Y-39476783D01*
X52019765Y-39696706D01*
X52019988Y-39734909D01*
X52021531Y-39809146D01*
X52024292Y-39871145D01*
X52027977Y-39915308D01*
X52032292Y-39936041D01*
X52047732Y-39947131D01*
X52079241Y-39950556D01*
X52113886Y-39945657D01*
X52117857Y-39695286D01*
X52119278Y-39631663D01*
X52122225Y-39556356D01*
X52126079Y-39497286D01*
X52130542Y-39458718D01*
X52135317Y-39444914D01*
X52153941Y-39449282D01*
G37*
X56765714Y-39735200D02*
X56765701Y-39750935D01*
X56764914Y-39821119D01*
X56762210Y-39870022D01*
X56756606Y-39904178D01*
X56747119Y-39930124D01*
X56732768Y-39954397D01*
X56729237Y-39959433D01*
X56691878Y-39999143D01*
X56649311Y-40029092D01*
X56627452Y-40038810D01*
X56548908Y-40055020D01*
X56471231Y-40044535D01*
X56399645Y-40008707D01*
X56339374Y-39948887D01*
X56334286Y-39940873D01*
X56317730Y-39894342D01*
X56306573Y-39829552D01*
X56301160Y-39754727D01*
X56301768Y-39685513D01*
X56448248Y-39685513D01*
X56449402Y-39781399D01*
X56449866Y-39787569D01*
X56456629Y-39840478D01*
X56468671Y-39874029D01*
X56489005Y-39897016D01*
X56523097Y-39918548D01*
X56556814Y-39919680D01*
X56591543Y-39894857D01*
X56597584Y-39888325D01*
X56609417Y-39868779D01*
X56616404Y-39840386D01*
X56619727Y-39796430D01*
X56620571Y-39730192D01*
X56619125Y-39668150D01*
X56611907Y-39609042D01*
X56597006Y-39571686D01*
X56572636Y-39552152D01*
X56537008Y-39546514D01*
X56523440Y-39547635D01*
X56485430Y-39568194D01*
X56460312Y-39614299D01*
X56448248Y-39685513D01*
X56301768Y-39685513D01*
X56301833Y-39678096D01*
X56308937Y-39607882D01*
X56322815Y-39552312D01*
X56340649Y-39515301D01*
X56390855Y-39457733D01*
X56458885Y-39421962D01*
X56542158Y-39409665D01*
X56564398Y-39410331D01*
X56629891Y-39423947D01*
X56683687Y-39458249D01*
X56733057Y-39517338D01*
X56735995Y-39521722D01*
X56749287Y-39545299D01*
X56757932Y-39571949D01*
X56762904Y-39608159D01*
X56765174Y-39660413D01*
X56765678Y-39730192D01*
X56765714Y-39735200D01*
G36*
X56765714Y-39735200D02*
G01*
X56765701Y-39750935D01*
X56764914Y-39821119D01*
X56762210Y-39870022D01*
X56756606Y-39904178D01*
X56747119Y-39930124D01*
X56732768Y-39954397D01*
X56729237Y-39959433D01*
X56691878Y-39999143D01*
X56649311Y-40029092D01*
X56627452Y-40038810D01*
X56548908Y-40055020D01*
X56471231Y-40044535D01*
X56399645Y-40008707D01*
X56339374Y-39948887D01*
X56334286Y-39940873D01*
X56317730Y-39894342D01*
X56306573Y-39829552D01*
X56301160Y-39754727D01*
X56301768Y-39685513D01*
X56448248Y-39685513D01*
X56449402Y-39781399D01*
X56449866Y-39787569D01*
X56456629Y-39840478D01*
X56468671Y-39874029D01*
X56489005Y-39897016D01*
X56523097Y-39918548D01*
X56556814Y-39919680D01*
X56591543Y-39894857D01*
X56597584Y-39888325D01*
X56609417Y-39868779D01*
X56616404Y-39840386D01*
X56619727Y-39796430D01*
X56620571Y-39730192D01*
X56619125Y-39668150D01*
X56611907Y-39609042D01*
X56597006Y-39571686D01*
X56572636Y-39552152D01*
X56537008Y-39546514D01*
X56523440Y-39547635D01*
X56485430Y-39568194D01*
X56460312Y-39614299D01*
X56448248Y-39685513D01*
X56301768Y-39685513D01*
X56301833Y-39678096D01*
X56308937Y-39607882D01*
X56322815Y-39552312D01*
X56340649Y-39515301D01*
X56390855Y-39457733D01*
X56458885Y-39421962D01*
X56542158Y-39409665D01*
X56564398Y-39410331D01*
X56629891Y-39423947D01*
X56683687Y-39458249D01*
X56733057Y-39517338D01*
X56735995Y-39521722D01*
X56749287Y-39545299D01*
X56757932Y-39571949D01*
X56762904Y-39608159D01*
X56765174Y-39660413D01*
X56765678Y-39730192D01*
X56765714Y-39735200D01*
G37*
X50640590Y-39752622D02*
X50640307Y-39791305D01*
X50636762Y-39867521D01*
X50627483Y-39923294D01*
X50610375Y-39964613D01*
X50583344Y-39997467D01*
X50544292Y-40027846D01*
X50519445Y-40041660D01*
X50479615Y-40050965D01*
X50423665Y-40050230D01*
X50392385Y-40047283D01*
X50354653Y-40038283D01*
X50324494Y-40018720D01*
X50289408Y-39982267D01*
X50284720Y-39976943D01*
X50253177Y-39935969D01*
X50238128Y-39900283D01*
X50234286Y-39857966D01*
X50234286Y-39795779D01*
X50277742Y-39812182D01*
X50309424Y-39831356D01*
X50336962Y-39876347D01*
X50342711Y-39890752D01*
X50374855Y-39931546D01*
X50418611Y-39952081D01*
X50466254Y-39950235D01*
X50510057Y-39923886D01*
X50525111Y-39907455D01*
X50538763Y-39882667D01*
X50534493Y-39860144D01*
X50509916Y-39836964D01*
X50462651Y-39810202D01*
X50390314Y-39776934D01*
X50241543Y-39711816D01*
X50237595Y-39647308D01*
X50239079Y-39606220D01*
X50336010Y-39606220D01*
X50343368Y-39631657D01*
X50376848Y-39658814D01*
X50437614Y-39689714D01*
X50447669Y-39694190D01*
X50495751Y-39715017D01*
X50531726Y-39729665D01*
X50548444Y-39735200D01*
X50550977Y-39731126D01*
X50551993Y-39706247D01*
X50548369Y-39666257D01*
X50539242Y-39627152D01*
X50510773Y-39577884D01*
X50469678Y-39550122D01*
X50420590Y-39546364D01*
X50368144Y-39569109D01*
X50353609Y-39580481D01*
X50336010Y-39606220D01*
X50239079Y-39606220D01*
X50239338Y-39599064D01*
X50261281Y-39538096D01*
X50288979Y-39504497D01*
X50346405Y-39466966D01*
X50414527Y-39448006D01*
X50484947Y-39449507D01*
X50549267Y-39473355D01*
X50563426Y-39482513D01*
X50595904Y-39510849D01*
X50618116Y-39546695D01*
X50631804Y-39595384D01*
X50638715Y-39662249D01*
X50639628Y-39706247D01*
X50640590Y-39752622D01*
G36*
X50640590Y-39752622D02*
G01*
X50640307Y-39791305D01*
X50636762Y-39867521D01*
X50627483Y-39923294D01*
X50610375Y-39964613D01*
X50583344Y-39997467D01*
X50544292Y-40027846D01*
X50519445Y-40041660D01*
X50479615Y-40050965D01*
X50423665Y-40050230D01*
X50392385Y-40047283D01*
X50354653Y-40038283D01*
X50324494Y-40018720D01*
X50289408Y-39982267D01*
X50284720Y-39976943D01*
X50253177Y-39935969D01*
X50238128Y-39900283D01*
X50234286Y-39857966D01*
X50234286Y-39795779D01*
X50277742Y-39812182D01*
X50309424Y-39831356D01*
X50336962Y-39876347D01*
X50342711Y-39890752D01*
X50374855Y-39931546D01*
X50418611Y-39952081D01*
X50466254Y-39950235D01*
X50510057Y-39923886D01*
X50525111Y-39907455D01*
X50538763Y-39882667D01*
X50534493Y-39860144D01*
X50509916Y-39836964D01*
X50462651Y-39810202D01*
X50390314Y-39776934D01*
X50241543Y-39711816D01*
X50237595Y-39647308D01*
X50239079Y-39606220D01*
X50336010Y-39606220D01*
X50343368Y-39631657D01*
X50376848Y-39658814D01*
X50437614Y-39689714D01*
X50447669Y-39694190D01*
X50495751Y-39715017D01*
X50531726Y-39729665D01*
X50548444Y-39735200D01*
X50550977Y-39731126D01*
X50551993Y-39706247D01*
X50548369Y-39666257D01*
X50539242Y-39627152D01*
X50510773Y-39577884D01*
X50469678Y-39550122D01*
X50420590Y-39546364D01*
X50368144Y-39569109D01*
X50353609Y-39580481D01*
X50336010Y-39606220D01*
X50239079Y-39606220D01*
X50239338Y-39599064D01*
X50261281Y-39538096D01*
X50288979Y-39504497D01*
X50346405Y-39466966D01*
X50414527Y-39448006D01*
X50484947Y-39449507D01*
X50549267Y-39473355D01*
X50563426Y-39482513D01*
X50595904Y-39510849D01*
X50618116Y-39546695D01*
X50631804Y-39595384D01*
X50638715Y-39662249D01*
X50639628Y-39706247D01*
X50640590Y-39752622D01*
G37*
X52730698Y-39749714D02*
X52729537Y-39806313D01*
X52721345Y-39883462D01*
X52703519Y-39941276D01*
X52673975Y-39985422D01*
X52630625Y-40021568D01*
X52589332Y-40042463D01*
X52519987Y-40054090D01*
X52450736Y-40041377D01*
X52388145Y-40005945D01*
X52338779Y-39949418D01*
X52332818Y-39938995D01*
X52324945Y-39920733D01*
X52319106Y-39897429D01*
X52314999Y-39865085D01*
X52312325Y-39819704D01*
X52310781Y-39757287D01*
X52310734Y-39751748D01*
X52411429Y-39751748D01*
X52411772Y-39804577D01*
X52413942Y-39852362D01*
X52419307Y-39883209D01*
X52429217Y-39903935D01*
X52445021Y-39921356D01*
X52448724Y-39924705D01*
X52496299Y-39949419D01*
X52546635Y-39946890D01*
X52593517Y-39917288D01*
X52607477Y-39901953D01*
X52619160Y-39881622D01*
X52625686Y-39853514D01*
X52628524Y-39810550D01*
X52629143Y-39745647D01*
X52628837Y-39696122D01*
X52626722Y-39647782D01*
X52621390Y-39616587D01*
X52611460Y-39595647D01*
X52595550Y-39578073D01*
X52586204Y-39570159D01*
X52537776Y-39548843D01*
X52487040Y-39552198D01*
X52442987Y-39580107D01*
X52433504Y-39591173D01*
X52421939Y-39612009D01*
X52415252Y-39641106D01*
X52412173Y-39685381D01*
X52411429Y-39751748D01*
X52310734Y-39751748D01*
X52310067Y-39673837D01*
X52309883Y-39565358D01*
X52309829Y-39228601D01*
X52357000Y-39248362D01*
X52369472Y-39253770D01*
X52389324Y-39265985D01*
X52400687Y-39284482D01*
X52406933Y-39316829D01*
X52411429Y-39370593D01*
X52415535Y-39418866D01*
X52420963Y-39450557D01*
X52428739Y-39462383D01*
X52440457Y-39459212D01*
X52470318Y-39448067D01*
X52523684Y-39445304D01*
X52581093Y-39455625D01*
X52630625Y-39477861D01*
X52657876Y-39498443D01*
X52692865Y-39538600D01*
X52715274Y-39590086D01*
X52727190Y-39658568D01*
X52730542Y-39745647D01*
X52730698Y-39749714D01*
G36*
X52730698Y-39749714D02*
G01*
X52729537Y-39806313D01*
X52721345Y-39883462D01*
X52703519Y-39941276D01*
X52673975Y-39985422D01*
X52630625Y-40021568D01*
X52589332Y-40042463D01*
X52519987Y-40054090D01*
X52450736Y-40041377D01*
X52388145Y-40005945D01*
X52338779Y-39949418D01*
X52332818Y-39938995D01*
X52324945Y-39920733D01*
X52319106Y-39897429D01*
X52314999Y-39865085D01*
X52312325Y-39819704D01*
X52310781Y-39757287D01*
X52310734Y-39751748D01*
X52411429Y-39751748D01*
X52411772Y-39804577D01*
X52413942Y-39852362D01*
X52419307Y-39883209D01*
X52429217Y-39903935D01*
X52445021Y-39921356D01*
X52448724Y-39924705D01*
X52496299Y-39949419D01*
X52546635Y-39946890D01*
X52593517Y-39917288D01*
X52607477Y-39901953D01*
X52619160Y-39881622D01*
X52625686Y-39853514D01*
X52628524Y-39810550D01*
X52629143Y-39745647D01*
X52628837Y-39696122D01*
X52626722Y-39647782D01*
X52621390Y-39616587D01*
X52611460Y-39595647D01*
X52595550Y-39578073D01*
X52586204Y-39570159D01*
X52537776Y-39548843D01*
X52487040Y-39552198D01*
X52442987Y-39580107D01*
X52433504Y-39591173D01*
X52421939Y-39612009D01*
X52415252Y-39641106D01*
X52412173Y-39685381D01*
X52411429Y-39751748D01*
X52310734Y-39751748D01*
X52310067Y-39673837D01*
X52309883Y-39565358D01*
X52309829Y-39228601D01*
X52357000Y-39248362D01*
X52369472Y-39253770D01*
X52389324Y-39265985D01*
X52400687Y-39284482D01*
X52406933Y-39316829D01*
X52411429Y-39370593D01*
X52415535Y-39418866D01*
X52420963Y-39450557D01*
X52428739Y-39462383D01*
X52440457Y-39459212D01*
X52470318Y-39448067D01*
X52523684Y-39445304D01*
X52581093Y-39455625D01*
X52630625Y-39477861D01*
X52657876Y-39498443D01*
X52692865Y-39538600D01*
X52715274Y-39590086D01*
X52727190Y-39658568D01*
X52730542Y-39745647D01*
X52730698Y-39749714D01*
G37*
X55662299Y-39694055D02*
X55657684Y-39804078D01*
X55655078Y-39827387D01*
X55635660Y-39910352D01*
X55600573Y-39973448D01*
X55547212Y-40021808D01*
X55544196Y-40023804D01*
X55476362Y-40052185D01*
X55405535Y-40054711D01*
X55337289Y-40033097D01*
X55277196Y-39989062D01*
X55230829Y-39924322D01*
X55230050Y-39922761D01*
X55214643Y-39882558D01*
X55203357Y-39836866D01*
X55197370Y-39793972D01*
X55197861Y-39762160D01*
X55206007Y-39749714D01*
X55213244Y-39750471D01*
X55247851Y-39764235D01*
X55287078Y-39789546D01*
X55320448Y-39818845D01*
X55337483Y-39844572D01*
X55355192Y-39879471D01*
X55391485Y-39911212D01*
X55433630Y-39923886D01*
X55449077Y-39920221D01*
X55479569Y-39901774D01*
X55506128Y-39876166D01*
X55517486Y-39852934D01*
X55517482Y-39852848D01*
X55504596Y-39842179D01*
X55470241Y-39822933D01*
X55419593Y-39797813D01*
X55357829Y-39769524D01*
X55357489Y-39769374D01*
X55290388Y-39739498D01*
X55245411Y-39717973D01*
X55218145Y-39701437D01*
X55204178Y-39686531D01*
X55199097Y-39669893D01*
X55198490Y-39648162D01*
X55202712Y-39607013D01*
X55346000Y-39607013D01*
X55360791Y-39619949D01*
X55397644Y-39639333D01*
X55398725Y-39639881D01*
X55442205Y-39660587D01*
X55481102Y-39677105D01*
X55505778Y-39684093D01*
X55515676Y-39674753D01*
X55517486Y-39642748D01*
X55509966Y-39602915D01*
X55483897Y-39566717D01*
X55446154Y-39547950D01*
X55404077Y-39549845D01*
X55365005Y-39575632D01*
X55349647Y-39593451D01*
X55346000Y-39607013D01*
X55202712Y-39607013D01*
X55203833Y-39596086D01*
X55230251Y-39525335D01*
X55274473Y-39469735D01*
X55331697Y-39431239D01*
X55397120Y-39411797D01*
X55465937Y-39413359D01*
X55533347Y-39437878D01*
X55594544Y-39487302D01*
X55628450Y-39536212D01*
X55652806Y-39606027D01*
X55656767Y-39642748D01*
X55662299Y-39694055D01*
G36*
X55662299Y-39694055D02*
G01*
X55657684Y-39804078D01*
X55655078Y-39827387D01*
X55635660Y-39910352D01*
X55600573Y-39973448D01*
X55547212Y-40021808D01*
X55544196Y-40023804D01*
X55476362Y-40052185D01*
X55405535Y-40054711D01*
X55337289Y-40033097D01*
X55277196Y-39989062D01*
X55230829Y-39924322D01*
X55230050Y-39922761D01*
X55214643Y-39882558D01*
X55203357Y-39836866D01*
X55197370Y-39793972D01*
X55197861Y-39762160D01*
X55206007Y-39749714D01*
X55213244Y-39750471D01*
X55247851Y-39764235D01*
X55287078Y-39789546D01*
X55320448Y-39818845D01*
X55337483Y-39844572D01*
X55355192Y-39879471D01*
X55391485Y-39911212D01*
X55433630Y-39923886D01*
X55449077Y-39920221D01*
X55479569Y-39901774D01*
X55506128Y-39876166D01*
X55517486Y-39852934D01*
X55517482Y-39852848D01*
X55504596Y-39842179D01*
X55470241Y-39822933D01*
X55419593Y-39797813D01*
X55357829Y-39769524D01*
X55357489Y-39769374D01*
X55290388Y-39739498D01*
X55245411Y-39717973D01*
X55218145Y-39701437D01*
X55204178Y-39686531D01*
X55199097Y-39669893D01*
X55198490Y-39648162D01*
X55202712Y-39607013D01*
X55346000Y-39607013D01*
X55360791Y-39619949D01*
X55397644Y-39639333D01*
X55398725Y-39639881D01*
X55442205Y-39660587D01*
X55481102Y-39677105D01*
X55505778Y-39684093D01*
X55515676Y-39674753D01*
X55517486Y-39642748D01*
X55509966Y-39602915D01*
X55483897Y-39566717D01*
X55446154Y-39547950D01*
X55404077Y-39549845D01*
X55365005Y-39575632D01*
X55349647Y-39593451D01*
X55346000Y-39607013D01*
X55202712Y-39607013D01*
X55203833Y-39596086D01*
X55230251Y-39525335D01*
X55274473Y-39469735D01*
X55331697Y-39431239D01*
X55397120Y-39411797D01*
X55465937Y-39413359D01*
X55533347Y-39437878D01*
X55594544Y-39487302D01*
X55628450Y-39536212D01*
X55652806Y-39606027D01*
X55656767Y-39642748D01*
X55662299Y-39694055D01*
G37*
X53589483Y-39460569D02*
X53639376Y-39489661D01*
X53661325Y-39512327D01*
X53703504Y-39580082D01*
X53717714Y-39653950D01*
X53717714Y-39704770D01*
X53670999Y-39685128D01*
X53638692Y-39665308D01*
X53613231Y-39624160D01*
X53610616Y-39615675D01*
X53582478Y-39572451D01*
X53540067Y-39549103D01*
X53491370Y-39548100D01*
X53444373Y-39571914D01*
X53437357Y-39578056D01*
X53413893Y-39604745D01*
X53410019Y-39628014D01*
X53427768Y-39650862D01*
X53469179Y-39676287D01*
X53536286Y-39707288D01*
X53540824Y-39709252D01*
X53615322Y-39743990D01*
X53666203Y-39774763D01*
X53697525Y-39805488D01*
X53713343Y-39840082D01*
X53717714Y-39882462D01*
X53711986Y-39929446D01*
X53683062Y-39989585D01*
X53632178Y-40032788D01*
X53595374Y-40045759D01*
X53543434Y-40052856D01*
X53492999Y-40051340D01*
X53456983Y-40040632D01*
X53453158Y-40037966D01*
X53442998Y-40019337D01*
X53450048Y-39986505D01*
X53462297Y-39960735D01*
X53481939Y-39950006D01*
X53519191Y-39950539D01*
X53570908Y-39947462D01*
X53604701Y-39926212D01*
X53616114Y-39886877D01*
X53616104Y-39885747D01*
X53609187Y-39862913D01*
X53585659Y-39841963D01*
X53539914Y-39817815D01*
X53477704Y-39788741D01*
X53436499Y-39772925D01*
X53412712Y-39773944D01*
X53401597Y-39794837D01*
X53398408Y-39838641D01*
X53398400Y-39908393D01*
X53398044Y-39951452D01*
X53396413Y-40004626D01*
X53393761Y-40041022D01*
X53390422Y-40054514D01*
X53389530Y-40054423D01*
X53370237Y-40047110D01*
X53338284Y-40031678D01*
X53294124Y-40008842D01*
X53299371Y-39803078D01*
X53299736Y-39789432D01*
X53303904Y-39693651D01*
X53311268Y-39621462D01*
X53323330Y-39568058D01*
X53341593Y-39528633D01*
X53367560Y-39498380D01*
X53402733Y-39472493D01*
X53403384Y-39472087D01*
X53460256Y-39450968D01*
X53526033Y-39447400D01*
X53589483Y-39460569D01*
G36*
X53589483Y-39460569D02*
G01*
X53639376Y-39489661D01*
X53661325Y-39512327D01*
X53703504Y-39580082D01*
X53717714Y-39653950D01*
X53717714Y-39704770D01*
X53670999Y-39685128D01*
X53638692Y-39665308D01*
X53613231Y-39624160D01*
X53610616Y-39615675D01*
X53582478Y-39572451D01*
X53540067Y-39549103D01*
X53491370Y-39548100D01*
X53444373Y-39571914D01*
X53437357Y-39578056D01*
X53413893Y-39604745D01*
X53410019Y-39628014D01*
X53427768Y-39650862D01*
X53469179Y-39676287D01*
X53536286Y-39707288D01*
X53540824Y-39709252D01*
X53615322Y-39743990D01*
X53666203Y-39774763D01*
X53697525Y-39805488D01*
X53713343Y-39840082D01*
X53717714Y-39882462D01*
X53711986Y-39929446D01*
X53683062Y-39989585D01*
X53632178Y-40032788D01*
X53595374Y-40045759D01*
X53543434Y-40052856D01*
X53492999Y-40051340D01*
X53456983Y-40040632D01*
X53453158Y-40037966D01*
X53442998Y-40019337D01*
X53450048Y-39986505D01*
X53462297Y-39960735D01*
X53481939Y-39950006D01*
X53519191Y-39950539D01*
X53570908Y-39947462D01*
X53604701Y-39926212D01*
X53616114Y-39886877D01*
X53616104Y-39885747D01*
X53609187Y-39862913D01*
X53585659Y-39841963D01*
X53539914Y-39817815D01*
X53477704Y-39788741D01*
X53436499Y-39772925D01*
X53412712Y-39773944D01*
X53401597Y-39794837D01*
X53398408Y-39838641D01*
X53398400Y-39908393D01*
X53398044Y-39951452D01*
X53396413Y-40004626D01*
X53393761Y-40041022D01*
X53390422Y-40054514D01*
X53389530Y-40054423D01*
X53370237Y-40047110D01*
X53338284Y-40031678D01*
X53294124Y-40008842D01*
X53299371Y-39803078D01*
X53299736Y-39789432D01*
X53303904Y-39693651D01*
X53311268Y-39621462D01*
X53323330Y-39568058D01*
X53341593Y-39528633D01*
X53367560Y-39498380D01*
X53402733Y-39472493D01*
X53403384Y-39472087D01*
X53460256Y-39450968D01*
X53526033Y-39447400D01*
X53589483Y-39460569D01*
G37*
X56209815Y-39801524D02*
X56211252Y-39913000D01*
X56211651Y-39945339D01*
X56212929Y-40053455D01*
X56213185Y-40136186D01*
X56211634Y-40196426D01*
X56207490Y-40237073D01*
X56199964Y-40261023D01*
X56188271Y-40271171D01*
X56171624Y-40270414D01*
X56149236Y-40261648D01*
X56120321Y-40247769D01*
X56114142Y-40244808D01*
X56088413Y-40230311D01*
X56074976Y-40213065D01*
X56069834Y-40184308D01*
X56068990Y-40135283D01*
X56068952Y-40047257D01*
X55978276Y-40047257D01*
X55922498Y-40044815D01*
X55878640Y-40034908D01*
X55842218Y-40014886D01*
X55839503Y-40012929D01*
X55802546Y-39979869D01*
X55776826Y-39939931D01*
X55760606Y-39887657D01*
X55752148Y-39817588D01*
X55750083Y-39738430D01*
X55894857Y-39738430D01*
X55894882Y-39751697D01*
X55896261Y-39811584D01*
X55900687Y-39850732D01*
X55909461Y-39876153D01*
X55923886Y-39894857D01*
X55924784Y-39895750D01*
X55960237Y-39919952D01*
X55994596Y-39917567D01*
X56033403Y-39888260D01*
X56042895Y-39878244D01*
X56056876Y-39857708D01*
X56064760Y-39830997D01*
X56068245Y-39790499D01*
X56069029Y-39728603D01*
X56068350Y-39691130D01*
X56060983Y-39622980D01*
X56044168Y-39578330D01*
X56016234Y-39553926D01*
X55975509Y-39546514D01*
X55958350Y-39548094D01*
X55928660Y-39563766D01*
X55909031Y-39598691D01*
X55898188Y-39655901D01*
X55894857Y-39738430D01*
X55750083Y-39738430D01*
X55749714Y-39724267D01*
X55750253Y-39656169D01*
X55752707Y-39604587D01*
X55758158Y-39568816D01*
X55767686Y-39542015D01*
X55782371Y-39517338D01*
X55795852Y-39498480D01*
X55844799Y-39447568D01*
X55900256Y-39419918D01*
X55969928Y-39411165D01*
X56049664Y-39419890D01*
X56118595Y-39451185D01*
X56173113Y-39506381D01*
X56177223Y-39512224D01*
X56186808Y-39527753D01*
X56194151Y-39545498D01*
X56199612Y-39569290D01*
X56203550Y-39602958D01*
X56206323Y-39650333D01*
X56208292Y-39715245D01*
X56208528Y-39728603D01*
X56209815Y-39801524D01*
G36*
X56209815Y-39801524D02*
G01*
X56211252Y-39913000D01*
X56211651Y-39945339D01*
X56212929Y-40053455D01*
X56213185Y-40136186D01*
X56211634Y-40196426D01*
X56207490Y-40237073D01*
X56199964Y-40261023D01*
X56188271Y-40271171D01*
X56171624Y-40270414D01*
X56149236Y-40261648D01*
X56120321Y-40247769D01*
X56114142Y-40244808D01*
X56088413Y-40230311D01*
X56074976Y-40213065D01*
X56069834Y-40184308D01*
X56068990Y-40135283D01*
X56068952Y-40047257D01*
X55978276Y-40047257D01*
X55922498Y-40044815D01*
X55878640Y-40034908D01*
X55842218Y-40014886D01*
X55839503Y-40012929D01*
X55802546Y-39979869D01*
X55776826Y-39939931D01*
X55760606Y-39887657D01*
X55752148Y-39817588D01*
X55750083Y-39738430D01*
X55894857Y-39738430D01*
X55894882Y-39751697D01*
X55896261Y-39811584D01*
X55900687Y-39850732D01*
X55909461Y-39876153D01*
X55923886Y-39894857D01*
X55924784Y-39895750D01*
X55960237Y-39919952D01*
X55994596Y-39917567D01*
X56033403Y-39888260D01*
X56042895Y-39878244D01*
X56056876Y-39857708D01*
X56064760Y-39830997D01*
X56068245Y-39790499D01*
X56069029Y-39728603D01*
X56068350Y-39691130D01*
X56060983Y-39622980D01*
X56044168Y-39578330D01*
X56016234Y-39553926D01*
X55975509Y-39546514D01*
X55958350Y-39548094D01*
X55928660Y-39563766D01*
X55909031Y-39598691D01*
X55898188Y-39655901D01*
X55894857Y-39738430D01*
X55750083Y-39738430D01*
X55749714Y-39724267D01*
X55750253Y-39656169D01*
X55752707Y-39604587D01*
X55758158Y-39568816D01*
X55767686Y-39542015D01*
X55782371Y-39517338D01*
X55795852Y-39498480D01*
X55844799Y-39447568D01*
X55900256Y-39419918D01*
X55969928Y-39411165D01*
X56049664Y-39419890D01*
X56118595Y-39451185D01*
X56173113Y-39506381D01*
X56177223Y-39512224D01*
X56186808Y-39527753D01*
X56194151Y-39545498D01*
X56199612Y-39569290D01*
X56203550Y-39602958D01*
X56206323Y-39650333D01*
X56208292Y-39715245D01*
X56208528Y-39728603D01*
X56209815Y-39801524D01*
G37*
X51467495Y-39446220D02*
X51498599Y-39454121D01*
X51527559Y-39473817D01*
X51564831Y-39510484D01*
X51588801Y-39536378D01*
X51613770Y-39569997D01*
X51625031Y-39601506D01*
X51627657Y-39641485D01*
X51627657Y-39706917D01*
X51583035Y-39683842D01*
X51547673Y-39655724D01*
X51523451Y-39617848D01*
X51519291Y-39607551D01*
X51487594Y-39567637D01*
X51443554Y-39547624D01*
X51395531Y-39549572D01*
X51351886Y-39575543D01*
X51333420Y-39596635D01*
X51322663Y-39623619D01*
X51334178Y-39647634D01*
X51369981Y-39671791D01*
X51432090Y-39699199D01*
X51441515Y-39702985D01*
X51498058Y-39727759D01*
X51546580Y-39752189D01*
X51577451Y-39771486D01*
X51608371Y-39805953D01*
X51628927Y-39860957D01*
X51626744Y-39919983D01*
X51602424Y-39975845D01*
X51556568Y-40021355D01*
X51519438Y-40040727D01*
X51447711Y-40054292D01*
X51407852Y-40052462D01*
X51370953Y-40042568D01*
X51356797Y-40021806D01*
X51362091Y-39987613D01*
X51363631Y-39983092D01*
X51375842Y-39959116D01*
X51396174Y-39950042D01*
X51434908Y-39950649D01*
X51462257Y-39951474D01*
X51494257Y-39944392D01*
X51516182Y-39923219D01*
X51528670Y-39897152D01*
X51530062Y-39869845D01*
X51529998Y-39869685D01*
X51513807Y-39854930D01*
X51479155Y-39833457D01*
X51434321Y-39809458D01*
X51387582Y-39787125D01*
X51347217Y-39770652D01*
X51321504Y-39764229D01*
X51317679Y-39770518D01*
X51312864Y-39800115D01*
X51309566Y-39848447D01*
X51308343Y-39909372D01*
X51308058Y-39951542D01*
X51306718Y-40004653D01*
X51304528Y-40041025D01*
X51301769Y-40054514D01*
X51287344Y-40049981D01*
X51258226Y-40037670D01*
X51221257Y-40020826D01*
X51221257Y-39804721D01*
X51221493Y-39749327D01*
X51223729Y-39665207D01*
X51229423Y-39602800D01*
X51239903Y-39557358D01*
X51256497Y-39524133D01*
X51280531Y-39498378D01*
X51313333Y-39475344D01*
X51355124Y-39456335D01*
X51432287Y-39444914D01*
X51467495Y-39446220D01*
G36*
X51467495Y-39446220D02*
G01*
X51498599Y-39454121D01*
X51527559Y-39473817D01*
X51564831Y-39510484D01*
X51588801Y-39536378D01*
X51613770Y-39569997D01*
X51625031Y-39601506D01*
X51627657Y-39641485D01*
X51627657Y-39706917D01*
X51583035Y-39683842D01*
X51547673Y-39655724D01*
X51523451Y-39617848D01*
X51519291Y-39607551D01*
X51487594Y-39567637D01*
X51443554Y-39547624D01*
X51395531Y-39549572D01*
X51351886Y-39575543D01*
X51333420Y-39596635D01*
X51322663Y-39623619D01*
X51334178Y-39647634D01*
X51369981Y-39671791D01*
X51432090Y-39699199D01*
X51441515Y-39702985D01*
X51498058Y-39727759D01*
X51546580Y-39752189D01*
X51577451Y-39771486D01*
X51608371Y-39805953D01*
X51628927Y-39860957D01*
X51626744Y-39919983D01*
X51602424Y-39975845D01*
X51556568Y-40021355D01*
X51519438Y-40040727D01*
X51447711Y-40054292D01*
X51407852Y-40052462D01*
X51370953Y-40042568D01*
X51356797Y-40021806D01*
X51362091Y-39987613D01*
X51363631Y-39983092D01*
X51375842Y-39959116D01*
X51396174Y-39950042D01*
X51434908Y-39950649D01*
X51462257Y-39951474D01*
X51494257Y-39944392D01*
X51516182Y-39923219D01*
X51528670Y-39897152D01*
X51530062Y-39869845D01*
X51529998Y-39869685D01*
X51513807Y-39854930D01*
X51479155Y-39833457D01*
X51434321Y-39809458D01*
X51387582Y-39787125D01*
X51347217Y-39770652D01*
X51321504Y-39764229D01*
X51317679Y-39770518D01*
X51312864Y-39800115D01*
X51309566Y-39848447D01*
X51308343Y-39909372D01*
X51308058Y-39951542D01*
X51306718Y-40004653D01*
X51304528Y-40041025D01*
X51301769Y-40054514D01*
X51287344Y-40049981D01*
X51258226Y-40037670D01*
X51221257Y-40020826D01*
X51221257Y-39804721D01*
X51221493Y-39749327D01*
X51223729Y-39665207D01*
X51229423Y-39602800D01*
X51239903Y-39557358D01*
X51256497Y-39524133D01*
X51280531Y-39498378D01*
X51313333Y-39475344D01*
X51355124Y-39456335D01*
X51432287Y-39444914D01*
X51467495Y-39446220D01*
G37*
X53613933Y-34742371D02*
X53689856Y-34742865D01*
X53744491Y-34744135D01*
X53781500Y-34746547D01*
X53804547Y-34750467D01*
X53817296Y-34756262D01*
X53823411Y-34764299D01*
X53826556Y-34774943D01*
X53826646Y-34775325D01*
X53831814Y-34800347D01*
X53841209Y-34848681D01*
X53853867Y-34915260D01*
X53868825Y-34995014D01*
X53885119Y-35082875D01*
X53886448Y-35090064D01*
X53902691Y-35175340D01*
X53917805Y-35250242D01*
X53930808Y-35310219D01*
X53940715Y-35350717D01*
X53946544Y-35367184D01*
X53946575Y-35367210D01*
X53964943Y-35376320D01*
X54002640Y-35391457D01*
X54051543Y-35409358D01*
X54054297Y-35410330D01*
X54116817Y-35433959D01*
X54189543Y-35463595D01*
X54257294Y-35493062D01*
X54368703Y-35543626D01*
X54615399Y-35375160D01*
X54632775Y-35363311D01*
X54707202Y-35312947D01*
X54773614Y-35268612D01*
X54828039Y-35232916D01*
X54866506Y-35208471D01*
X54885042Y-35197889D01*
X54897743Y-35200315D01*
X54926579Y-35219110D01*
X54971143Y-35256330D01*
X55032670Y-35313020D01*
X55112398Y-35390227D01*
X55119532Y-35397255D01*
X55182796Y-35460222D01*
X55238990Y-35517268D01*
X55284677Y-35564817D01*
X55316414Y-35599297D01*
X55330764Y-35617131D01*
X55330810Y-35617217D01*
X55332633Y-35630795D01*
X55325910Y-35652820D01*
X55308946Y-35686304D01*
X55280044Y-35734261D01*
X55237508Y-35799704D01*
X55179644Y-35885645D01*
X55169783Y-35900151D01*
X55119913Y-35973635D01*
X55075905Y-36038687D01*
X55040380Y-36091417D01*
X55015959Y-36127936D01*
X55005264Y-36144356D01*
X55004458Y-36147834D01*
X55009518Y-36173785D01*
X55024677Y-36216159D01*
X55047463Y-36267728D01*
X55078429Y-36335170D01*
X55113004Y-36415195D01*
X55142366Y-36487629D01*
X55149645Y-36506377D01*
X55168710Y-36554246D01*
X55182715Y-36587596D01*
X55189041Y-36600114D01*
X55196025Y-36601050D01*
X55227413Y-36606461D01*
X55278787Y-36615806D01*
X55344802Y-36628069D01*
X55420113Y-36642232D01*
X55499375Y-36657280D01*
X55577243Y-36672195D01*
X55648370Y-36685961D01*
X55707412Y-36697562D01*
X55749022Y-36705980D01*
X55767857Y-36710199D01*
X55770980Y-36711389D01*
X55778591Y-36717805D01*
X55784254Y-36731465D01*
X55788251Y-36755999D01*
X55790866Y-36795038D01*
X55792384Y-36852213D01*
X55793086Y-36931154D01*
X55793257Y-37035492D01*
X55793257Y-37352799D01*
X55717057Y-37367839D01*
X55707840Y-37369642D01*
X55658891Y-37378980D01*
X55591205Y-37391669D01*
X55512478Y-37406273D01*
X55430400Y-37421355D01*
X55398078Y-37427422D01*
X55325855Y-37442181D01*
X55265666Y-37456137D01*
X55223040Y-37467952D01*
X55203510Y-37476287D01*
X55194660Y-37489905D01*
X55178548Y-37525938D01*
X55162065Y-37572572D01*
X55156263Y-37590034D01*
X55134906Y-37647358D01*
X55107359Y-37715201D01*
X55078107Y-37782355D01*
X55062463Y-37817430D01*
X55040174Y-37869822D01*
X55024857Y-37909058D01*
X55019162Y-37928563D01*
X55019478Y-37930036D01*
X55030281Y-37950729D01*
X55054638Y-37990665D01*
X55090081Y-38045972D01*
X55134136Y-38112781D01*
X55184332Y-38187220D01*
X55349501Y-38429623D01*
X55132503Y-38646983D01*
X55111516Y-38667899D01*
X55047342Y-38730505D01*
X54989990Y-38784495D01*
X54942820Y-38826826D01*
X54909192Y-38854457D01*
X54892467Y-38864343D01*
X54874303Y-38856821D01*
X54836265Y-38835227D01*
X54782726Y-38802151D01*
X54717884Y-38760191D01*
X54645940Y-38711943D01*
X54575275Y-38664291D01*
X54511526Y-38622328D01*
X54459513Y-38589165D01*
X54423279Y-38567378D01*
X54406867Y-38559543D01*
X54405905Y-38559614D01*
X54384103Y-38567338D01*
X54345440Y-38585323D01*
X54297612Y-38610013D01*
X54297110Y-38610284D01*
X54233587Y-38642099D01*
X54190060Y-38657642D01*
X54163052Y-38657685D01*
X54149090Y-38643000D01*
X54143180Y-38628544D01*
X54127229Y-38589831D01*
X54102660Y-38530316D01*
X54070779Y-38453165D01*
X54032893Y-38361541D01*
X53990310Y-38258607D01*
X53944337Y-38147526D01*
X53902667Y-38046472D01*
X53860268Y-37942780D01*
X53822756Y-37850119D01*
X53791388Y-37771642D01*
X53767425Y-37710500D01*
X53752123Y-37669843D01*
X53746743Y-37652825D01*
X53757018Y-37637219D01*
X53785563Y-37611162D01*
X53825971Y-37580887D01*
X53922979Y-37501684D01*
X54009793Y-37400475D01*
X54073322Y-37289116D01*
X54113177Y-37170893D01*
X54128965Y-37049095D01*
X54120296Y-36927010D01*
X54086778Y-36807925D01*
X54028021Y-36695129D01*
X53943632Y-36591911D01*
X53899631Y-36551713D01*
X53794211Y-36480638D01*
X53681410Y-36434301D01*
X53564525Y-36411599D01*
X53446853Y-36411428D01*
X53331690Y-36432687D01*
X53222335Y-36474270D01*
X53122083Y-36535076D01*
X53034233Y-36614001D01*
X52962080Y-36709941D01*
X52908922Y-36821795D01*
X52878057Y-36948457D01*
X52872392Y-37009507D01*
X52880185Y-37141776D01*
X52915284Y-37267266D01*
X52976649Y-37383759D01*
X53063243Y-37489039D01*
X53174029Y-37580887D01*
X53212931Y-37609930D01*
X53242104Y-37636272D01*
X53253257Y-37652800D01*
X53248810Y-37667209D01*
X53234378Y-37705815D01*
X53211173Y-37765201D01*
X53180452Y-37842215D01*
X53143474Y-37933703D01*
X53101496Y-38036516D01*
X53055778Y-38147502D01*
X53014178Y-38248072D01*
X52971222Y-38351947D01*
X52932829Y-38444819D01*
X52900305Y-38523525D01*
X52874958Y-38584899D01*
X52858095Y-38625779D01*
X52851025Y-38643000D01*
X52850943Y-38643204D01*
X52836798Y-38657745D01*
X52809659Y-38657579D01*
X52766023Y-38641927D01*
X52702388Y-38610013D01*
X52697379Y-38607326D01*
X52650125Y-38583150D01*
X52612811Y-38566037D01*
X52593133Y-38559543D01*
X52577005Y-38567218D01*
X52540959Y-38588871D01*
X52489092Y-38621928D01*
X52425445Y-38663810D01*
X52354060Y-38711943D01*
X52283724Y-38759131D01*
X52218670Y-38801267D01*
X52164820Y-38834578D01*
X52126374Y-38856469D01*
X52107534Y-38864343D01*
X52104325Y-38863343D01*
X52081954Y-38847584D01*
X52043733Y-38815033D01*
X51993021Y-38768733D01*
X51933181Y-38711726D01*
X51867571Y-38647058D01*
X51650648Y-38429772D01*
X51819601Y-38181253D01*
X51988553Y-37932733D01*
X51937183Y-37821595D01*
X51937031Y-37821266D01*
X51906183Y-37750418D01*
X51874661Y-37671523D01*
X51849266Y-37601600D01*
X51845423Y-37590322D01*
X51826047Y-37537967D01*
X51808574Y-37497283D01*
X51796388Y-37476287D01*
X51791426Y-37473322D01*
X51761634Y-37463375D01*
X51711047Y-37450505D01*
X51645194Y-37436053D01*
X51569600Y-37421355D01*
X51546957Y-37417210D01*
X51465038Y-37402116D01*
X51388600Y-37387899D01*
X51325337Y-37375995D01*
X51282943Y-37367839D01*
X51206743Y-37352799D01*
X51206743Y-37035492D01*
X51206760Y-36996476D01*
X51207082Y-36901292D01*
X51208033Y-36830255D01*
X51209896Y-36779734D01*
X51212955Y-36746098D01*
X51217494Y-36725718D01*
X51223795Y-36714962D01*
X51232143Y-36710199D01*
X51240224Y-36708270D01*
X51273172Y-36701445D01*
X51325736Y-36691022D01*
X51392569Y-36678018D01*
X51468328Y-36663449D01*
X51547665Y-36648333D01*
X51625237Y-36633685D01*
X51695698Y-36620523D01*
X51753702Y-36609863D01*
X51793904Y-36602721D01*
X51810959Y-36600114D01*
X51812112Y-36598541D01*
X51821385Y-36578119D01*
X51837432Y-36539045D01*
X51857635Y-36487629D01*
X51885672Y-36418353D01*
X51920186Y-36338290D01*
X51952538Y-36267728D01*
X51959952Y-36251889D01*
X51980755Y-36202293D01*
X51993219Y-36164038D01*
X51994863Y-36144356D01*
X51994015Y-36142962D01*
X51980548Y-36122420D01*
X51953850Y-36082516D01*
X51916539Y-36027140D01*
X51871234Y-35960177D01*
X51820552Y-35885517D01*
X51763445Y-35800692D01*
X51720607Y-35734800D01*
X51691460Y-35686478D01*
X51674317Y-35652733D01*
X51667495Y-35630572D01*
X51669306Y-35617002D01*
X51669915Y-35615984D01*
X51686297Y-35596210D01*
X51719695Y-35560175D01*
X51766671Y-35511451D01*
X51823786Y-35453612D01*
X51887603Y-35390227D01*
X51953802Y-35325905D01*
X52018648Y-35265447D01*
X52066299Y-35224655D01*
X52097990Y-35202484D01*
X52114958Y-35197889D01*
X52117175Y-35198921D01*
X52140524Y-35212837D01*
X52182912Y-35240030D01*
X52240369Y-35277889D01*
X52308923Y-35323803D01*
X52384601Y-35375160D01*
X52631298Y-35543626D01*
X52742706Y-35493062D01*
X52745943Y-35491597D01*
X52814343Y-35461965D01*
X52886907Y-35432493D01*
X52948457Y-35409358D01*
X52948729Y-35409262D01*
X52997595Y-35391367D01*
X53035212Y-35376253D01*
X53053457Y-35367184D01*
X53053752Y-35366855D01*
X53059946Y-35348282D01*
X53070139Y-35306045D01*
X53083348Y-35244696D01*
X53098590Y-35168789D01*
X53114881Y-35082875D01*
X53115449Y-35079796D01*
X53131713Y-34992128D01*
X53146608Y-34912741D01*
X53159171Y-34846701D01*
X53168438Y-34799079D01*
X53173444Y-34774943D01*
X53173764Y-34773605D01*
X53177060Y-34763273D01*
X53183738Y-34755506D01*
X53197462Y-34749940D01*
X53221895Y-34746207D01*
X53260702Y-34743942D01*
X53317546Y-34742778D01*
X53396090Y-34742348D01*
X53500000Y-34742286D01*
X53513056Y-34742286D01*
X53613933Y-34742371D01*
G36*
X53613933Y-34742371D02*
G01*
X53689856Y-34742865D01*
X53744491Y-34744135D01*
X53781500Y-34746547D01*
X53804547Y-34750467D01*
X53817296Y-34756262D01*
X53823411Y-34764299D01*
X53826556Y-34774943D01*
X53826646Y-34775325D01*
X53831814Y-34800347D01*
X53841209Y-34848681D01*
X53853867Y-34915260D01*
X53868825Y-34995014D01*
X53885119Y-35082875D01*
X53886448Y-35090064D01*
X53902691Y-35175340D01*
X53917805Y-35250242D01*
X53930808Y-35310219D01*
X53940715Y-35350717D01*
X53946544Y-35367184D01*
X53946575Y-35367210D01*
X53964943Y-35376320D01*
X54002640Y-35391457D01*
X54051543Y-35409358D01*
X54054297Y-35410330D01*
X54116817Y-35433959D01*
X54189543Y-35463595D01*
X54257294Y-35493062D01*
X54368703Y-35543626D01*
X54615399Y-35375160D01*
X54632775Y-35363311D01*
X54707202Y-35312947D01*
X54773614Y-35268612D01*
X54828039Y-35232916D01*
X54866506Y-35208471D01*
X54885042Y-35197889D01*
X54897743Y-35200315D01*
X54926579Y-35219110D01*
X54971143Y-35256330D01*
X55032670Y-35313020D01*
X55112398Y-35390227D01*
X55119532Y-35397255D01*
X55182796Y-35460222D01*
X55238990Y-35517268D01*
X55284677Y-35564817D01*
X55316414Y-35599297D01*
X55330764Y-35617131D01*
X55330810Y-35617217D01*
X55332633Y-35630795D01*
X55325910Y-35652820D01*
X55308946Y-35686304D01*
X55280044Y-35734261D01*
X55237508Y-35799704D01*
X55179644Y-35885645D01*
X55169783Y-35900151D01*
X55119913Y-35973635D01*
X55075905Y-36038687D01*
X55040380Y-36091417D01*
X55015959Y-36127936D01*
X55005264Y-36144356D01*
X55004458Y-36147834D01*
X55009518Y-36173785D01*
X55024677Y-36216159D01*
X55047463Y-36267728D01*
X55078429Y-36335170D01*
X55113004Y-36415195D01*
X55142366Y-36487629D01*
X55149645Y-36506377D01*
X55168710Y-36554246D01*
X55182715Y-36587596D01*
X55189041Y-36600114D01*
X55196025Y-36601050D01*
X55227413Y-36606461D01*
X55278787Y-36615806D01*
X55344802Y-36628069D01*
X55420113Y-36642232D01*
X55499375Y-36657280D01*
X55577243Y-36672195D01*
X55648370Y-36685961D01*
X55707412Y-36697562D01*
X55749022Y-36705980D01*
X55767857Y-36710199D01*
X55770980Y-36711389D01*
X55778591Y-36717805D01*
X55784254Y-36731465D01*
X55788251Y-36755999D01*
X55790866Y-36795038D01*
X55792384Y-36852213D01*
X55793086Y-36931154D01*
X55793257Y-37035492D01*
X55793257Y-37352799D01*
X55717057Y-37367839D01*
X55707840Y-37369642D01*
X55658891Y-37378980D01*
X55591205Y-37391669D01*
X55512478Y-37406273D01*
X55430400Y-37421355D01*
X55398078Y-37427422D01*
X55325855Y-37442181D01*
X55265666Y-37456137D01*
X55223040Y-37467952D01*
X55203510Y-37476287D01*
X55194660Y-37489905D01*
X55178548Y-37525938D01*
X55162065Y-37572572D01*
X55156263Y-37590034D01*
X55134906Y-37647358D01*
X55107359Y-37715201D01*
X55078107Y-37782355D01*
X55062463Y-37817430D01*
X55040174Y-37869822D01*
X55024857Y-37909058D01*
X55019162Y-37928563D01*
X55019478Y-37930036D01*
X55030281Y-37950729D01*
X55054638Y-37990665D01*
X55090081Y-38045972D01*
X55134136Y-38112781D01*
X55184332Y-38187220D01*
X55349501Y-38429623D01*
X55132503Y-38646983D01*
X55111516Y-38667899D01*
X55047342Y-38730505D01*
X54989990Y-38784495D01*
X54942820Y-38826826D01*
X54909192Y-38854457D01*
X54892467Y-38864343D01*
X54874303Y-38856821D01*
X54836265Y-38835227D01*
X54782726Y-38802151D01*
X54717884Y-38760191D01*
X54645940Y-38711943D01*
X54575275Y-38664291D01*
X54511526Y-38622328D01*
X54459513Y-38589165D01*
X54423279Y-38567378D01*
X54406867Y-38559543D01*
X54405905Y-38559614D01*
X54384103Y-38567338D01*
X54345440Y-38585323D01*
X54297612Y-38610013D01*
X54297110Y-38610284D01*
X54233587Y-38642099D01*
X54190060Y-38657642D01*
X54163052Y-38657685D01*
X54149090Y-38643000D01*
X54143180Y-38628544D01*
X54127229Y-38589831D01*
X54102660Y-38530316D01*
X54070779Y-38453165D01*
X54032893Y-38361541D01*
X53990310Y-38258607D01*
X53944337Y-38147526D01*
X53902667Y-38046472D01*
X53860268Y-37942780D01*
X53822756Y-37850119D01*
X53791388Y-37771642D01*
X53767425Y-37710500D01*
X53752123Y-37669843D01*
X53746743Y-37652825D01*
X53757018Y-37637219D01*
X53785563Y-37611162D01*
X53825971Y-37580887D01*
X53922979Y-37501684D01*
X54009793Y-37400475D01*
X54073322Y-37289116D01*
X54113177Y-37170893D01*
X54128965Y-37049095D01*
X54120296Y-36927010D01*
X54086778Y-36807925D01*
X54028021Y-36695129D01*
X53943632Y-36591911D01*
X53899631Y-36551713D01*
X53794211Y-36480638D01*
X53681410Y-36434301D01*
X53564525Y-36411599D01*
X53446853Y-36411428D01*
X53331690Y-36432687D01*
X53222335Y-36474270D01*
X53122083Y-36535076D01*
X53034233Y-36614001D01*
X52962080Y-36709941D01*
X52908922Y-36821795D01*
X52878057Y-36948457D01*
X52872392Y-37009507D01*
X52880185Y-37141776D01*
X52915284Y-37267266D01*
X52976649Y-37383759D01*
X53063243Y-37489039D01*
X53174029Y-37580887D01*
X53212931Y-37609930D01*
X53242104Y-37636272D01*
X53253257Y-37652800D01*
X53248810Y-37667209D01*
X53234378Y-37705815D01*
X53211173Y-37765201D01*
X53180452Y-37842215D01*
X53143474Y-37933703D01*
X53101496Y-38036516D01*
X53055778Y-38147502D01*
X53014178Y-38248072D01*
X52971222Y-38351947D01*
X52932829Y-38444819D01*
X52900305Y-38523525D01*
X52874958Y-38584899D01*
X52858095Y-38625779D01*
X52851025Y-38643000D01*
X52850943Y-38643204D01*
X52836798Y-38657745D01*
X52809659Y-38657579D01*
X52766023Y-38641927D01*
X52702388Y-38610013D01*
X52697379Y-38607326D01*
X52650125Y-38583150D01*
X52612811Y-38566037D01*
X52593133Y-38559543D01*
X52577005Y-38567218D01*
X52540959Y-38588871D01*
X52489092Y-38621928D01*
X52425445Y-38663810D01*
X52354060Y-38711943D01*
X52283724Y-38759131D01*
X52218670Y-38801267D01*
X52164820Y-38834578D01*
X52126374Y-38856469D01*
X52107534Y-38864343D01*
X52104325Y-38863343D01*
X52081954Y-38847584D01*
X52043733Y-38815033D01*
X51993021Y-38768733D01*
X51933181Y-38711726D01*
X51867571Y-38647058D01*
X51650648Y-38429772D01*
X51819601Y-38181253D01*
X51988553Y-37932733D01*
X51937183Y-37821595D01*
X51937031Y-37821266D01*
X51906183Y-37750418D01*
X51874661Y-37671523D01*
X51849266Y-37601600D01*
X51845423Y-37590322D01*
X51826047Y-37537967D01*
X51808574Y-37497283D01*
X51796388Y-37476287D01*
X51791426Y-37473322D01*
X51761634Y-37463375D01*
X51711047Y-37450505D01*
X51645194Y-37436053D01*
X51569600Y-37421355D01*
X51546957Y-37417210D01*
X51465038Y-37402116D01*
X51388600Y-37387899D01*
X51325337Y-37375995D01*
X51282943Y-37367839D01*
X51206743Y-37352799D01*
X51206743Y-37035492D01*
X51206760Y-36996476D01*
X51207082Y-36901292D01*
X51208033Y-36830255D01*
X51209896Y-36779734D01*
X51212955Y-36746098D01*
X51217494Y-36725718D01*
X51223795Y-36714962D01*
X51232143Y-36710199D01*
X51240224Y-36708270D01*
X51273172Y-36701445D01*
X51325736Y-36691022D01*
X51392569Y-36678018D01*
X51468328Y-36663449D01*
X51547665Y-36648333D01*
X51625237Y-36633685D01*
X51695698Y-36620523D01*
X51753702Y-36609863D01*
X51793904Y-36602721D01*
X51810959Y-36600114D01*
X51812112Y-36598541D01*
X51821385Y-36578119D01*
X51837432Y-36539045D01*
X51857635Y-36487629D01*
X51885672Y-36418353D01*
X51920186Y-36338290D01*
X51952538Y-36267728D01*
X51959952Y-36251889D01*
X51980755Y-36202293D01*
X51993219Y-36164038D01*
X51994863Y-36144356D01*
X51994015Y-36142962D01*
X51980548Y-36122420D01*
X51953850Y-36082516D01*
X51916539Y-36027140D01*
X51871234Y-35960177D01*
X51820552Y-35885517D01*
X51763445Y-35800692D01*
X51720607Y-35734800D01*
X51691460Y-35686478D01*
X51674317Y-35652733D01*
X51667495Y-35630572D01*
X51669306Y-35617002D01*
X51669915Y-35615984D01*
X51686297Y-35596210D01*
X51719695Y-35560175D01*
X51766671Y-35511451D01*
X51823786Y-35453612D01*
X51887603Y-35390227D01*
X51953802Y-35325905D01*
X52018648Y-35265447D01*
X52066299Y-35224655D01*
X52097990Y-35202484D01*
X52114958Y-35197889D01*
X52117175Y-35198921D01*
X52140524Y-35212837D01*
X52182912Y-35240030D01*
X52240369Y-35277889D01*
X52308923Y-35323803D01*
X52384601Y-35375160D01*
X52631298Y-35543626D01*
X52742706Y-35493062D01*
X52745943Y-35491597D01*
X52814343Y-35461965D01*
X52886907Y-35432493D01*
X52948457Y-35409358D01*
X52948729Y-35409262D01*
X52997595Y-35391367D01*
X53035212Y-35376253D01*
X53053457Y-35367184D01*
X53053752Y-35366855D01*
X53059946Y-35348282D01*
X53070139Y-35306045D01*
X53083348Y-35244696D01*
X53098590Y-35168789D01*
X53114881Y-35082875D01*
X53115449Y-35079796D01*
X53131713Y-34992128D01*
X53146608Y-34912741D01*
X53159171Y-34846701D01*
X53168438Y-34799079D01*
X53173444Y-34774943D01*
X53173764Y-34773605D01*
X53177060Y-34763273D01*
X53183738Y-34755506D01*
X53197462Y-34749940D01*
X53221895Y-34746207D01*
X53260702Y-34743942D01*
X53317546Y-34742778D01*
X53396090Y-34742348D01*
X53500000Y-34742286D01*
X53513056Y-34742286D01*
X53613933Y-34742371D01*
G37*
X51082836Y-43492363D02*
X51097023Y-43506032D01*
X51138392Y-43547719D01*
X51193107Y-43604472D01*
X51258510Y-43673397D01*
X51331943Y-43751599D01*
X51410746Y-43836182D01*
X51492260Y-43924253D01*
X51573827Y-44012916D01*
X51652788Y-44099276D01*
X51726483Y-44180439D01*
X51792254Y-44253510D01*
X51847441Y-44315594D01*
X51889386Y-44363795D01*
X51915431Y-44395220D01*
X51922915Y-44406974D01*
X51920346Y-44408272D01*
X51895785Y-44421978D01*
X51847204Y-44449613D01*
X51776652Y-44489998D01*
X51686173Y-44541955D01*
X51577815Y-44604305D01*
X51453624Y-44675871D01*
X51315645Y-44755475D01*
X51165926Y-44841938D01*
X51006513Y-44934083D01*
X50839451Y-45030732D01*
X50777008Y-45066867D01*
X50612883Y-45161806D01*
X50457358Y-45251714D01*
X50312454Y-45335424D01*
X50180195Y-45411771D01*
X50062604Y-45479589D01*
X49961702Y-45537711D01*
X49879513Y-45584971D01*
X49818059Y-45620203D01*
X49779364Y-45642242D01*
X49765449Y-45649920D01*
X49766075Y-45645831D01*
X49777493Y-45622330D01*
X49798493Y-45584786D01*
X49811376Y-45562564D01*
X49838772Y-45515173D01*
X49879087Y-45445377D01*
X49931009Y-45355444D01*
X49993231Y-45247642D01*
X50064443Y-45124240D01*
X50143335Y-44987506D01*
X50228598Y-44839709D01*
X50318924Y-44683117D01*
X50413002Y-44520000D01*
X50505121Y-44360323D01*
X50594680Y-44205187D01*
X50678893Y-44059412D01*
X50756497Y-43925183D01*
X50826225Y-43804685D01*
X50886814Y-43700102D01*
X50936998Y-43613619D01*
X50975512Y-43547421D01*
X51001092Y-43503693D01*
X51012472Y-43484619D01*
X51035820Y-43448201D01*
X51082836Y-43492363D01*
G36*
X51082836Y-43492363D02*
G01*
X51097023Y-43506032D01*
X51138392Y-43547719D01*
X51193107Y-43604472D01*
X51258510Y-43673397D01*
X51331943Y-43751599D01*
X51410746Y-43836182D01*
X51492260Y-43924253D01*
X51573827Y-44012916D01*
X51652788Y-44099276D01*
X51726483Y-44180439D01*
X51792254Y-44253510D01*
X51847441Y-44315594D01*
X51889386Y-44363795D01*
X51915431Y-44395220D01*
X51922915Y-44406974D01*
X51920346Y-44408272D01*
X51895785Y-44421978D01*
X51847204Y-44449613D01*
X51776652Y-44489998D01*
X51686173Y-44541955D01*
X51577815Y-44604305D01*
X51453624Y-44675871D01*
X51315645Y-44755475D01*
X51165926Y-44841938D01*
X51006513Y-44934083D01*
X50839451Y-45030732D01*
X50777008Y-45066867D01*
X50612883Y-45161806D01*
X50457358Y-45251714D01*
X50312454Y-45335424D01*
X50180195Y-45411771D01*
X50062604Y-45479589D01*
X49961702Y-45537711D01*
X49879513Y-45584971D01*
X49818059Y-45620203D01*
X49779364Y-45642242D01*
X49765449Y-45649920D01*
X49766075Y-45645831D01*
X49777493Y-45622330D01*
X49798493Y-45584786D01*
X49811376Y-45562564D01*
X49838772Y-45515173D01*
X49879087Y-45445377D01*
X49931009Y-45355444D01*
X49993231Y-45247642D01*
X50064443Y-45124240D01*
X50143335Y-44987506D01*
X50228598Y-44839709D01*
X50318924Y-44683117D01*
X50413002Y-44520000D01*
X50505121Y-44360323D01*
X50594680Y-44205187D01*
X50678893Y-44059412D01*
X50756497Y-43925183D01*
X50826225Y-43804685D01*
X50886814Y-43700102D01*
X50936998Y-43613619D01*
X50975512Y-43547421D01*
X51001092Y-43503693D01*
X51012472Y-43484619D01*
X51035820Y-43448201D01*
X51082836Y-43492363D01*
G37*
X52845560Y-40323175D02*
X52857093Y-40340511D01*
X52882500Y-40382162D01*
X52920507Y-40445911D01*
X52969837Y-40529545D01*
X53029213Y-40630849D01*
X53097359Y-40747609D01*
X53173000Y-40877608D01*
X53254859Y-41018633D01*
X53341660Y-41168468D01*
X53432126Y-41324900D01*
X53524982Y-41485713D01*
X53618951Y-41648693D01*
X53712757Y-41811624D01*
X53805124Y-41972292D01*
X53894776Y-42128482D01*
X53980436Y-42277980D01*
X54060828Y-42418571D01*
X54134677Y-42548040D01*
X54200705Y-42664172D01*
X54257637Y-42764752D01*
X54304197Y-42847567D01*
X54339108Y-42910400D01*
X54361094Y-42951037D01*
X54368879Y-42967264D01*
X54368887Y-42967388D01*
X54356333Y-42984416D01*
X54320258Y-43013279D01*
X54264417Y-43051247D01*
X54192561Y-43095587D01*
X54144373Y-43123952D01*
X54075032Y-43163396D01*
X54026734Y-43188254D01*
X53996242Y-43199924D01*
X53980320Y-43199806D01*
X53975732Y-43189297D01*
X53975382Y-43187583D01*
X53962268Y-43166682D01*
X53934000Y-43131139D01*
X53895786Y-43087583D01*
X53878155Y-43068875D01*
X53823482Y-43018512D01*
X53763022Y-42975465D01*
X53693182Y-42938473D01*
X53610370Y-42906273D01*
X53510992Y-42877602D01*
X53391455Y-42851198D01*
X53248166Y-42825800D01*
X53077531Y-42800145D01*
X52881134Y-42771227D01*
X52691274Y-42740173D01*
X52525260Y-42709044D01*
X52379382Y-42676942D01*
X52249927Y-42642969D01*
X52133183Y-42606226D01*
X52025440Y-42565817D01*
X51922985Y-42520843D01*
X51847688Y-42483754D01*
X51775765Y-42444725D01*
X51718886Y-42409882D01*
X51681499Y-42381965D01*
X51668049Y-42363714D01*
X51668446Y-42362370D01*
X51679280Y-42340862D01*
X51703845Y-42295822D01*
X51740685Y-42229772D01*
X51788347Y-42145233D01*
X51845376Y-42044727D01*
X51910318Y-41930776D01*
X51981719Y-41805901D01*
X52058124Y-41672624D01*
X52138079Y-41533467D01*
X52220130Y-41390951D01*
X52302822Y-41247598D01*
X52384701Y-41105930D01*
X52464313Y-40968468D01*
X52540204Y-40837734D01*
X52610919Y-40716250D01*
X52675004Y-40606538D01*
X52731004Y-40511118D01*
X52777466Y-40432514D01*
X52812935Y-40373245D01*
X52835957Y-40335835D01*
X52845077Y-40322805D01*
X52845560Y-40323175D01*
G36*
X52845560Y-40323175D02*
G01*
X52857093Y-40340511D01*
X52882500Y-40382162D01*
X52920507Y-40445911D01*
X52969837Y-40529545D01*
X53029213Y-40630849D01*
X53097359Y-40747609D01*
X53173000Y-40877608D01*
X53254859Y-41018633D01*
X53341660Y-41168468D01*
X53432126Y-41324900D01*
X53524982Y-41485713D01*
X53618951Y-41648693D01*
X53712757Y-41811624D01*
X53805124Y-41972292D01*
X53894776Y-42128482D01*
X53980436Y-42277980D01*
X54060828Y-42418571D01*
X54134677Y-42548040D01*
X54200705Y-42664172D01*
X54257637Y-42764752D01*
X54304197Y-42847567D01*
X54339108Y-42910400D01*
X54361094Y-42951037D01*
X54368879Y-42967264D01*
X54368887Y-42967388D01*
X54356333Y-42984416D01*
X54320258Y-43013279D01*
X54264417Y-43051247D01*
X54192561Y-43095587D01*
X54144373Y-43123952D01*
X54075032Y-43163396D01*
X54026734Y-43188254D01*
X53996242Y-43199924D01*
X53980320Y-43199806D01*
X53975732Y-43189297D01*
X53975382Y-43187583D01*
X53962268Y-43166682D01*
X53934000Y-43131139D01*
X53895786Y-43087583D01*
X53878155Y-43068875D01*
X53823482Y-43018512D01*
X53763022Y-42975465D01*
X53693182Y-42938473D01*
X53610370Y-42906273D01*
X53510992Y-42877602D01*
X53391455Y-42851198D01*
X53248166Y-42825800D01*
X53077531Y-42800145D01*
X52881134Y-42771227D01*
X52691274Y-42740173D01*
X52525260Y-42709044D01*
X52379382Y-42676942D01*
X52249927Y-42642969D01*
X52133183Y-42606226D01*
X52025440Y-42565817D01*
X51922985Y-42520843D01*
X51847688Y-42483754D01*
X51775765Y-42444725D01*
X51718886Y-42409882D01*
X51681499Y-42381965D01*
X51668049Y-42363714D01*
X51668446Y-42362370D01*
X51679280Y-42340862D01*
X51703845Y-42295822D01*
X51740685Y-42229772D01*
X51788347Y-42145233D01*
X51845376Y-42044727D01*
X51910318Y-41930776D01*
X51981719Y-41805901D01*
X52058124Y-41672624D01*
X52138079Y-41533467D01*
X52220130Y-41390951D01*
X52302822Y-41247598D01*
X52384701Y-41105930D01*
X52464313Y-40968468D01*
X52540204Y-40837734D01*
X52610919Y-40716250D01*
X52675004Y-40606538D01*
X52731004Y-40511118D01*
X52777466Y-40432514D01*
X52812935Y-40373245D01*
X52835957Y-40335835D01*
X52845077Y-40322805D01*
X52845560Y-40323175D01*
G37*
X54710047Y-43546040D02*
X54715802Y-43554625D01*
X54736365Y-43588346D01*
X54770179Y-43645200D01*
X54815950Y-43722968D01*
X54872383Y-43819432D01*
X54938184Y-43932371D01*
X55012058Y-44059568D01*
X55092711Y-44198803D01*
X55178848Y-44347857D01*
X55269175Y-44504512D01*
X55293947Y-44547521D01*
X55391900Y-44717575D01*
X55490509Y-44888754D01*
X55587760Y-45057562D01*
X55681638Y-45220503D01*
X55770131Y-45374082D01*
X55851222Y-45514801D01*
X55922898Y-45639166D01*
X55983144Y-45743680D01*
X56029947Y-45824847D01*
X56251030Y-46208171D01*
X53151076Y-46208171D01*
X53022921Y-46208159D01*
X52717500Y-46208042D01*
X52421432Y-46207802D01*
X52136159Y-46207444D01*
X51863123Y-46206976D01*
X51603765Y-46206403D01*
X51359527Y-46205732D01*
X51131849Y-46204968D01*
X50922174Y-46204119D01*
X50731943Y-46203189D01*
X50562597Y-46202186D01*
X50415578Y-46201115D01*
X50292327Y-46199983D01*
X50194286Y-46198796D01*
X50122896Y-46197559D01*
X50079598Y-46196280D01*
X50065835Y-46194963D01*
X50076054Y-46188304D01*
X50111311Y-46167083D01*
X50169221Y-46132920D01*
X50247430Y-46087171D01*
X50343583Y-46031190D01*
X50455323Y-45966333D01*
X50580296Y-45893954D01*
X50716146Y-45815409D01*
X50860518Y-45732054D01*
X51011056Y-45645243D01*
X51165405Y-45556332D01*
X51321210Y-45466676D01*
X51476116Y-45377629D01*
X51627766Y-45290548D01*
X51773806Y-45206788D01*
X51911881Y-45127703D01*
X52039634Y-45054649D01*
X52154711Y-44988981D01*
X52254756Y-44932054D01*
X52337414Y-44885224D01*
X52400329Y-44849846D01*
X52441147Y-44827274D01*
X52457511Y-44818864D01*
X52468189Y-44820949D01*
X52500358Y-44839908D01*
X52546221Y-44875032D01*
X52600740Y-44922669D01*
X52649845Y-44970356D01*
X52712389Y-45035316D01*
X52782368Y-45111155D01*
X52856196Y-45193698D01*
X52930285Y-45278768D01*
X53001048Y-45362190D01*
X53064898Y-45439789D01*
X53118247Y-45507389D01*
X53157509Y-45560814D01*
X53179095Y-45595889D01*
X53193506Y-45621505D01*
X53232643Y-45674516D01*
X53282958Y-45730912D01*
X53337276Y-45783462D01*
X53388424Y-45824930D01*
X53429227Y-45848086D01*
X53474292Y-45853438D01*
X53534426Y-45838645D01*
X53591579Y-45804726D01*
X53635933Y-45756053D01*
X53643613Y-45743425D01*
X53653392Y-45722743D01*
X53659765Y-45697854D01*
X53663142Y-45663409D01*
X53663931Y-45614062D01*
X53662541Y-45544464D01*
X53659381Y-45449268D01*
X53657116Y-45394202D01*
X53652304Y-45307117D01*
X53646625Y-45230899D01*
X53640608Y-45172249D01*
X53634783Y-45137866D01*
X53620679Y-45098588D01*
X53578866Y-45021240D01*
X53513895Y-44929591D01*
X53424970Y-44822567D01*
X53311300Y-44699090D01*
X53261972Y-44647066D01*
X53204938Y-44585696D01*
X53157864Y-44533665D01*
X53124624Y-44495266D01*
X53109089Y-44474796D01*
X53107492Y-44471546D01*
X53105577Y-44457553D01*
X53115145Y-44442039D01*
X53140115Y-44421659D01*
X53184406Y-44393071D01*
X53251938Y-44352932D01*
X53309347Y-44319422D01*
X53414992Y-44258123D01*
X53498171Y-44210509D01*
X53561678Y-44175033D01*
X53608306Y-44150149D01*
X53640850Y-44134313D01*
X53662104Y-44125977D01*
X53684097Y-44116728D01*
X53696951Y-44104307D01*
X53698154Y-44101378D01*
X53716961Y-44085084D01*
X53751335Y-44064098D01*
X53805719Y-44034810D01*
X53845874Y-44072192D01*
X53860057Y-44087336D01*
X53893055Y-44128493D01*
X53933346Y-44183445D01*
X53975182Y-44244531D01*
X54064336Y-44379489D01*
X54060837Y-44729362D01*
X54057339Y-45079235D01*
X54006393Y-45128733D01*
X53989274Y-45146379D01*
X53934376Y-45225660D01*
X53902330Y-45319935D01*
X53891412Y-45433780D01*
X53894123Y-45494779D01*
X53913261Y-45602378D01*
X53948141Y-45700583D01*
X53995742Y-45779382D01*
X54028795Y-45808114D01*
X54087549Y-45829937D01*
X54154061Y-45832454D01*
X54219816Y-45816828D01*
X54276301Y-45784220D01*
X54315003Y-45735793D01*
X54316270Y-45733168D01*
X54339663Y-45685225D01*
X54364439Y-45635122D01*
X54385472Y-45588087D01*
X54415644Y-45508810D01*
X54448932Y-45411072D01*
X54484179Y-45299228D01*
X54520229Y-45177634D01*
X54555925Y-45050645D01*
X54590110Y-44922616D01*
X54621627Y-44797902D01*
X54649320Y-44680859D01*
X54672032Y-44575843D01*
X54688606Y-44487209D01*
X54697885Y-44419312D01*
X54698714Y-44376507D01*
X54696847Y-44366782D01*
X54678658Y-44317556D01*
X54644907Y-44251699D01*
X54598555Y-44175165D01*
X54580764Y-44147585D01*
X54509282Y-44035122D01*
X54448520Y-43936772D01*
X54399817Y-43854832D01*
X54364514Y-43791605D01*
X54343952Y-43749390D01*
X54339469Y-43730487D01*
X54339988Y-43729820D01*
X54358545Y-43716205D01*
X54398202Y-43691319D01*
X54453526Y-43658476D01*
X54519084Y-43620988D01*
X54524626Y-43617876D01*
X54595807Y-43578712D01*
X54645381Y-43553736D01*
X54677906Y-43541158D01*
X54697942Y-43539189D01*
X54710047Y-43546040D01*
G36*
X54710047Y-43546040D02*
G01*
X54715802Y-43554625D01*
X54736365Y-43588346D01*
X54770179Y-43645200D01*
X54815950Y-43722968D01*
X54872383Y-43819432D01*
X54938184Y-43932371D01*
X55012058Y-44059568D01*
X55092711Y-44198803D01*
X55178848Y-44347857D01*
X55269175Y-44504512D01*
X55293947Y-44547521D01*
X55391900Y-44717575D01*
X55490509Y-44888754D01*
X55587760Y-45057562D01*
X55681638Y-45220503D01*
X55770131Y-45374082D01*
X55851222Y-45514801D01*
X55922898Y-45639166D01*
X55983144Y-45743680D01*
X56029947Y-45824847D01*
X56251030Y-46208171D01*
X53151076Y-46208171D01*
X53022921Y-46208159D01*
X52717500Y-46208042D01*
X52421432Y-46207802D01*
X52136159Y-46207444D01*
X51863123Y-46206976D01*
X51603765Y-46206403D01*
X51359527Y-46205732D01*
X51131849Y-46204968D01*
X50922174Y-46204119D01*
X50731943Y-46203189D01*
X50562597Y-46202186D01*
X50415578Y-46201115D01*
X50292327Y-46199983D01*
X50194286Y-46198796D01*
X50122896Y-46197559D01*
X50079598Y-46196280D01*
X50065835Y-46194963D01*
X50076054Y-46188304D01*
X50111311Y-46167083D01*
X50169221Y-46132920D01*
X50247430Y-46087171D01*
X50343583Y-46031190D01*
X50455323Y-45966333D01*
X50580296Y-45893954D01*
X50716146Y-45815409D01*
X50860518Y-45732054D01*
X51011056Y-45645243D01*
X51165405Y-45556332D01*
X51321210Y-45466676D01*
X51476116Y-45377629D01*
X51627766Y-45290548D01*
X51773806Y-45206788D01*
X51911881Y-45127703D01*
X52039634Y-45054649D01*
X52154711Y-44988981D01*
X52254756Y-44932054D01*
X52337414Y-44885224D01*
X52400329Y-44849846D01*
X52441147Y-44827274D01*
X52457511Y-44818864D01*
X52468189Y-44820949D01*
X52500358Y-44839908D01*
X52546221Y-44875032D01*
X52600740Y-44922669D01*
X52649845Y-44970356D01*
X52712389Y-45035316D01*
X52782368Y-45111155D01*
X52856196Y-45193698D01*
X52930285Y-45278768D01*
X53001048Y-45362190D01*
X53064898Y-45439789D01*
X53118247Y-45507389D01*
X53157509Y-45560814D01*
X53179095Y-45595889D01*
X53193506Y-45621505D01*
X53232643Y-45674516D01*
X53282958Y-45730912D01*
X53337276Y-45783462D01*
X53388424Y-45824930D01*
X53429227Y-45848086D01*
X53474292Y-45853438D01*
X53534426Y-45838645D01*
X53591579Y-45804726D01*
X53635933Y-45756053D01*
X53643613Y-45743425D01*
X53653392Y-45722743D01*
X53659765Y-45697854D01*
X53663142Y-45663409D01*
X53663931Y-45614062D01*
X53662541Y-45544464D01*
X53659381Y-45449268D01*
X53657116Y-45394202D01*
X53652304Y-45307117D01*
X53646625Y-45230899D01*
X53640608Y-45172249D01*
X53634783Y-45137866D01*
X53620679Y-45098588D01*
X53578866Y-45021240D01*
X53513895Y-44929591D01*
X53424970Y-44822567D01*
X53311300Y-44699090D01*
X53261972Y-44647066D01*
X53204938Y-44585696D01*
X53157864Y-44533665D01*
X53124624Y-44495266D01*
X53109089Y-44474796D01*
X53107492Y-44471546D01*
X53105577Y-44457553D01*
X53115145Y-44442039D01*
X53140115Y-44421659D01*
X53184406Y-44393071D01*
X53251938Y-44352932D01*
X53309347Y-44319422D01*
X53414992Y-44258123D01*
X53498171Y-44210509D01*
X53561678Y-44175033D01*
X53608306Y-44150149D01*
X53640850Y-44134313D01*
X53662104Y-44125977D01*
X53684097Y-44116728D01*
X53696951Y-44104307D01*
X53698154Y-44101378D01*
X53716961Y-44085084D01*
X53751335Y-44064098D01*
X53805719Y-44034810D01*
X53845874Y-44072192D01*
X53860057Y-44087336D01*
X53893055Y-44128493D01*
X53933346Y-44183445D01*
X53975182Y-44244531D01*
X54064336Y-44379489D01*
X54060837Y-44729362D01*
X54057339Y-45079235D01*
X54006393Y-45128733D01*
X53989274Y-45146379D01*
X53934376Y-45225660D01*
X53902330Y-45319935D01*
X53891412Y-45433780D01*
X53894123Y-45494779D01*
X53913261Y-45602378D01*
X53948141Y-45700583D01*
X53995742Y-45779382D01*
X54028795Y-45808114D01*
X54087549Y-45829937D01*
X54154061Y-45832454D01*
X54219816Y-45816828D01*
X54276301Y-45784220D01*
X54315003Y-45735793D01*
X54316270Y-45733168D01*
X54339663Y-45685225D01*
X54364439Y-45635122D01*
X54385472Y-45588087D01*
X54415644Y-45508810D01*
X54448932Y-45411072D01*
X54484179Y-45299228D01*
X54520229Y-45177634D01*
X54555925Y-45050645D01*
X54590110Y-44922616D01*
X54621627Y-44797902D01*
X54649320Y-44680859D01*
X54672032Y-44575843D01*
X54688606Y-44487209D01*
X54697885Y-44419312D01*
X54698714Y-44376507D01*
X54696847Y-44366782D01*
X54678658Y-44317556D01*
X54644907Y-44251699D01*
X54598555Y-44175165D01*
X54580764Y-44147585D01*
X54509282Y-44035122D01*
X54448520Y-43936772D01*
X54399817Y-43854832D01*
X54364514Y-43791605D01*
X54343952Y-43749390D01*
X54339469Y-43730487D01*
X54339988Y-43729820D01*
X54358545Y-43716205D01*
X54398202Y-43691319D01*
X54453526Y-43658476D01*
X54519084Y-43620988D01*
X54524626Y-43617876D01*
X54595807Y-43578712D01*
X54645381Y-43553736D01*
X54677906Y-43541158D01*
X54697942Y-43539189D01*
X54710047Y-43546040D01*
G37*
%TD*%
M02*
