%TF.GenerationSoftware,KiCad,Pcbnew,9.0.2*%
%TF.CreationDate,2025-10-01T10:40:14+03:00*%
%TF.ProjectId,555_flip_flop,3535355f-666c-4697-905f-666c6f702e6b,rev?*%
%TF.SameCoordinates,Original*%
%TF.FileFunction,Copper,L1,Top*%
%TF.FilePolarity,Positive*%
%FSLAX46Y46*%
G04 Gerber Fmt 4.6, Leading zero omitted, Abs format (unit mm)*
G04 Created by KiCad (PCBNEW 9.0.2) date 2025-10-01 10:40:14*
%MOMM*%
%LPD*%
G01*
G04 APERTURE LIST*
G04 Aperture macros list*
%AMRoundRect*
0 Rectangle with rounded corners*
0 $1 Rounding radius*
0 $2 $3 $4 $5 $6 $7 $8 $9 X,Y pos of 4 corners*
0 Add a 4 corners polygon primitive as box body*
4,1,4,$2,$3,$4,$5,$6,$7,$8,$9,$2,$3,0*
0 Add four circle primitives for the rounded corners*
1,1,$1+$1,$2,$3*
1,1,$1+$1,$4,$5*
1,1,$1+$1,$6,$7*
1,1,$1+$1,$8,$9*
0 Add four rect primitives between the rounded corners*
20,1,$1+$1,$2,$3,$4,$5,0*
20,1,$1+$1,$4,$5,$6,$7,0*
20,1,$1+$1,$6,$7,$8,$9,0*
20,1,$1+$1,$8,$9,$2,$3,0*%
G04 Aperture macros list end*
%TA.AperFunction,ComponentPad*%
%ADD10C,1.400000*%
%TD*%
%TA.AperFunction,ComponentPad*%
%ADD11R,1.800000X1.800000*%
%TD*%
%TA.AperFunction,ComponentPad*%
%ADD12C,1.800000*%
%TD*%
%TA.AperFunction,ComponentPad*%
%ADD13RoundRect,0.250000X-0.950000X-0.550000X0.950000X-0.550000X0.950000X0.550000X-0.950000X0.550000X0*%
%TD*%
%TA.AperFunction,ComponentPad*%
%ADD14O,2.400000X1.600000*%
%TD*%
%TA.AperFunction,ComponentPad*%
%ADD15RoundRect,0.250000X0.620000X0.845000X-0.620000X0.845000X-0.620000X-0.845000X0.620000X-0.845000X0*%
%TD*%
%TA.AperFunction,ComponentPad*%
%ADD16O,1.740000X2.190000*%
%TD*%
%TA.AperFunction,ComponentPad*%
%ADD17C,1.600000*%
%TD*%
%TA.AperFunction,ComponentPad*%
%ADD18RoundRect,0.250000X-0.550000X-0.550000X0.550000X-0.550000X0.550000X0.550000X-0.550000X0.550000X0*%
%TD*%
%TA.AperFunction,ViaPad*%
%ADD19C,0.600000*%
%TD*%
%TA.AperFunction,Conductor*%
%ADD20C,0.500000*%
%TD*%
G04 APERTURE END LIST*
D10*
%TO.P,R2,1*%
%TO.N,Net-(D2-K)*%
X60120000Y-35250000D03*
%TO.P,R2,2*%
%TO.N,GND*%
X65200000Y-35250000D03*
%TD*%
%TO.P,R1,1*%
%TO.N,+5V*%
X60120000Y-31100000D03*
%TO.P,R1,2*%
%TO.N,Net-(D1-A)*%
X65200000Y-31100000D03*
%TD*%
D11*
%TO.P,D2,1,K*%
%TO.N,Net-(D2-K)*%
X62460000Y-40500000D03*
D12*
%TO.P,D2,2,A*%
%TO.N,Net-(D1-K)*%
X65000000Y-40500000D03*
%TD*%
D13*
%TO.P,U1,1,GND*%
%TO.N,GND*%
X49690000Y-29690000D03*
D14*
%TO.P,U1,2,TR*%
%TO.N,Net-(U1-THR)*%
X49690000Y-32230000D03*
%TO.P,U1,3,Q*%
%TO.N,Net-(D1-K)*%
X49690000Y-34770000D03*
%TO.P,U1,4,R*%
%TO.N,+5V*%
X49690000Y-37310000D03*
%TO.P,U1,5,CV*%
%TO.N,Net-(U1-CV)*%
X57310000Y-37310000D03*
%TO.P,U1,6,THR*%
%TO.N,Net-(U1-THR)*%
X57310000Y-34770000D03*
%TO.P,U1,7,DIS*%
%TO.N,Net-(U1-DIS)*%
X57310000Y-32230000D03*
%TO.P,U1,8,VCC*%
%TO.N,+5V*%
X57310000Y-29690000D03*
%TD*%
D10*
%TO.P,R4,1*%
%TO.N,Net-(U1-DIS)*%
X52040000Y-25250000D03*
%TO.P,R4,2*%
%TO.N,Net-(U1-THR)*%
X46960000Y-25250000D03*
%TD*%
%TO.P,R3,1*%
%TO.N,+5V*%
X59540000Y-25250000D03*
%TO.P,R3,2*%
%TO.N,Net-(U1-DIS)*%
X54460000Y-25250000D03*
%TD*%
D15*
%TO.P,J1,1,Pin_1*%
%TO.N,+5V*%
X49540000Y-42980000D03*
D16*
%TO.P,J1,2,Pin_2*%
%TO.N,GND*%
X47000000Y-42980000D03*
%TD*%
D11*
%TO.P,D1,1,K*%
%TO.N,Net-(D1-K)*%
X62460000Y-26410000D03*
D12*
%TO.P,D1,2,A*%
%TO.N,Net-(D1-A)*%
X65000000Y-26410000D03*
%TD*%
D17*
%TO.P,C2,1*%
%TO.N,Net-(U1-CV)*%
X46470000Y-33000000D03*
%TO.P,C2,2*%
%TO.N,GND*%
X46470000Y-30500000D03*
%TD*%
D18*
%TO.P,C1,1*%
%TO.N,Net-(U1-THR)*%
X56000000Y-43000000D03*
D17*
%TO.P,C1,2*%
%TO.N,GND*%
X58500000Y-43000000D03*
%TD*%
D19*
%TO.N,Net-(D1-K)*%
X54250000Y-38000000D03*
%TD*%
D20*
%TO.N,Net-(D1-K)*%
X51020000Y-34770000D02*
X54250000Y-38000000D01*
X49690000Y-34770000D02*
X51020000Y-34770000D01*
%TO.N,Net-(U1-THR)*%
X54770000Y-32230000D02*
X57310000Y-34770000D01*
X49690000Y-32230000D02*
X54770000Y-32230000D01*
%TO.N,Net-(U1-CV)*%
X55000000Y-40250000D02*
X57310000Y-37940000D01*
X46470000Y-38720000D02*
X48000000Y-40250000D01*
X57310000Y-37940000D02*
X57310000Y-37310000D01*
X48000000Y-40250000D02*
X55000000Y-40250000D01*
X46470000Y-33000000D02*
X46470000Y-38720000D01*
%TO.N,Net-(U1-DIS)*%
X54460000Y-29380000D02*
X57310000Y-32230000D01*
X54460000Y-25250000D02*
X54460000Y-29380000D01*
%TD*%
%TA.AperFunction,Conductor*%
%TO.N,GND*%
G36*
X58609414Y-24270185D02*
G01*
X58655169Y-24322989D01*
X58665113Y-24392147D01*
X58636088Y-24455703D01*
X58630056Y-24462181D01*
X58624312Y-24467924D01*
X58624312Y-24467925D01*
X58624310Y-24467927D01*
X58576610Y-24533579D01*
X58513240Y-24620800D01*
X58427454Y-24789163D01*
X58369059Y-24968881D01*
X58339500Y-25155513D01*
X58339500Y-25344486D01*
X58369059Y-25531118D01*
X58427454Y-25710836D01*
X58513240Y-25879199D01*
X58624310Y-26032073D01*
X58757927Y-26165690D01*
X58910801Y-26276760D01*
X58990347Y-26317290D01*
X59079163Y-26362545D01*
X59079165Y-26362545D01*
X59079168Y-26362547D01*
X59175497Y-26393846D01*
X59258881Y-26420940D01*
X59445514Y-26450500D01*
X59445519Y-26450500D01*
X59634486Y-26450500D01*
X59821118Y-26420940D01*
X60000832Y-26362547D01*
X60169199Y-26276760D01*
X60322073Y-26165690D01*
X60455690Y-26032073D01*
X60566760Y-25879199D01*
X60652547Y-25710832D01*
X60710940Y-25531118D01*
X60727682Y-25425413D01*
X60740500Y-25344486D01*
X60740500Y-25155513D01*
X60710940Y-24968881D01*
X60652545Y-24789163D01*
X60566759Y-24620800D01*
X60455690Y-24467927D01*
X60449944Y-24462181D01*
X60416459Y-24400858D01*
X60421443Y-24331166D01*
X60463315Y-24275233D01*
X60528779Y-24250816D01*
X60537625Y-24250500D01*
X66125500Y-24250500D01*
X66192539Y-24270185D01*
X66238294Y-24322989D01*
X66249500Y-24374500D01*
X66249500Y-25379531D01*
X66229815Y-25446570D01*
X66177011Y-25492325D01*
X66107853Y-25502269D01*
X66044297Y-25473244D01*
X66037819Y-25467212D01*
X65912363Y-25341756D01*
X65912358Y-25341752D01*
X65734025Y-25212187D01*
X65734024Y-25212186D01*
X65734022Y-25212185D01*
X65671096Y-25180122D01*
X65537606Y-25112104D01*
X65537603Y-25112103D01*
X65327952Y-25043985D01*
X65219086Y-25026742D01*
X65110222Y-25009500D01*
X64889778Y-25009500D01*
X64817201Y-25020995D01*
X64672047Y-25043985D01*
X64462396Y-25112103D01*
X64462393Y-25112104D01*
X64265974Y-25212187D01*
X64087641Y-25341752D01*
X64087636Y-25341756D01*
X64037463Y-25391929D01*
X63976140Y-25425413D01*
X63906448Y-25420428D01*
X63850515Y-25378557D01*
X63833601Y-25347580D01*
X63803797Y-25267671D01*
X63803793Y-25267664D01*
X63717547Y-25152455D01*
X63717544Y-25152452D01*
X63602335Y-25066206D01*
X63602328Y-25066202D01*
X63467482Y-25015908D01*
X63467483Y-25015908D01*
X63407883Y-25009501D01*
X63407881Y-25009500D01*
X63407873Y-25009500D01*
X63407864Y-25009500D01*
X61512129Y-25009500D01*
X61512123Y-25009501D01*
X61452516Y-25015908D01*
X61317671Y-25066202D01*
X61317664Y-25066206D01*
X61202455Y-25152452D01*
X61202452Y-25152455D01*
X61116206Y-25267664D01*
X61116202Y-25267671D01*
X61065908Y-25402517D01*
X61059501Y-25462116D01*
X61059500Y-25462135D01*
X61059500Y-27357870D01*
X61059501Y-27357876D01*
X61065908Y-27417483D01*
X61116202Y-27552328D01*
X61116206Y-27552335D01*
X61202452Y-27667544D01*
X61202455Y-27667547D01*
X61317664Y-27753793D01*
X61317671Y-27753797D01*
X61452517Y-27804091D01*
X61452516Y-27804091D01*
X61459444Y-27804835D01*
X61512127Y-27810500D01*
X63407872Y-27810499D01*
X63467483Y-27804091D01*
X63602331Y-27753796D01*
X63717546Y-27667546D01*
X63803796Y-27552331D01*
X63831429Y-27478243D01*
X63833601Y-27472420D01*
X63875471Y-27416486D01*
X63940936Y-27392068D01*
X64009209Y-27406919D01*
X64037464Y-27428071D01*
X64087636Y-27478243D01*
X64087641Y-27478247D01*
X64189603Y-27552326D01*
X64265978Y-27607815D01*
X64394375Y-27673237D01*
X64462393Y-27707895D01*
X64462396Y-27707896D01*
X64567221Y-27741955D01*
X64672049Y-27776015D01*
X64889778Y-27810500D01*
X64889779Y-27810500D01*
X65110221Y-27810500D01*
X65110222Y-27810500D01*
X65327951Y-27776015D01*
X65537606Y-27707895D01*
X65734022Y-27607815D01*
X65912365Y-27478242D01*
X66037819Y-27352788D01*
X66099142Y-27319303D01*
X66168834Y-27324287D01*
X66224767Y-27366159D01*
X66249184Y-27431623D01*
X66249500Y-27440469D01*
X66249500Y-30152375D01*
X66229815Y-30219414D01*
X66177011Y-30265169D01*
X66107853Y-30275113D01*
X66044297Y-30246088D01*
X66037819Y-30240056D01*
X65982075Y-30184312D01*
X65982073Y-30184310D01*
X65829199Y-30073240D01*
X65660836Y-29987454D01*
X65481118Y-29929059D01*
X65294486Y-29899500D01*
X65294481Y-29899500D01*
X65105519Y-29899500D01*
X65105514Y-29899500D01*
X64918881Y-29929059D01*
X64739163Y-29987454D01*
X64570800Y-30073240D01*
X64483579Y-30136610D01*
X64417927Y-30184310D01*
X64417925Y-30184312D01*
X64417924Y-30184312D01*
X64284312Y-30317924D01*
X64284312Y-30317925D01*
X64284310Y-30317927D01*
X64245307Y-30371610D01*
X64173240Y-30470800D01*
X64087454Y-30639163D01*
X64029059Y-30818881D01*
X63999500Y-31005513D01*
X63999500Y-31194486D01*
X64029059Y-31381118D01*
X64087454Y-31560836D01*
X64173240Y-31729199D01*
X64284310Y-31882073D01*
X64417927Y-32015690D01*
X64570801Y-32126760D01*
X64621880Y-32152786D01*
X64739163Y-32212545D01*
X64739165Y-32212545D01*
X64739168Y-32212547D01*
X64835497Y-32243846D01*
X64918881Y-32270940D01*
X65105514Y-32300500D01*
X65105519Y-32300500D01*
X65294486Y-32300500D01*
X65481118Y-32270940D01*
X65660832Y-32212547D01*
X65829199Y-32126760D01*
X65982073Y-32015690D01*
X66037819Y-31959944D01*
X66099142Y-31926459D01*
X66168834Y-31931443D01*
X66224767Y-31973315D01*
X66249184Y-32038779D01*
X66249500Y-32047625D01*
X66249500Y-34502690D01*
X66229815Y-34569729D01*
X66213181Y-34590371D01*
X65553554Y-35249999D01*
X65553554Y-35250000D01*
X66213181Y-35909627D01*
X66246666Y-35970950D01*
X66249500Y-35997308D01*
X66249500Y-39469531D01*
X66229815Y-39536570D01*
X66177011Y-39582325D01*
X66107853Y-39592269D01*
X66044297Y-39563244D01*
X66037819Y-39557212D01*
X65912363Y-39431756D01*
X65912358Y-39431752D01*
X65734025Y-39302187D01*
X65734024Y-39302186D01*
X65734022Y-39302185D01*
X65616791Y-39242452D01*
X65537606Y-39202104D01*
X65537603Y-39202103D01*
X65327952Y-39133985D01*
X65219086Y-39116742D01*
X65110222Y-39099500D01*
X64889778Y-39099500D01*
X64817201Y-39110995D01*
X64672047Y-39133985D01*
X64462396Y-39202103D01*
X64462393Y-39202104D01*
X64265974Y-39302187D01*
X64087641Y-39431752D01*
X64087636Y-39431756D01*
X64037463Y-39481929D01*
X63976140Y-39515413D01*
X63906448Y-39510428D01*
X63850515Y-39468557D01*
X63833601Y-39437580D01*
X63803797Y-39357671D01*
X63803793Y-39357664D01*
X63717547Y-39242455D01*
X63717544Y-39242452D01*
X63602335Y-39156206D01*
X63602328Y-39156202D01*
X63467482Y-39105908D01*
X63467483Y-39105908D01*
X63407883Y-39099501D01*
X63407881Y-39099500D01*
X63407873Y-39099500D01*
X63407864Y-39099500D01*
X61512129Y-39099500D01*
X61512123Y-39099501D01*
X61452516Y-39105908D01*
X61317671Y-39156202D01*
X61317664Y-39156206D01*
X61202455Y-39242452D01*
X61202452Y-39242455D01*
X61116206Y-39357664D01*
X61116202Y-39357671D01*
X61065908Y-39492517D01*
X61059501Y-39552116D01*
X61059500Y-39552135D01*
X61059500Y-41447870D01*
X61059501Y-41447876D01*
X61065908Y-41507483D01*
X61116202Y-41642328D01*
X61116206Y-41642335D01*
X61202452Y-41757544D01*
X61202455Y-41757547D01*
X61317664Y-41843793D01*
X61317671Y-41843797D01*
X61452517Y-41894091D01*
X61452516Y-41894091D01*
X61459444Y-41894835D01*
X61512127Y-41900500D01*
X63407872Y-41900499D01*
X63467483Y-41894091D01*
X63602331Y-41843796D01*
X63717546Y-41757546D01*
X63803796Y-41642331D01*
X63831429Y-41568243D01*
X63833601Y-41562420D01*
X63875471Y-41506486D01*
X63940936Y-41482068D01*
X64009209Y-41496919D01*
X64037464Y-41518071D01*
X64087636Y-41568243D01*
X64087641Y-41568247D01*
X64189603Y-41642326D01*
X64265978Y-41697815D01*
X64394375Y-41763237D01*
X64462393Y-41797895D01*
X64462396Y-41797896D01*
X64536007Y-41821813D01*
X64672049Y-41866015D01*
X64889778Y-41900500D01*
X64889779Y-41900500D01*
X65110221Y-41900500D01*
X65110222Y-41900500D01*
X65327951Y-41866015D01*
X65537606Y-41797895D01*
X65734022Y-41697815D01*
X65912365Y-41568242D01*
X66037819Y-41442788D01*
X66099142Y-41409303D01*
X66168834Y-41414287D01*
X66224767Y-41456159D01*
X66249184Y-41521623D01*
X66249500Y-41530469D01*
X66249500Y-46375500D01*
X66229815Y-46442539D01*
X66177011Y-46488294D01*
X66125500Y-46499500D01*
X45374500Y-46499500D01*
X45307461Y-46479815D01*
X45261706Y-46427011D01*
X45250500Y-46375500D01*
X45250500Y-42647179D01*
X45630000Y-42647179D01*
X45630000Y-42730000D01*
X46457291Y-42730000D01*
X46445548Y-42750339D01*
X46405000Y-42901667D01*
X46405000Y-43058333D01*
X46445548Y-43209661D01*
X46457291Y-43230000D01*
X45630000Y-43230000D01*
X45630000Y-43312820D01*
X45663734Y-43525809D01*
X45730372Y-43730901D01*
X45828271Y-43923036D01*
X45955025Y-44097496D01*
X45955025Y-44097497D01*
X46107502Y-44249974D01*
X46281963Y-44376728D01*
X46474098Y-44474627D01*
X46679190Y-44541266D01*
X46750000Y-44552481D01*
X46750000Y-43522709D01*
X46770339Y-43534452D01*
X46921667Y-43575000D01*
X47078333Y-43575000D01*
X47229661Y-43534452D01*
X47250000Y-43522709D01*
X47250000Y-44552480D01*
X47320809Y-44541266D01*
X47525901Y-44474627D01*
X47718036Y-44376728D01*
X47892493Y-44249977D01*
X48034578Y-44107892D01*
X48095901Y-44074407D01*
X48165593Y-44079391D01*
X48221527Y-44121262D01*
X48234640Y-44143165D01*
X48235181Y-44144325D01*
X48235185Y-44144331D01*
X48235186Y-44144334D01*
X48327288Y-44293656D01*
X48451344Y-44417712D01*
X48600666Y-44509814D01*
X48767203Y-44564999D01*
X48869991Y-44575500D01*
X50210008Y-44575499D01*
X50312797Y-44564999D01*
X50479334Y-44509814D01*
X50628656Y-44417712D01*
X50752712Y-44293656D01*
X50844814Y-44144334D01*
X50899999Y-43977797D01*
X50910500Y-43875009D01*
X50910499Y-42399983D01*
X54699500Y-42399983D01*
X54699500Y-43600001D01*
X54699501Y-43600018D01*
X54710000Y-43702796D01*
X54710001Y-43702799D01*
X54765185Y-43869331D01*
X54765187Y-43869336D01*
X54798309Y-43923036D01*
X54857288Y-44018656D01*
X54981344Y-44142712D01*
X55130666Y-44234814D01*
X55297203Y-44289999D01*
X55399991Y-44300500D01*
X56600008Y-44300499D01*
X56702797Y-44289999D01*
X56869334Y-44234814D01*
X57018656Y-44142712D01*
X57142712Y-44018656D01*
X57234814Y-43869334D01*
X57258102Y-43799054D01*
X57262110Y-43791050D01*
X57280060Y-43771772D01*
X57295055Y-43750116D01*
X57303495Y-43746606D01*
X57309725Y-43739917D01*
X57335249Y-43733404D01*
X57359571Y-43723292D01*
X57375834Y-43723048D01*
X57377425Y-43722643D01*
X57378523Y-43723008D01*
X57382719Y-43722946D01*
X57420525Y-43725921D01*
X58100000Y-43046446D01*
X58100000Y-43052661D01*
X58127259Y-43154394D01*
X58179920Y-43245606D01*
X58254394Y-43320080D01*
X58345606Y-43372741D01*
X58447339Y-43400000D01*
X58453553Y-43400000D01*
X57774076Y-44079474D01*
X57818650Y-44111859D01*
X58000968Y-44204755D01*
X58195582Y-44267990D01*
X58397683Y-44300000D01*
X58602317Y-44300000D01*
X58804417Y-44267990D01*
X58999031Y-44204755D01*
X59181349Y-44111859D01*
X59225921Y-44079474D01*
X58546447Y-43400000D01*
X58552661Y-43400000D01*
X58654394Y-43372741D01*
X58745606Y-43320080D01*
X58820080Y-43245606D01*
X58872741Y-43154394D01*
X58900000Y-43052661D01*
X58900000Y-43046447D01*
X59579474Y-43725921D01*
X59611859Y-43681349D01*
X59704755Y-43499031D01*
X59767990Y-43304417D01*
X59800000Y-43102317D01*
X59800000Y-42897682D01*
X59767990Y-42695582D01*
X59704755Y-42500968D01*
X59611859Y-42318650D01*
X59579474Y-42274077D01*
X59579474Y-42274076D01*
X58900000Y-42953551D01*
X58900000Y-42947339D01*
X58872741Y-42845606D01*
X58820080Y-42754394D01*
X58745606Y-42679920D01*
X58654394Y-42627259D01*
X58552661Y-42600000D01*
X58546446Y-42600000D01*
X59225922Y-41920524D01*
X59225921Y-41920523D01*
X59181359Y-41888147D01*
X59181350Y-41888141D01*
X58999031Y-41795244D01*
X58804417Y-41732009D01*
X58602317Y-41700000D01*
X58397683Y-41700000D01*
X58195582Y-41732009D01*
X58000968Y-41795244D01*
X57818644Y-41888143D01*
X57774077Y-41920523D01*
X57774077Y-41920524D01*
X58453554Y-42600000D01*
X58447339Y-42600000D01*
X58345606Y-42627259D01*
X58254394Y-42679920D01*
X58179920Y-42754394D01*
X58127259Y-42845606D01*
X58100000Y-42947339D01*
X58100000Y-42953553D01*
X57420524Y-42274077D01*
X57382719Y-42277053D01*
X57314341Y-42262689D01*
X57264584Y-42213638D01*
X57262110Y-42208949D01*
X57258101Y-42200942D01*
X57234814Y-42130666D01*
X57142712Y-41981344D01*
X57018656Y-41857288D01*
X56869334Y-41765186D01*
X56702797Y-41710001D01*
X56702795Y-41710000D01*
X56600010Y-41699500D01*
X55399998Y-41699500D01*
X55399981Y-41699501D01*
X55297203Y-41710000D01*
X55297200Y-41710001D01*
X55130668Y-41765185D01*
X55130663Y-41765187D01*
X54981342Y-41857289D01*
X54857289Y-41981342D01*
X54765187Y-42130663D01*
X54765186Y-42130666D01*
X54710001Y-42297203D01*
X54710001Y-42297204D01*
X54710000Y-42297204D01*
X54699500Y-42399983D01*
X50910499Y-42399983D01*
X50910499Y-42084992D01*
X50899999Y-41982203D01*
X50844814Y-41815666D01*
X50752712Y-41666344D01*
X50628656Y-41542288D01*
X50479334Y-41450186D01*
X50312797Y-41395001D01*
X50312795Y-41395000D01*
X50210010Y-41384500D01*
X48869998Y-41384500D01*
X48869981Y-41384501D01*
X48767203Y-41395000D01*
X48767200Y-41395001D01*
X48600668Y-41450185D01*
X48600663Y-41450187D01*
X48451342Y-41542289D01*
X48327289Y-41666342D01*
X48235182Y-41815672D01*
X48234638Y-41816840D01*
X48234051Y-41817505D01*
X48231395Y-41821813D01*
X48230658Y-41821358D01*
X48188461Y-41869275D01*
X48121266Y-41888422D01*
X48054387Y-41868201D01*
X48034579Y-41852107D01*
X47892497Y-41710025D01*
X47718036Y-41583271D01*
X47525899Y-41485372D01*
X47320805Y-41418733D01*
X47250000Y-41407518D01*
X47250000Y-42437290D01*
X47229661Y-42425548D01*
X47078333Y-42385000D01*
X46921667Y-42385000D01*
X46770339Y-42425548D01*
X46750000Y-42437290D01*
X46750000Y-41407518D01*
X46749999Y-41407518D01*
X46679194Y-41418733D01*
X46474100Y-41485372D01*
X46281963Y-41583271D01*
X46107503Y-41710025D01*
X46107502Y-41710025D01*
X45955025Y-41862502D01*
X45955025Y-41862503D01*
X45828271Y-42036963D01*
X45730372Y-42229098D01*
X45663734Y-42434190D01*
X45630000Y-42647179D01*
X45250500Y-42647179D01*
X45250500Y-33915678D01*
X45270185Y-33848639D01*
X45322989Y-33802884D01*
X45392147Y-33792940D01*
X45455703Y-33821965D01*
X45474822Y-33842798D01*
X45478032Y-33847217D01*
X45478034Y-33847219D01*
X45622781Y-33991966D01*
X45668384Y-34025098D01*
X45711050Y-34080425D01*
X45719500Y-34125416D01*
X45719500Y-38793918D01*
X45719500Y-38793920D01*
X45719499Y-38793920D01*
X45748340Y-38938907D01*
X45748343Y-38938917D01*
X45804912Y-39075488D01*
X45804916Y-39075495D01*
X45825236Y-39105906D01*
X45825237Y-39105909D01*
X45887046Y-39198414D01*
X45887052Y-39198421D01*
X47521584Y-40832952D01*
X47521586Y-40832954D01*
X47544422Y-40848211D01*
X47595270Y-40882186D01*
X47644505Y-40915084D01*
X47701080Y-40938518D01*
X47781088Y-40971659D01*
X47897241Y-40994763D01*
X47916468Y-40998587D01*
X47926081Y-41000500D01*
X47926082Y-41000500D01*
X55073920Y-41000500D01*
X55171462Y-40981096D01*
X55218913Y-40971658D01*
X55355495Y-40915084D01*
X55404729Y-40882186D01*
X55478416Y-40832952D01*
X57664548Y-38646818D01*
X57725871Y-38613334D01*
X57752229Y-38610500D01*
X57812351Y-38610500D01*
X57812352Y-38610500D01*
X58014534Y-38578477D01*
X58209219Y-38515220D01*
X58391610Y-38422287D01*
X58514866Y-38332737D01*
X58557213Y-38301971D01*
X58557215Y-38301968D01*
X58557219Y-38301966D01*
X58701966Y-38157219D01*
X58701968Y-38157215D01*
X58701971Y-38157213D01*
X58758910Y-38078842D01*
X58822287Y-37991610D01*
X58915220Y-37809219D01*
X58978477Y-37614534D01*
X59010500Y-37412352D01*
X59010500Y-37207648D01*
X58978477Y-37005466D01*
X58915220Y-36810781D01*
X58915218Y-36810778D01*
X58915218Y-36810776D01*
X58881503Y-36744607D01*
X58822287Y-36628390D01*
X58814556Y-36617749D01*
X58701971Y-36462786D01*
X58557213Y-36318028D01*
X58391614Y-36197715D01*
X58328761Y-36165690D01*
X58298917Y-36150483D01*
X58248123Y-36102511D01*
X58231328Y-36034690D01*
X58253865Y-35968555D01*
X58298917Y-35929516D01*
X58391610Y-35882287D01*
X58484060Y-35815119D01*
X58557213Y-35761971D01*
X58557215Y-35761968D01*
X58557219Y-35761966D01*
X58701966Y-35617219D01*
X58748988Y-35552497D01*
X58804318Y-35509832D01*
X58873932Y-35503853D01*
X58935727Y-35536458D01*
X58967238Y-35587064D01*
X59007454Y-35710836D01*
X59093104Y-35878933D01*
X59093240Y-35879199D01*
X59204310Y-36032073D01*
X59337927Y-36165690D01*
X59490801Y-36276760D01*
X59570347Y-36317290D01*
X59659163Y-36362545D01*
X59659165Y-36362545D01*
X59659168Y-36362547D01*
X59755497Y-36393846D01*
X59838881Y-36420940D01*
X60025514Y-36450500D01*
X60025519Y-36450500D01*
X60214486Y-36450500D01*
X60401118Y-36420940D01*
X60402623Y-36420451D01*
X60580832Y-36362547D01*
X60749199Y-36276760D01*
X60775182Y-36257882D01*
X64545669Y-36257882D01*
X64545670Y-36257883D01*
X64571059Y-36276329D01*
X64739362Y-36362085D01*
X64918997Y-36420451D01*
X65105553Y-36450000D01*
X65294447Y-36450000D01*
X65481002Y-36420451D01*
X65660637Y-36362085D01*
X65828937Y-36276331D01*
X65854328Y-36257883D01*
X65854328Y-36257882D01*
X65200001Y-35603554D01*
X65200000Y-35603554D01*
X64545669Y-36257882D01*
X60775182Y-36257882D01*
X60902073Y-36165690D01*
X61035690Y-36032073D01*
X61146760Y-35879199D01*
X61232547Y-35710832D01*
X61290940Y-35531118D01*
X61301427Y-35464905D01*
X61320500Y-35344486D01*
X61320500Y-35155552D01*
X64000000Y-35155552D01*
X64000000Y-35344447D01*
X64029548Y-35531002D01*
X64087914Y-35710637D01*
X64173666Y-35878933D01*
X64192116Y-35904328D01*
X64846446Y-35250000D01*
X64846446Y-35249999D01*
X64800369Y-35203922D01*
X64850000Y-35203922D01*
X64850000Y-35296078D01*
X64873852Y-35385095D01*
X64919930Y-35464905D01*
X64985095Y-35530070D01*
X65064905Y-35576148D01*
X65153922Y-35600000D01*
X65246078Y-35600000D01*
X65335095Y-35576148D01*
X65414905Y-35530070D01*
X65480070Y-35464905D01*
X65526148Y-35385095D01*
X65550000Y-35296078D01*
X65550000Y-35203922D01*
X65526148Y-35114905D01*
X65480070Y-35035095D01*
X65414905Y-34969930D01*
X65335095Y-34923852D01*
X65246078Y-34900000D01*
X65153922Y-34900000D01*
X65064905Y-34923852D01*
X64985095Y-34969930D01*
X64919930Y-35035095D01*
X64873852Y-35114905D01*
X64850000Y-35203922D01*
X64800369Y-35203922D01*
X64192116Y-34595669D01*
X64192116Y-34595670D01*
X64173669Y-34621060D01*
X64087914Y-34789362D01*
X64029548Y-34968997D01*
X64000000Y-35155552D01*
X61320500Y-35155552D01*
X61320500Y-35155513D01*
X61290940Y-34968881D01*
X61232545Y-34789163D01*
X61187290Y-34700347D01*
X61146760Y-34620801D01*
X61035690Y-34467927D01*
X60902073Y-34334310D01*
X60775179Y-34242116D01*
X64545669Y-34242116D01*
X65200000Y-34896446D01*
X65200001Y-34896446D01*
X65854328Y-34242116D01*
X65828933Y-34223666D01*
X65660637Y-34137914D01*
X65481002Y-34079548D01*
X65294447Y-34050000D01*
X65105553Y-34050000D01*
X64918997Y-34079548D01*
X64739362Y-34137914D01*
X64571060Y-34223669D01*
X64545670Y-34242116D01*
X64545669Y-34242116D01*
X60775179Y-34242116D01*
X60749199Y-34223240D01*
X60580836Y-34137454D01*
X60401118Y-34079059D01*
X60214486Y-34049500D01*
X60214481Y-34049500D01*
X60025519Y-34049500D01*
X60025514Y-34049500D01*
X59838881Y-34079059D01*
X59659163Y-34137454D01*
X59490800Y-34223240D01*
X59403579Y-34286610D01*
X59337927Y-34334310D01*
X59337925Y-34334312D01*
X59337924Y-34334312D01*
X59204312Y-34467924D01*
X59204312Y-34467925D01*
X59204310Y-34467927D01*
X59194948Y-34480812D01*
X59191859Y-34485064D01*
X59136527Y-34527728D01*
X59066914Y-34533704D01*
X59005120Y-34501096D01*
X58973612Y-34450493D01*
X58935862Y-34334312D01*
X58915220Y-34270781D01*
X58822287Y-34088390D01*
X58814556Y-34077749D01*
X58701971Y-33922786D01*
X58557213Y-33778028D01*
X58391614Y-33657715D01*
X58385006Y-33654348D01*
X58298917Y-33610483D01*
X58248123Y-33562511D01*
X58231328Y-33494690D01*
X58253865Y-33428555D01*
X58298917Y-33389516D01*
X58391610Y-33342287D01*
X58443573Y-33304534D01*
X58557213Y-33221971D01*
X58557215Y-33221968D01*
X58557219Y-33221966D01*
X58701966Y-33077219D01*
X58701968Y-33077215D01*
X58701971Y-33077213D01*
X58772236Y-32980500D01*
X58822287Y-32911610D01*
X58915220Y-32729219D01*
X58978477Y-32534534D01*
X59010500Y-32332352D01*
X59010500Y-32127648D01*
X58987405Y-31981835D01*
X58996359Y-31912543D01*
X59041355Y-31859091D01*
X59108107Y-31838451D01*
X59175421Y-31857176D01*
X59200629Y-31878863D01*
X59200865Y-31878628D01*
X59203998Y-31881761D01*
X59204170Y-31881909D01*
X59204310Y-31882073D01*
X59337927Y-32015690D01*
X59490801Y-32126760D01*
X59541880Y-32152786D01*
X59659163Y-32212545D01*
X59659165Y-32212545D01*
X59659168Y-32212547D01*
X59755497Y-32243846D01*
X59838881Y-32270940D01*
X60025514Y-32300500D01*
X60025519Y-32300500D01*
X60214486Y-32300500D01*
X60401118Y-32270940D01*
X60580832Y-32212547D01*
X60749199Y-32126760D01*
X60902073Y-32015690D01*
X61035690Y-31882073D01*
X61146760Y-31729199D01*
X61232547Y-31560832D01*
X61290940Y-31381118D01*
X61306638Y-31282005D01*
X61320500Y-31194486D01*
X61320500Y-31005513D01*
X61290940Y-30818881D01*
X61255024Y-30708345D01*
X61232547Y-30639168D01*
X61232545Y-30639165D01*
X61232545Y-30639163D01*
X61187290Y-30550347D01*
X61146760Y-30470801D01*
X61035690Y-30317927D01*
X60902073Y-30184310D01*
X60749199Y-30073240D01*
X60580836Y-29987454D01*
X60401118Y-29929059D01*
X60214486Y-29899500D01*
X60214481Y-29899500D01*
X60025519Y-29899500D01*
X60025514Y-29899500D01*
X59838881Y-29929059D01*
X59659163Y-29987454D01*
X59490800Y-30073240D01*
X59403579Y-30136610D01*
X59337927Y-30184310D01*
X59337925Y-30184312D01*
X59337924Y-30184312D01*
X59204312Y-30317924D01*
X59204312Y-30317925D01*
X59204310Y-30317927D01*
X59165307Y-30371610D01*
X59093240Y-30470800D01*
X59007454Y-30639163D01*
X58949059Y-30818881D01*
X58919500Y-31005513D01*
X58919500Y-31194486D01*
X58937480Y-31308009D01*
X58928525Y-31377303D01*
X58883529Y-31430755D01*
X58816777Y-31451394D01*
X58749464Y-31432669D01*
X58714688Y-31400291D01*
X58701969Y-31382784D01*
X58557213Y-31238028D01*
X58391614Y-31117715D01*
X58384884Y-31114286D01*
X58298917Y-31070483D01*
X58248123Y-31022511D01*
X58231328Y-30954690D01*
X58253865Y-30888555D01*
X58298917Y-30849516D01*
X58391610Y-30802287D01*
X58412770Y-30786913D01*
X58557213Y-30681971D01*
X58557215Y-30681968D01*
X58557219Y-30681966D01*
X58701966Y-30537219D01*
X58701968Y-30537215D01*
X58701971Y-30537213D01*
X58782384Y-30426532D01*
X58822287Y-30371610D01*
X58915220Y-30189219D01*
X58978477Y-29994534D01*
X59010500Y-29792352D01*
X59010500Y-29587648D01*
X59002257Y-29535606D01*
X58978477Y-29385465D01*
X58915218Y-29190776D01*
X58871742Y-29105451D01*
X58822287Y-29008390D01*
X58806966Y-28987302D01*
X58701971Y-28842786D01*
X58557213Y-28698028D01*
X58391613Y-28577715D01*
X58391612Y-28577714D01*
X58391610Y-28577713D01*
X58332675Y-28547684D01*
X58209223Y-28484781D01*
X58014534Y-28421522D01*
X57839995Y-28393878D01*
X57812352Y-28389500D01*
X56807648Y-28389500D01*
X56783329Y-28393351D01*
X56605465Y-28421522D01*
X56410776Y-28484781D01*
X56228386Y-28577715D01*
X56062786Y-28698028D01*
X55918028Y-28842786D01*
X55797715Y-29008386D01*
X55704781Y-29190776D01*
X55675926Y-29279584D01*
X55636488Y-29337259D01*
X55572129Y-29364457D01*
X55503283Y-29352542D01*
X55470314Y-29328946D01*
X55246819Y-29105451D01*
X55213334Y-29044128D01*
X55210500Y-29017770D01*
X55210500Y-26248625D01*
X55230185Y-26181586D01*
X55246819Y-26160944D01*
X55375690Y-26032073D01*
X55486760Y-25879199D01*
X55572547Y-25710832D01*
X55630940Y-25531118D01*
X55647682Y-25425413D01*
X55660500Y-25344486D01*
X55660500Y-25155513D01*
X55630940Y-24968881D01*
X55572545Y-24789163D01*
X55486759Y-24620800D01*
X55375690Y-24467927D01*
X55369944Y-24462181D01*
X55336459Y-24400858D01*
X55341443Y-24331166D01*
X55383315Y-24275233D01*
X55448779Y-24250816D01*
X55457625Y-24250500D01*
X58542375Y-24250500D01*
X58609414Y-24270185D01*
G37*
%TD.AperFunction*%
%TA.AperFunction,Conductor*%
G36*
X47975203Y-30371823D02*
G01*
X48011706Y-30426532D01*
X48055641Y-30559119D01*
X48055643Y-30559124D01*
X48147684Y-30708345D01*
X48271654Y-30832315D01*
X48420875Y-30924356D01*
X48420882Y-30924359D01*
X48503067Y-30951592D01*
X48560512Y-30991364D01*
X48587336Y-31055880D01*
X48575021Y-31124656D01*
X48536949Y-31169616D01*
X48442787Y-31238028D01*
X48442782Y-31238032D01*
X48298028Y-31382786D01*
X48177715Y-31548386D01*
X48084781Y-31730776D01*
X48021522Y-31925465D01*
X47989500Y-32127648D01*
X47989500Y-32332351D01*
X48021522Y-32534534D01*
X48084781Y-32729223D01*
X48177715Y-32911613D01*
X48298028Y-33077213D01*
X48442786Y-33221971D01*
X48556427Y-33304534D01*
X48608390Y-33342287D01*
X48699840Y-33388883D01*
X48701080Y-33389515D01*
X48751876Y-33437490D01*
X48768671Y-33505311D01*
X48746134Y-33571446D01*
X48701080Y-33610485D01*
X48608386Y-33657715D01*
X48442786Y-33778028D01*
X48298028Y-33922786D01*
X48177715Y-34088386D01*
X48084781Y-34270776D01*
X48021522Y-34465465D01*
X47989500Y-34667648D01*
X47989500Y-34872351D01*
X48021522Y-35074534D01*
X48084781Y-35269223D01*
X48177715Y-35451613D01*
X48298028Y-35617213D01*
X48442786Y-35761971D01*
X48538104Y-35831222D01*
X48608390Y-35882287D01*
X48662048Y-35909627D01*
X48701080Y-35929515D01*
X48751876Y-35977490D01*
X48768671Y-36045311D01*
X48746134Y-36111446D01*
X48701080Y-36150485D01*
X48608386Y-36197715D01*
X48442786Y-36318028D01*
X48298028Y-36462786D01*
X48177715Y-36628386D01*
X48084781Y-36810776D01*
X48021522Y-37005465D01*
X47989500Y-37207648D01*
X47989500Y-37412351D01*
X48021522Y-37614534D01*
X48084781Y-37809223D01*
X48177715Y-37991613D01*
X48298028Y-38157213D01*
X48442786Y-38301971D01*
X48597749Y-38414556D01*
X48608390Y-38422287D01*
X48724607Y-38481503D01*
X48790776Y-38515218D01*
X48790778Y-38515218D01*
X48790781Y-38515220D01*
X48895137Y-38549127D01*
X48985465Y-38578477D01*
X49086557Y-38594488D01*
X49187648Y-38610500D01*
X49187649Y-38610500D01*
X50192351Y-38610500D01*
X50192352Y-38610500D01*
X50394534Y-38578477D01*
X50589219Y-38515220D01*
X50771610Y-38422287D01*
X50894866Y-38332737D01*
X50937213Y-38301971D01*
X50937215Y-38301968D01*
X50937219Y-38301966D01*
X51081966Y-38157219D01*
X51081968Y-38157215D01*
X51081971Y-38157213D01*
X51138910Y-38078842D01*
X51202287Y-37991610D01*
X51295220Y-37809219D01*
X51358477Y-37614534D01*
X51390500Y-37412352D01*
X51390500Y-37207648D01*
X51358477Y-37005466D01*
X51295220Y-36810781D01*
X51295218Y-36810778D01*
X51295218Y-36810776D01*
X51261503Y-36744607D01*
X51202287Y-36628390D01*
X51194556Y-36617749D01*
X51081971Y-36462786D01*
X50937213Y-36318028D01*
X50771614Y-36197715D01*
X50708761Y-36165690D01*
X50678917Y-36150483D01*
X50673376Y-36145250D01*
X50666108Y-36142958D01*
X50648332Y-36121597D01*
X50628123Y-36102511D01*
X50626290Y-36095110D01*
X50621415Y-36089252D01*
X50618008Y-36061667D01*
X50611328Y-36034690D01*
X50613786Y-36027475D01*
X50612852Y-36019909D01*
X50624900Y-35994860D01*
X50633865Y-35968555D01*
X50640594Y-35962235D01*
X50643139Y-35956945D01*
X50659954Y-35944054D01*
X50670268Y-35934368D01*
X50674489Y-35931772D01*
X50771610Y-35882287D01*
X50863169Y-35815765D01*
X50867227Y-35813271D01*
X50896507Y-35805304D01*
X50925093Y-35795105D01*
X50929892Y-35796221D01*
X50934646Y-35794928D01*
X50963584Y-35804055D01*
X50993147Y-35810930D01*
X50998660Y-35815119D01*
X51001279Y-35815945D01*
X51003912Y-35819109D01*
X51019854Y-35831222D01*
X53503927Y-38315295D01*
X53530807Y-38355523D01*
X53540604Y-38379175D01*
X53540609Y-38379185D01*
X53628210Y-38510288D01*
X53628213Y-38510292D01*
X53739707Y-38621786D01*
X53739711Y-38621789D01*
X53870814Y-38709390D01*
X53870827Y-38709397D01*
X54016498Y-38769735D01*
X54016503Y-38769737D01*
X54171153Y-38800499D01*
X54171156Y-38800500D01*
X54171158Y-38800500D01*
X54328844Y-38800500D01*
X54328845Y-38800499D01*
X54483497Y-38769737D01*
X54629179Y-38709394D01*
X54760289Y-38621789D01*
X54871789Y-38510289D01*
X54959394Y-38379179D01*
X55019737Y-38233497D01*
X55050500Y-38078842D01*
X55050500Y-37921158D01*
X55050500Y-37921155D01*
X55050499Y-37921153D01*
X55019737Y-37766503D01*
X55019735Y-37766498D01*
X54959397Y-37620827D01*
X54959390Y-37620814D01*
X54871789Y-37489711D01*
X54871786Y-37489707D01*
X54760292Y-37378213D01*
X54760288Y-37378210D01*
X54629185Y-37290609D01*
X54629175Y-37290604D01*
X54605523Y-37280807D01*
X54565295Y-37253927D01*
X51498417Y-34187049D01*
X51424190Y-34137453D01*
X51424189Y-34137452D01*
X51375501Y-34104919D01*
X51375488Y-34104912D01*
X51238917Y-34048343D01*
X51238907Y-34048340D01*
X51209687Y-34042528D01*
X51147776Y-34010143D01*
X51133563Y-33993799D01*
X51081966Y-33922781D01*
X50937219Y-33778034D01*
X50937213Y-33778028D01*
X50771614Y-33657715D01*
X50765006Y-33654348D01*
X50678917Y-33610483D01*
X50628123Y-33562511D01*
X50611328Y-33494690D01*
X50633865Y-33428555D01*
X50678917Y-33389516D01*
X50771610Y-33342287D01*
X50823573Y-33304534D01*
X50937213Y-33221971D01*
X50937215Y-33221968D01*
X50937219Y-33221966D01*
X51081966Y-33077219D01*
X51084650Y-33073524D01*
X51115100Y-33031615D01*
X51170429Y-32988949D01*
X51215418Y-32980500D01*
X54407770Y-32980500D01*
X54474809Y-33000185D01*
X54495451Y-33016819D01*
X55661994Y-34183362D01*
X55695479Y-34244685D01*
X55692244Y-34309361D01*
X55641523Y-34465461D01*
X55641523Y-34465464D01*
X55609500Y-34667648D01*
X55609500Y-34872351D01*
X55641522Y-35074534D01*
X55704781Y-35269223D01*
X55797715Y-35451613D01*
X55918028Y-35617213D01*
X56062786Y-35761971D01*
X56158104Y-35831222D01*
X56228390Y-35882287D01*
X56282048Y-35909627D01*
X56321080Y-35929515D01*
X56371876Y-35977490D01*
X56388671Y-36045311D01*
X56366134Y-36111446D01*
X56321080Y-36150485D01*
X56228386Y-36197715D01*
X56062786Y-36318028D01*
X55918028Y-36462786D01*
X55797715Y-36628386D01*
X55704781Y-36810776D01*
X55641522Y-37005465D01*
X55609500Y-37207648D01*
X55609500Y-37412351D01*
X55641522Y-37614534D01*
X55704781Y-37809223D01*
X55797715Y-37991613D01*
X55903494Y-38137207D01*
X55926974Y-38203013D01*
X55911148Y-38271067D01*
X55890857Y-38297773D01*
X54725451Y-39463181D01*
X54664128Y-39496666D01*
X54637770Y-39499500D01*
X48362230Y-39499500D01*
X48295191Y-39479815D01*
X48274549Y-39463181D01*
X47256819Y-38445451D01*
X47223334Y-38384128D01*
X47220500Y-38357770D01*
X47220500Y-34125416D01*
X47240185Y-34058377D01*
X47271613Y-34025099D01*
X47317219Y-33991966D01*
X47461966Y-33847219D01*
X47461968Y-33847215D01*
X47461971Y-33847213D01*
X47514732Y-33774590D01*
X47582287Y-33681610D01*
X47675220Y-33499219D01*
X47738477Y-33304534D01*
X47770500Y-33102352D01*
X47770500Y-32897648D01*
X47738477Y-32695466D01*
X47675220Y-32500781D01*
X47675218Y-32500778D01*
X47675218Y-32500776D01*
X47641503Y-32434607D01*
X47582287Y-32318390D01*
X47547813Y-32270940D01*
X47461971Y-32152786D01*
X47317213Y-32008028D01*
X47151611Y-31887713D01*
X47097621Y-31860203D01*
X47046825Y-31812228D01*
X47030031Y-31744407D01*
X47052569Y-31678272D01*
X47097624Y-31639233D01*
X47151349Y-31611859D01*
X47195921Y-31579474D01*
X46516447Y-30900000D01*
X46522661Y-30900000D01*
X46624394Y-30872741D01*
X46715606Y-30820080D01*
X46790080Y-30745606D01*
X46842741Y-30654394D01*
X46870000Y-30552661D01*
X46870000Y-30546447D01*
X47549474Y-31225921D01*
X47581859Y-31181349D01*
X47674755Y-30999031D01*
X47737990Y-30804417D01*
X47770000Y-30602317D01*
X47770000Y-30465536D01*
X47789685Y-30398497D01*
X47842489Y-30352742D01*
X47911647Y-30342798D01*
X47975203Y-30371823D01*
G37*
%TD.AperFunction*%
%TA.AperFunction,Conductor*%
G36*
X46070000Y-30552661D02*
G01*
X46097259Y-30654394D01*
X46149920Y-30745606D01*
X46224394Y-30820080D01*
X46315606Y-30872741D01*
X46417339Y-30900000D01*
X46423553Y-30900000D01*
X45744076Y-31579474D01*
X45788652Y-31611861D01*
X45842376Y-31639234D01*
X45893172Y-31687208D01*
X45909968Y-31755028D01*
X45887431Y-31821164D01*
X45842379Y-31860203D01*
X45788386Y-31887714D01*
X45622786Y-32008028D01*
X45478032Y-32152782D01*
X45474818Y-32157207D01*
X45419488Y-32199872D01*
X45349875Y-32205851D01*
X45288080Y-32173245D01*
X45253722Y-32112406D01*
X45250500Y-32084321D01*
X45250500Y-31349044D01*
X45270185Y-31282005D01*
X45322989Y-31236250D01*
X45384230Y-31225426D01*
X45390525Y-31225921D01*
X46070000Y-30546446D01*
X46070000Y-30552661D01*
G37*
%TD.AperFunction*%
%TA.AperFunction,Conductor*%
G36*
X46029414Y-24270185D02*
G01*
X46075169Y-24322989D01*
X46085113Y-24392147D01*
X46056088Y-24455703D01*
X46050056Y-24462181D01*
X46044312Y-24467924D01*
X46044312Y-24467925D01*
X46044310Y-24467927D01*
X45996610Y-24533579D01*
X45933240Y-24620800D01*
X45847454Y-24789163D01*
X45789059Y-24968881D01*
X45759500Y-25155513D01*
X45759500Y-25344486D01*
X45789059Y-25531118D01*
X45847454Y-25710836D01*
X45933240Y-25879199D01*
X46044310Y-26032073D01*
X46177927Y-26165690D01*
X46330801Y-26276760D01*
X46410347Y-26317290D01*
X46499163Y-26362545D01*
X46499165Y-26362545D01*
X46499168Y-26362547D01*
X46595497Y-26393846D01*
X46678881Y-26420940D01*
X46865514Y-26450500D01*
X46865519Y-26450500D01*
X47054486Y-26450500D01*
X47241118Y-26420940D01*
X47420832Y-26362547D01*
X47589199Y-26276760D01*
X47742073Y-26165690D01*
X47875690Y-26032073D01*
X47986760Y-25879199D01*
X48072547Y-25710832D01*
X48130940Y-25531118D01*
X48147682Y-25425413D01*
X48160500Y-25344486D01*
X48160500Y-25155513D01*
X48130940Y-24968881D01*
X48072545Y-24789163D01*
X47986759Y-24620800D01*
X47875690Y-24467927D01*
X47869944Y-24462181D01*
X47836459Y-24400858D01*
X47841443Y-24331166D01*
X47883315Y-24275233D01*
X47948779Y-24250816D01*
X47957625Y-24250500D01*
X51042375Y-24250500D01*
X51109414Y-24270185D01*
X51155169Y-24322989D01*
X51165113Y-24392147D01*
X51136088Y-24455703D01*
X51130056Y-24462181D01*
X51124312Y-24467924D01*
X51124312Y-24467925D01*
X51124310Y-24467927D01*
X51076610Y-24533579D01*
X51013240Y-24620800D01*
X50927454Y-24789163D01*
X50869059Y-24968881D01*
X50839500Y-25155513D01*
X50839500Y-25344486D01*
X50869059Y-25531118D01*
X50927454Y-25710836D01*
X51013240Y-25879199D01*
X51124310Y-26032073D01*
X51257927Y-26165690D01*
X51410801Y-26276760D01*
X51490347Y-26317290D01*
X51579163Y-26362545D01*
X51579165Y-26362545D01*
X51579168Y-26362547D01*
X51675497Y-26393846D01*
X51758881Y-26420940D01*
X51945514Y-26450500D01*
X51945519Y-26450500D01*
X52134486Y-26450500D01*
X52321118Y-26420940D01*
X52500832Y-26362547D01*
X52669199Y-26276760D01*
X52822073Y-26165690D01*
X52955690Y-26032073D01*
X53066760Y-25879199D01*
X53139515Y-25736409D01*
X53187490Y-25685613D01*
X53255311Y-25668818D01*
X53321445Y-25691355D01*
X53360485Y-25736409D01*
X53433240Y-25879199D01*
X53544310Y-26032073D01*
X53544312Y-26032075D01*
X53673181Y-26160944D01*
X53706666Y-26222267D01*
X53709500Y-26248625D01*
X53709500Y-29453918D01*
X53709500Y-29453920D01*
X53709499Y-29453920D01*
X53738340Y-29598907D01*
X53738343Y-29598917D01*
X53794913Y-29735490D01*
X53794914Y-29735492D01*
X53823779Y-29778691D01*
X53823780Y-29778693D01*
X53877043Y-29858410D01*
X53877047Y-29858415D01*
X55661994Y-31643362D01*
X55669286Y-31656717D01*
X55680500Y-31667009D01*
X55685691Y-31686761D01*
X55695479Y-31704685D01*
X55694667Y-31720908D01*
X55698262Y-31734584D01*
X55692244Y-31769361D01*
X55675926Y-31819583D01*
X55636489Y-31877258D01*
X55572130Y-31904457D01*
X55503284Y-31892543D01*
X55470314Y-31868946D01*
X55248421Y-31647052D01*
X55248414Y-31647046D01*
X55174729Y-31597812D01*
X55174729Y-31597813D01*
X55125491Y-31564913D01*
X54988917Y-31508343D01*
X54988907Y-31508340D01*
X54843920Y-31479500D01*
X54843918Y-31479500D01*
X51215418Y-31479500D01*
X51148379Y-31459815D01*
X51115100Y-31428385D01*
X51081971Y-31382787D01*
X51081967Y-31382782D01*
X50937217Y-31238032D01*
X50937212Y-31238028D01*
X50843051Y-31169616D01*
X50800385Y-31114286D01*
X50794406Y-31044673D01*
X50827012Y-30982878D01*
X50876933Y-30951592D01*
X50959117Y-30924359D01*
X50959124Y-30924356D01*
X51108345Y-30832315D01*
X51232315Y-30708345D01*
X51324356Y-30559124D01*
X51324358Y-30559119D01*
X51379505Y-30392697D01*
X51379506Y-30392690D01*
X51389999Y-30289986D01*
X51390000Y-30289973D01*
X51390000Y-29940000D01*
X50005686Y-29940000D01*
X50010080Y-29935606D01*
X50062741Y-29844394D01*
X50090000Y-29742661D01*
X50090000Y-29637339D01*
X50062741Y-29535606D01*
X50010080Y-29444394D01*
X50005686Y-29440000D01*
X51389999Y-29440000D01*
X51389999Y-29090028D01*
X51389998Y-29090013D01*
X51379505Y-28987302D01*
X51324358Y-28820880D01*
X51324356Y-28820875D01*
X51232315Y-28671654D01*
X51108345Y-28547684D01*
X50959124Y-28455643D01*
X50959119Y-28455641D01*
X50792697Y-28400494D01*
X50792690Y-28400493D01*
X50689986Y-28390000D01*
X49940000Y-28390000D01*
X49940000Y-29374314D01*
X49935606Y-29369920D01*
X49844394Y-29317259D01*
X49742661Y-29290000D01*
X49637339Y-29290000D01*
X49535606Y-29317259D01*
X49444394Y-29369920D01*
X49440000Y-29374314D01*
X49440000Y-28390000D01*
X48690028Y-28390000D01*
X48690012Y-28390001D01*
X48587302Y-28400494D01*
X48420880Y-28455641D01*
X48420875Y-28455643D01*
X48271654Y-28547684D01*
X48147684Y-28671654D01*
X48055643Y-28820875D01*
X48055641Y-28820880D01*
X48000494Y-28987302D01*
X48000493Y-28987309D01*
X47990000Y-29090013D01*
X47990000Y-29440000D01*
X49374314Y-29440000D01*
X49369920Y-29444394D01*
X49317259Y-29535606D01*
X49290000Y-29637339D01*
X49290000Y-29742661D01*
X49317259Y-29844394D01*
X49369920Y-29935606D01*
X49374314Y-29940000D01*
X47990001Y-29940000D01*
X47990001Y-30211149D01*
X47970316Y-30278188D01*
X47917512Y-30323943D01*
X47848354Y-30333887D01*
X47784798Y-30304862D01*
X47747024Y-30246084D01*
X47743528Y-30230547D01*
X47737990Y-30195582D01*
X47674755Y-30000968D01*
X47581859Y-29818650D01*
X47549474Y-29774077D01*
X47549474Y-29774076D01*
X46870000Y-30453551D01*
X46870000Y-30447339D01*
X46842741Y-30345606D01*
X46790080Y-30254394D01*
X46715606Y-30179920D01*
X46624394Y-30127259D01*
X46522661Y-30100000D01*
X46516446Y-30100000D01*
X47195922Y-29420524D01*
X47195921Y-29420523D01*
X47151359Y-29388147D01*
X47151350Y-29388141D01*
X46969031Y-29295244D01*
X46774417Y-29232009D01*
X46631268Y-29209337D01*
X46572317Y-29200000D01*
X46367683Y-29200000D01*
X46165582Y-29232009D01*
X45970968Y-29295244D01*
X45788644Y-29388143D01*
X45744077Y-29420523D01*
X45744077Y-29420524D01*
X46423554Y-30100000D01*
X46417339Y-30100000D01*
X46315606Y-30127259D01*
X46224394Y-30179920D01*
X46149920Y-30254394D01*
X46097259Y-30345606D01*
X46070000Y-30447339D01*
X46070000Y-30453553D01*
X45390523Y-29774076D01*
X45384228Y-29774572D01*
X45370618Y-29771712D01*
X45356853Y-29773692D01*
X45337099Y-29764671D01*
X45315851Y-29760207D01*
X45305947Y-29750444D01*
X45293297Y-29744667D01*
X45281557Y-29726400D01*
X45266094Y-29711156D01*
X45262267Y-29696383D01*
X45255523Y-29685889D01*
X45250500Y-29650954D01*
X45250500Y-24374500D01*
X45270185Y-24307461D01*
X45322989Y-24261706D01*
X45374500Y-24250500D01*
X45962375Y-24250500D01*
X46029414Y-24270185D01*
G37*
%TD.AperFunction*%
%TD*%
M02*
