%TF.GenerationSoftware,KiCad,Pcbnew,9.0.2*%
%TF.CreationDate,2025-10-01T12:11:13+03:00*%
%TF.ProjectId,555_flip_flop,3535355f-666c-4697-905f-666c6f702e6b,rev?*%
%TF.SameCoordinates,Original*%
%TF.FileFunction,Copper,L1,Top*%
%TF.FilePolarity,Positive*%
%FSLAX46Y46*%
G04 Gerber Fmt 4.6, Leading zero omitted, Abs format (unit mm)*
G04 Created by KiCad (PCBNEW 9.0.2) date 2025-10-01 12:11:13*
%MOMM*%
%LPD*%
G01*
G04 APERTURE LIST*
G04 Aperture macros list*
%AMRoundRect*
0 Rectangle with rounded corners*
0 $1 Rounding radius*
0 $2 $3 $4 $5 $6 $7 $8 $9 X,Y pos of 4 corners*
0 Add a 4 corners polygon primitive as box body*
4,1,4,$2,$3,$4,$5,$6,$7,$8,$9,$2,$3,0*
0 Add four circle primitives for the rounded corners*
1,1,$1+$1,$2,$3*
1,1,$1+$1,$4,$5*
1,1,$1+$1,$6,$7*
1,1,$1+$1,$8,$9*
0 Add four rect primitives between the rounded corners*
20,1,$1+$1,$2,$3,$4,$5,0*
20,1,$1+$1,$4,$5,$6,$7,0*
20,1,$1+$1,$6,$7,$8,$9,0*
20,1,$1+$1,$8,$9,$2,$3,0*%
G04 Aperture macros list end*
%TA.AperFunction,SMDPad,CuDef*%
%ADD10RoundRect,0.150000X-0.825000X-0.150000X0.825000X-0.150000X0.825000X0.150000X-0.825000X0.150000X0*%
%TD*%
%TA.AperFunction,SMDPad,CuDef*%
%ADD11RoundRect,0.243750X-0.243750X-0.456250X0.243750X-0.456250X0.243750X0.456250X-0.243750X0.456250X0*%
%TD*%
%TA.AperFunction,SMDPad,CuDef*%
%ADD12RoundRect,0.200000X-0.200000X-0.275000X0.200000X-0.275000X0.200000X0.275000X-0.200000X0.275000X0*%
%TD*%
%TA.AperFunction,ComponentPad*%
%ADD13RoundRect,0.250000X-0.620000X-0.845000X0.620000X-0.845000X0.620000X0.845000X-0.620000X0.845000X0*%
%TD*%
%TA.AperFunction,ComponentPad*%
%ADD14O,1.740000X2.190000*%
%TD*%
%TA.AperFunction,SMDPad,CuDef*%
%ADD15RoundRect,0.225000X0.250000X-0.225000X0.250000X0.225000X-0.250000X0.225000X-0.250000X-0.225000X0*%
%TD*%
%TA.AperFunction,SMDPad,CuDef*%
%ADD16RoundRect,0.250000X-0.550000X0.850000X-0.550000X-0.850000X0.550000X-0.850000X0.550000X0.850000X0*%
%TD*%
%TA.AperFunction,ViaPad*%
%ADD17C,0.600000*%
%TD*%
%TA.AperFunction,ViaPad*%
%ADD18C,0.300000*%
%TD*%
%TA.AperFunction,Conductor*%
%ADD19C,0.500000*%
%TD*%
G04 APERTURE END LIST*
D10*
%TO.P,U1,8,VCC*%
%TO.N,+5V*%
X49475000Y-26345000D03*
%TO.P,U1,7,DIS*%
%TO.N,Net-(U1-DIS)*%
X49475000Y-27615000D03*
%TO.P,U1,6,THR*%
%TO.N,Net-(U1-THR)*%
X49475000Y-28885000D03*
%TO.P,U1,5,CV*%
%TO.N,Net-(U1-CV)*%
X49475000Y-30155000D03*
%TO.P,U1,4,R*%
%TO.N,+5V*%
X44525000Y-30155000D03*
%TO.P,U1,3,Q*%
%TO.N,Net-(D1-K)*%
X44525000Y-28885000D03*
%TO.P,U1,2,TR*%
%TO.N,Net-(U1-THR)*%
X44525000Y-27615000D03*
%TO.P,U1,1,GND*%
%TO.N,GND*%
X44525000Y-26345000D03*
%TD*%
D11*
%TO.P,D2,1,K*%
%TO.N,Net-(D2-K)*%
X52312500Y-30250000D03*
%TO.P,D2,2,A*%
%TO.N,Net-(D1-K)*%
X54187500Y-30250000D03*
%TD*%
D12*
%TO.P,R1,2*%
%TO.N,Net-(D1-A)*%
X54275000Y-23290000D03*
%TO.P,R1,1*%
%TO.N,+5V*%
X52625000Y-23290000D03*
%TD*%
%TO.P,R2,1*%
%TO.N,Net-(D2-K)*%
X52625000Y-33500000D03*
%TO.P,R2,2*%
%TO.N,GND*%
X54275000Y-33500000D03*
%TD*%
D11*
%TO.P,D1,1,K*%
%TO.N,Net-(D1-K)*%
X52312500Y-26750000D03*
%TO.P,D1,2,A*%
%TO.N,Net-(D1-A)*%
X54187500Y-26750000D03*
%TD*%
D12*
%TO.P,R4,1*%
%TO.N,Net-(U1-DIS)*%
X47675000Y-23250000D03*
%TO.P,R4,2*%
%TO.N,Net-(U1-THR)*%
X49325000Y-23250000D03*
%TD*%
%TO.P,R3,1*%
%TO.N,+5V*%
X42675000Y-23250000D03*
%TO.P,R3,2*%
%TO.N,Net-(U1-DIS)*%
X44325000Y-23250000D03*
%TD*%
D13*
%TO.P,J1,1,Pin_1*%
%TO.N,+5V*%
X42725000Y-35020000D03*
D14*
%TO.P,J1,2,Pin_2*%
%TO.N,GND*%
X45265000Y-35020000D03*
%TD*%
D15*
%TO.P,C2,1*%
%TO.N,Net-(U1-CV)*%
X41750000Y-29025000D03*
%TO.P,C2,2*%
%TO.N,GND*%
X41750000Y-27475000D03*
%TD*%
D16*
%TO.P,C1,1*%
%TO.N,Net-(U1-THR)*%
X49500000Y-34050000D03*
%TO.P,C1,2*%
%TO.N,GND*%
X49500000Y-37050000D03*
%TD*%
D17*
%TO.N,GND*%
X42750000Y-27500000D03*
%TO.N,Net-(D1-K)*%
X44525000Y-28885000D03*
X52312500Y-26750000D03*
%TO.N,Net-(U1-DIS)*%
X49475000Y-27615000D03*
X48293657Y-24124390D03*
%TO.N,Net-(U1-CV)*%
X49475000Y-31000000D03*
X42500000Y-30250000D03*
%TO.N,Net-(U1-THR)*%
X48875888Y-24685226D03*
X47750000Y-29250000D03*
D18*
X45959513Y-27601601D03*
%TD*%
D19*
%TO.N,Net-(U1-CV)*%
X49475000Y-31000000D02*
X49475000Y-30155000D01*
%TO.N,Net-(U1-THR)*%
X49325000Y-24175000D02*
X49325000Y-23250000D01*
X48875888Y-24624112D02*
X49325000Y-24175000D01*
X48875888Y-24685226D02*
X48875888Y-24624112D01*
%TO.N,Net-(U1-DIS)*%
X47675000Y-23505733D02*
X48293657Y-24124390D01*
X47675000Y-23250000D02*
X47675000Y-23505733D01*
%TO.N,Net-(U1-CV)*%
X41750000Y-29500000D02*
X42500000Y-30250000D01*
X41750000Y-29025000D02*
X41750000Y-29500000D01*
%TO.N,Net-(U1-THR)*%
X47750000Y-29250000D02*
X47250000Y-29750000D01*
X45946114Y-27615000D02*
X45959513Y-27601601D01*
X44525000Y-27615000D02*
X45946114Y-27615000D01*
X47250000Y-31800000D02*
X49500000Y-34050000D01*
X47250000Y-29750000D02*
X47250000Y-31800000D01*
X48115000Y-28885000D02*
X47750000Y-29250000D01*
X49475000Y-28885000D02*
X48115000Y-28885000D01*
%TO.N,Net-(D2-K)*%
X52312500Y-30250000D02*
X52312500Y-33187500D01*
X52312500Y-33187500D02*
X52625000Y-33500000D01*
%TO.N,Net-(D1-K)*%
X54187500Y-28625000D02*
X52312500Y-26750000D01*
X54187500Y-30250000D02*
X54187500Y-28625000D01*
%TO.N,Net-(D1-A)*%
X54275000Y-26662500D02*
X54187500Y-26750000D01*
X54275000Y-23290000D02*
X54275000Y-26662500D01*
%TO.N,Net-(U1-DIS)*%
X44325000Y-23250000D02*
X47675000Y-23250000D01*
%TO.N,+5V*%
X49570000Y-26345000D02*
X52625000Y-23290000D01*
X49475000Y-26345000D02*
X49570000Y-26345000D01*
X44175000Y-24750000D02*
X47880000Y-24750000D01*
X42675000Y-23250000D02*
X44175000Y-24750000D01*
X49475000Y-26345000D02*
X47880000Y-24750000D01*
X48915900Y-26345000D02*
X49475000Y-26345000D01*
X44525000Y-30155000D02*
X45105900Y-30155000D01*
X45105900Y-30155000D02*
X48915900Y-26345000D01*
X42725000Y-31955000D02*
X44525000Y-30155000D01*
X42725000Y-35020000D02*
X42725000Y-31955000D01*
%TD*%
%TA.AperFunction,Conductor*%
%TO.N,GND*%
G36*
X51398819Y-25680061D02*
G01*
X51454752Y-25721933D01*
X51479169Y-25787397D01*
X51464317Y-25855670D01*
X51461024Y-25861340D01*
X51389639Y-25977072D01*
X51389637Y-25977077D01*
X51334913Y-26142223D01*
X51324500Y-26244144D01*
X51324500Y-27255855D01*
X51334913Y-27357776D01*
X51389637Y-27522922D01*
X51389642Y-27522933D01*
X51480971Y-27670999D01*
X51480974Y-27671003D01*
X51603996Y-27794025D01*
X51604000Y-27794028D01*
X51752066Y-27885357D01*
X51752069Y-27885358D01*
X51752075Y-27885362D01*
X51917225Y-27940087D01*
X52019152Y-27950500D01*
X52400270Y-27950500D01*
X52467309Y-27970185D01*
X52487951Y-27986819D01*
X53400681Y-28899548D01*
X53415384Y-28926475D01*
X53431977Y-28952294D01*
X53432868Y-28958494D01*
X53434166Y-28960871D01*
X53437000Y-28987229D01*
X53437000Y-29196609D01*
X53417315Y-29263648D01*
X53400681Y-29284290D01*
X53355974Y-29328996D01*
X53355971Y-29329000D01*
X53355538Y-29329703D01*
X53355114Y-29330083D01*
X53351493Y-29334664D01*
X53350710Y-29334045D01*
X53303590Y-29376428D01*
X53234628Y-29387649D01*
X53170546Y-29359806D01*
X53148657Y-29334544D01*
X53148507Y-29334664D01*
X53145859Y-29331315D01*
X53144462Y-29329703D01*
X53144028Y-29329000D01*
X53144025Y-29328996D01*
X53021003Y-29205974D01*
X53020999Y-29205971D01*
X52872933Y-29114642D01*
X52872927Y-29114639D01*
X52872925Y-29114638D01*
X52830845Y-29100694D01*
X52707776Y-29059913D01*
X52605855Y-29049500D01*
X52605848Y-29049500D01*
X52019152Y-29049500D01*
X52019144Y-29049500D01*
X51917223Y-29059913D01*
X51752077Y-29114637D01*
X51752066Y-29114642D01*
X51604000Y-29205971D01*
X51603996Y-29205974D01*
X51480974Y-29328996D01*
X51480971Y-29329000D01*
X51389642Y-29477066D01*
X51389637Y-29477077D01*
X51334913Y-29642223D01*
X51324500Y-29744144D01*
X51324500Y-30755855D01*
X51334913Y-30857776D01*
X51389637Y-31022922D01*
X51389642Y-31022933D01*
X51480971Y-31170999D01*
X51480974Y-31171003D01*
X51525681Y-31215710D01*
X51559166Y-31277033D01*
X51562000Y-31303391D01*
X51562000Y-33261418D01*
X51562000Y-33261420D01*
X51561999Y-33261420D01*
X51590840Y-33406407D01*
X51590843Y-33406417D01*
X51647413Y-33542989D01*
X51647414Y-33542991D01*
X51647416Y-33542995D01*
X51666519Y-33571585D01*
X51703602Y-33627084D01*
X51724480Y-33693761D01*
X51724500Y-33695974D01*
X51724500Y-33831613D01*
X51730913Y-33902192D01*
X51730913Y-33902194D01*
X51730914Y-33902196D01*
X51781522Y-34064606D01*
X51863058Y-34199483D01*
X51869530Y-34210188D01*
X51989811Y-34330469D01*
X51989813Y-34330470D01*
X51989815Y-34330472D01*
X52135394Y-34418478D01*
X52297804Y-34469086D01*
X52368384Y-34475500D01*
X52368387Y-34475500D01*
X52881613Y-34475500D01*
X52881616Y-34475500D01*
X52952196Y-34469086D01*
X53114606Y-34418478D01*
X53260185Y-34330472D01*
X53362673Y-34227983D01*
X53423994Y-34194499D01*
X53493685Y-34199483D01*
X53538034Y-34227984D01*
X53640122Y-34330072D01*
X53785604Y-34418019D01*
X53785603Y-34418019D01*
X53947894Y-34468590D01*
X53947893Y-34468590D01*
X54018408Y-34474998D01*
X54018426Y-34474999D01*
X54024999Y-34474998D01*
X54025000Y-34474998D01*
X54025000Y-32525000D01*
X54024999Y-32524999D01*
X54018436Y-32525000D01*
X54018417Y-32525001D01*
X53947897Y-32531408D01*
X53947892Y-32531409D01*
X53785603Y-32581981D01*
X53640122Y-32669927D01*
X53640121Y-32669928D01*
X53538035Y-32772015D01*
X53476712Y-32805500D01*
X53407020Y-32800516D01*
X53362673Y-32772015D01*
X53260188Y-32669530D01*
X53260185Y-32669528D01*
X53122849Y-32586505D01*
X53075662Y-32534978D01*
X53063000Y-32480389D01*
X53063000Y-31303391D01*
X53071003Y-31276133D01*
X53075981Y-31248157D01*
X53081452Y-31240550D01*
X53082685Y-31236352D01*
X53096040Y-31219116D01*
X53097640Y-31217388D01*
X53144026Y-31171003D01*
X53150816Y-31159993D01*
X53159040Y-31151118D01*
X53179064Y-31139170D01*
X53196402Y-31123575D01*
X53208508Y-31121604D01*
X53219042Y-31115320D01*
X53242348Y-31116095D01*
X53265364Y-31112349D01*
X53276613Y-31117236D01*
X53288873Y-31117644D01*
X53308060Y-31130897D01*
X53329448Y-31140188D01*
X53341278Y-31153840D01*
X53346362Y-31157352D01*
X53348256Y-31161893D01*
X53351342Y-31165455D01*
X53351493Y-31165336D01*
X53354143Y-31168687D01*
X53355540Y-31170299D01*
X53355972Y-31170999D01*
X53355975Y-31171004D01*
X53478996Y-31294025D01*
X53479000Y-31294028D01*
X53627066Y-31385357D01*
X53627069Y-31385358D01*
X53627075Y-31385362D01*
X53792225Y-31440087D01*
X53894152Y-31450500D01*
X53894157Y-31450500D01*
X54480843Y-31450500D01*
X54480848Y-31450500D01*
X54582775Y-31440087D01*
X54586493Y-31438855D01*
X54588924Y-31438771D01*
X54589398Y-31438670D01*
X54589416Y-31438754D01*
X54656321Y-31436452D01*
X54716364Y-31472182D01*
X54747558Y-31534701D01*
X54749500Y-31556560D01*
X54749500Y-32409633D01*
X54729815Y-32476672D01*
X54677011Y-32522427D01*
X54607853Y-32532371D01*
X54602382Y-32531434D01*
X54531572Y-32525000D01*
X54525000Y-32525000D01*
X54525000Y-34474999D01*
X54531581Y-34474999D01*
X54608640Y-34467998D01*
X54608769Y-34469421D01*
X54670878Y-34474967D01*
X54726064Y-34517820D01*
X54749321Y-34583705D01*
X54749500Y-34590366D01*
X54749500Y-38125500D01*
X54729815Y-38192539D01*
X54677011Y-38238294D01*
X54625500Y-38249500D01*
X50896011Y-38249500D01*
X50828972Y-38229815D01*
X50783217Y-38177011D01*
X50773273Y-38107853D01*
X50778305Y-38086495D01*
X50789505Y-38052694D01*
X50789506Y-38052690D01*
X50799999Y-37949986D01*
X50800000Y-37949973D01*
X50800000Y-37300000D01*
X48200001Y-37300000D01*
X48200001Y-37949986D01*
X48210494Y-38052697D01*
X48221694Y-38086496D01*
X48224096Y-38156324D01*
X48188364Y-38216366D01*
X48125844Y-38247559D01*
X48103988Y-38249500D01*
X41374500Y-38249500D01*
X41307461Y-38229815D01*
X41261706Y-38177011D01*
X41250500Y-38125500D01*
X41250500Y-36346467D01*
X41270185Y-36279428D01*
X41322989Y-36233673D01*
X41392147Y-36223729D01*
X41455703Y-36252754D01*
X41480037Y-36281369D01*
X41512288Y-36333656D01*
X41636344Y-36457712D01*
X41785666Y-36549814D01*
X41952203Y-36604999D01*
X42054991Y-36615500D01*
X43395008Y-36615499D01*
X43497797Y-36604999D01*
X43664334Y-36549814D01*
X43813656Y-36457712D01*
X43937712Y-36333656D01*
X44029814Y-36184334D01*
X44029817Y-36184323D01*
X44030353Y-36183177D01*
X44030934Y-36182516D01*
X44033605Y-36178187D01*
X44034344Y-36178643D01*
X44076521Y-36130734D01*
X44143713Y-36111577D01*
X44210596Y-36131788D01*
X44230420Y-36147892D01*
X44372502Y-36289974D01*
X44546963Y-36416728D01*
X44739098Y-36514627D01*
X44944190Y-36581266D01*
X45015000Y-36592481D01*
X45015000Y-35562709D01*
X45035339Y-35574452D01*
X45186667Y-35615000D01*
X45343333Y-35615000D01*
X45494661Y-35574452D01*
X45515000Y-35562709D01*
X45515000Y-36592480D01*
X45585809Y-36581266D01*
X45790901Y-36514627D01*
X45983036Y-36416728D01*
X46157496Y-36289974D01*
X46157497Y-36289974D01*
X46309974Y-36137497D01*
X46309974Y-36137496D01*
X46436728Y-35963036D01*
X46534627Y-35770901D01*
X46601265Y-35565809D01*
X46635000Y-35352820D01*
X46635000Y-35270000D01*
X45807709Y-35270000D01*
X45819452Y-35249661D01*
X45860000Y-35098333D01*
X45860000Y-34941667D01*
X45819452Y-34790339D01*
X45807709Y-34770000D01*
X46635000Y-34770000D01*
X46635000Y-34687179D01*
X46601265Y-34474190D01*
X46534627Y-34269098D01*
X46436728Y-34076963D01*
X46309974Y-33902503D01*
X46309974Y-33902502D01*
X46157497Y-33750025D01*
X45983036Y-33623271D01*
X45790899Y-33525372D01*
X45585805Y-33458733D01*
X45515000Y-33447518D01*
X45515000Y-34477290D01*
X45494661Y-34465548D01*
X45343333Y-34425000D01*
X45186667Y-34425000D01*
X45035339Y-34465548D01*
X45015000Y-34477290D01*
X45015000Y-33447518D01*
X45014999Y-33447518D01*
X44944194Y-33458733D01*
X44739100Y-33525372D01*
X44546963Y-33623271D01*
X44372506Y-33750022D01*
X44230420Y-33892108D01*
X44169097Y-33925592D01*
X44099405Y-33920608D01*
X44043472Y-33878736D01*
X44030356Y-33856828D01*
X44029816Y-33855670D01*
X44017604Y-33835871D01*
X43937712Y-33706344D01*
X43813656Y-33582288D01*
X43664334Y-33490186D01*
X43560495Y-33455777D01*
X43503051Y-33416004D01*
X43476228Y-33351488D01*
X43475500Y-33338071D01*
X43475500Y-32317229D01*
X43495185Y-32250190D01*
X43511819Y-32229548D01*
X44749548Y-30991819D01*
X44810871Y-30958334D01*
X44837229Y-30955500D01*
X45415686Y-30955500D01*
X45415694Y-30955500D01*
X45452569Y-30952598D01*
X45452571Y-30952597D01*
X45452573Y-30952597D01*
X45494191Y-30940505D01*
X45610398Y-30906744D01*
X45751865Y-30823081D01*
X45868081Y-30706865D01*
X45951744Y-30565398D01*
X45997598Y-30407569D01*
X46000500Y-30370694D01*
X46000500Y-30370675D01*
X46000595Y-30368266D01*
X46022894Y-30302050D01*
X46036819Y-30285448D01*
X46287819Y-30034448D01*
X46349142Y-30000963D01*
X46418834Y-30005947D01*
X46474767Y-30047819D01*
X46499184Y-30113283D01*
X46499500Y-30122129D01*
X46499500Y-31873918D01*
X46499500Y-31873920D01*
X46499499Y-31873920D01*
X46528340Y-32018907D01*
X46528343Y-32018917D01*
X46584913Y-32155490D01*
X46584914Y-32155491D01*
X46584916Y-32155495D01*
X46597222Y-32173912D01*
X46648188Y-32250190D01*
X46667051Y-32278420D01*
X46667052Y-32278421D01*
X48163181Y-33774548D01*
X48196666Y-33835871D01*
X48199500Y-33862229D01*
X48199500Y-34950001D01*
X48199501Y-34950018D01*
X48210000Y-35052796D01*
X48210001Y-35052799D01*
X48225090Y-35098333D01*
X48265186Y-35219334D01*
X48347520Y-35352820D01*
X48357289Y-35368657D01*
X48451304Y-35462672D01*
X48484789Y-35523995D01*
X48479805Y-35593687D01*
X48451305Y-35638034D01*
X48357682Y-35731657D01*
X48265643Y-35880875D01*
X48265641Y-35880880D01*
X48210494Y-36047302D01*
X48210493Y-36047309D01*
X48200000Y-36150013D01*
X48200000Y-36800000D01*
X50799999Y-36800000D01*
X50799999Y-36150028D01*
X50799998Y-36150013D01*
X50789505Y-36047302D01*
X50734358Y-35880880D01*
X50734356Y-35880875D01*
X50642315Y-35731654D01*
X50548695Y-35638034D01*
X50515210Y-35576711D01*
X50520194Y-35507019D01*
X50548691Y-35462676D01*
X50642712Y-35368656D01*
X50734814Y-35219334D01*
X50789999Y-35052797D01*
X50800500Y-34950009D01*
X50800499Y-33149992D01*
X50789999Y-33047203D01*
X50734814Y-32880666D01*
X50642712Y-32731344D01*
X50518656Y-32607288D01*
X50401422Y-32534978D01*
X50369336Y-32515187D01*
X50369331Y-32515185D01*
X50367862Y-32514698D01*
X50202797Y-32460001D01*
X50202795Y-32460000D01*
X50100016Y-32449500D01*
X50100009Y-32449500D01*
X49012230Y-32449500D01*
X48945191Y-32429815D01*
X48924549Y-32413181D01*
X48036819Y-31525451D01*
X48003334Y-31464128D01*
X48000500Y-31437770D01*
X48000500Y-30874809D01*
X48020185Y-30807770D01*
X48072989Y-30762015D01*
X48142147Y-30752071D01*
X48205703Y-30781096D01*
X48212181Y-30787128D01*
X48248129Y-30823076D01*
X48248133Y-30823079D01*
X48248135Y-30823081D01*
X48389602Y-30906744D01*
X48431224Y-30918836D01*
X48547426Y-30952597D01*
X48547429Y-30952597D01*
X48547431Y-30952598D01*
X48560227Y-30953605D01*
X48625516Y-30978488D01*
X48666988Y-31034718D01*
X48673718Y-31072800D01*
X48673903Y-31072782D01*
X48674139Y-31075182D01*
X48674500Y-31077223D01*
X48674500Y-31078846D01*
X48705261Y-31233489D01*
X48705264Y-31233501D01*
X48765602Y-31379172D01*
X48765609Y-31379185D01*
X48853210Y-31510288D01*
X48853213Y-31510292D01*
X48964707Y-31621786D01*
X48964711Y-31621789D01*
X49095814Y-31709390D01*
X49095827Y-31709397D01*
X49241498Y-31769735D01*
X49241503Y-31769737D01*
X49396153Y-31800499D01*
X49396156Y-31800500D01*
X49396158Y-31800500D01*
X49553844Y-31800500D01*
X49553845Y-31800499D01*
X49708497Y-31769737D01*
X49854179Y-31709394D01*
X49985289Y-31621789D01*
X50096789Y-31510289D01*
X50184394Y-31379179D01*
X50244737Y-31233497D01*
X50275500Y-31078842D01*
X50275500Y-31077223D01*
X50275740Y-31076404D01*
X50276097Y-31072782D01*
X50276784Y-31072849D01*
X50295185Y-31010184D01*
X50347989Y-30964429D01*
X50389773Y-30953605D01*
X50402569Y-30952598D01*
X50402571Y-30952597D01*
X50402573Y-30952597D01*
X50444191Y-30940505D01*
X50560398Y-30906744D01*
X50701865Y-30823081D01*
X50818081Y-30706865D01*
X50901744Y-30565398D01*
X50947598Y-30407569D01*
X50950500Y-30370694D01*
X50950500Y-29939306D01*
X50947598Y-29902431D01*
X50901744Y-29744602D01*
X50818081Y-29603135D01*
X50818078Y-29603132D01*
X50813298Y-29596969D01*
X50815750Y-29595066D01*
X50789155Y-29546421D01*
X50794104Y-29476726D01*
X50814940Y-29444304D01*
X50813298Y-29443031D01*
X50818075Y-29436870D01*
X50818081Y-29436865D01*
X50901744Y-29295398D01*
X50947598Y-29137569D01*
X50950500Y-29100694D01*
X50950500Y-28669306D01*
X50947598Y-28632431D01*
X50901744Y-28474602D01*
X50818081Y-28333135D01*
X50818078Y-28333132D01*
X50813298Y-28326969D01*
X50815750Y-28325066D01*
X50789155Y-28276421D01*
X50794104Y-28206726D01*
X50814940Y-28174304D01*
X50813298Y-28173031D01*
X50818075Y-28166870D01*
X50818081Y-28166865D01*
X50901744Y-28025398D01*
X50947598Y-27867569D01*
X50950500Y-27830694D01*
X50950500Y-27399306D01*
X50947598Y-27362431D01*
X50946245Y-27357775D01*
X50901745Y-27204606D01*
X50901744Y-27204603D01*
X50901744Y-27204602D01*
X50818081Y-27063135D01*
X50818078Y-27063132D01*
X50813298Y-27056969D01*
X50815750Y-27055066D01*
X50789155Y-27006421D01*
X50794104Y-26936726D01*
X50814940Y-26904304D01*
X50813298Y-26903031D01*
X50818075Y-26896870D01*
X50818081Y-26896865D01*
X50901744Y-26755398D01*
X50947598Y-26597569D01*
X50950500Y-26560694D01*
X50950500Y-26129306D01*
X50947598Y-26092431D01*
X50947597Y-26092429D01*
X50947438Y-26090401D01*
X50961802Y-26022024D01*
X50983372Y-25992994D01*
X51267806Y-25708560D01*
X51329127Y-25675077D01*
X51398819Y-25680061D01*
G37*
%TD.AperFunction*%
%TA.AperFunction,Conductor*%
G36*
X41721016Y-22770185D02*
G01*
X41766771Y-22822989D01*
X41777468Y-22885721D01*
X41774500Y-22918385D01*
X41774500Y-23581613D01*
X41780913Y-23652192D01*
X41831522Y-23814606D01*
X41919530Y-23960188D01*
X42039811Y-24080469D01*
X42039813Y-24080470D01*
X42039815Y-24080472D01*
X42185394Y-24168478D01*
X42347804Y-24219086D01*
X42418384Y-24225500D01*
X42537770Y-24225500D01*
X42604809Y-24245185D01*
X42625451Y-24261819D01*
X43698425Y-25334793D01*
X43731910Y-25396116D01*
X43726926Y-25465808D01*
X43685054Y-25521741D01*
X43620476Y-25546092D01*
X43597509Y-25547900D01*
X43597504Y-25547900D01*
X43439806Y-25593716D01*
X43439803Y-25593717D01*
X43298447Y-25677314D01*
X43298438Y-25677321D01*
X43182321Y-25793438D01*
X43182314Y-25793447D01*
X43098718Y-25934801D01*
X43052899Y-26092513D01*
X43052704Y-26094998D01*
X43052705Y-26095000D01*
X45997295Y-26095000D01*
X45997295Y-26094998D01*
X45997100Y-26092513D01*
X45951281Y-25934801D01*
X45867685Y-25793447D01*
X45867678Y-25793438D01*
X45786421Y-25712181D01*
X45752936Y-25650858D01*
X45757920Y-25581166D01*
X45799792Y-25525233D01*
X45865256Y-25500816D01*
X45874102Y-25500500D01*
X47517770Y-25500500D01*
X47584809Y-25520185D01*
X47605451Y-25536819D01*
X47986265Y-25917633D01*
X47988964Y-25922576D01*
X47993652Y-25925702D01*
X48005526Y-25952908D01*
X48019750Y-25978956D01*
X48019940Y-25985930D01*
X48021602Y-25989738D01*
X48020445Y-26004456D01*
X48021007Y-26025027D01*
X48019791Y-26032575D01*
X48002402Y-26092431D01*
X47999500Y-26129306D01*
X47999500Y-26158588D01*
X47997923Y-26168382D01*
X47986975Y-26191323D01*
X47979815Y-26215708D01*
X47968837Y-26229330D01*
X47967831Y-26231440D01*
X47966447Y-26232296D01*
X47963181Y-26236350D01*
X46852132Y-27347398D01*
X46790809Y-27380883D01*
X46721117Y-27375899D01*
X46665184Y-27334027D01*
X46649890Y-27307170D01*
X46624597Y-27246107D01*
X46542465Y-27123185D01*
X46542460Y-27123180D01*
X46542460Y-27123179D01*
X46437934Y-27018653D01*
X46437930Y-27018650D01*
X46437929Y-27018649D01*
X46315007Y-26936517D01*
X46315005Y-26936516D01*
X46315003Y-26936515D01*
X46178425Y-26879943D01*
X46178419Y-26879941D01*
X46062034Y-26856790D01*
X46000123Y-26824405D01*
X45965549Y-26763689D01*
X45967150Y-26700577D01*
X45997099Y-26597491D01*
X45997100Y-26597488D01*
X45997295Y-26595001D01*
X45997295Y-26595000D01*
X43052705Y-26595000D01*
X43052704Y-26595001D01*
X43052899Y-26597486D01*
X43098718Y-26755198D01*
X43182314Y-26896552D01*
X43187100Y-26902722D01*
X43184640Y-26904629D01*
X43211210Y-26953288D01*
X43206226Y-27022980D01*
X43185162Y-27055781D01*
X43186699Y-27056974D01*
X43181915Y-27063140D01*
X43098255Y-27204603D01*
X43098254Y-27204606D01*
X43052402Y-27362426D01*
X43052401Y-27362432D01*
X43049500Y-27399298D01*
X43049500Y-27830701D01*
X43052401Y-27867567D01*
X43052402Y-27867573D01*
X43098254Y-28025393D01*
X43098255Y-28025396D01*
X43181917Y-28166862D01*
X43186702Y-28173031D01*
X43184256Y-28174927D01*
X43210857Y-28223642D01*
X43205873Y-28293334D01*
X43185069Y-28325703D01*
X43186702Y-28326969D01*
X43181917Y-28333137D01*
X43098255Y-28474603D01*
X43098254Y-28474606D01*
X43052402Y-28632426D01*
X43052401Y-28632432D01*
X43049500Y-28669298D01*
X43049500Y-29100701D01*
X43052401Y-29137567D01*
X43052402Y-29137573D01*
X43098254Y-29295393D01*
X43098255Y-29295396D01*
X43181917Y-29436862D01*
X43186702Y-29443031D01*
X43184879Y-29444444D01*
X43195094Y-29464774D01*
X43210857Y-29493642D01*
X43210700Y-29495835D01*
X43211688Y-29497802D01*
X43208219Y-29530524D01*
X43205873Y-29563334D01*
X43204482Y-29565780D01*
X43204323Y-29567282D01*
X43199626Y-29574322D01*
X43186358Y-29597662D01*
X43182132Y-29602921D01*
X43181919Y-29603135D01*
X43181801Y-29603333D01*
X43180016Y-29605556D01*
X43177725Y-29607151D01*
X43177372Y-29607681D01*
X43176402Y-29608651D01*
X43176061Y-29608310D01*
X43152186Y-29624940D01*
X43124673Y-29644806D01*
X43123581Y-29644865D01*
X43122684Y-29645490D01*
X43088791Y-29646751D01*
X43054906Y-29648588D01*
X43053685Y-29648057D01*
X43052862Y-29648088D01*
X43050375Y-29646617D01*
X43014459Y-29630997D01*
X42979564Y-29607681D01*
X42879179Y-29540606D01*
X42855523Y-29530807D01*
X42848591Y-29526175D01*
X42843551Y-29525079D01*
X42815297Y-29503928D01*
X42756433Y-29445064D01*
X42722948Y-29383741D01*
X42720756Y-29344780D01*
X42725500Y-29298345D01*
X42725499Y-28751656D01*
X42715349Y-28652292D01*
X42662003Y-28491303D01*
X42661999Y-28491297D01*
X42661998Y-28491294D01*
X42572970Y-28346959D01*
X42572967Y-28346955D01*
X42563339Y-28337327D01*
X42529854Y-28276004D01*
X42534838Y-28206312D01*
X42563345Y-28161959D01*
X42572573Y-28152731D01*
X42661542Y-28008492D01*
X42661547Y-28008481D01*
X42714855Y-27847606D01*
X42724999Y-27748322D01*
X42725000Y-27748309D01*
X42725000Y-27725000D01*
X41874000Y-27725000D01*
X41806961Y-27705315D01*
X41761206Y-27652511D01*
X41750000Y-27601000D01*
X41750000Y-27475000D01*
X41624000Y-27475000D01*
X41556961Y-27455315D01*
X41511206Y-27402511D01*
X41500000Y-27351000D01*
X41500000Y-27225000D01*
X42000000Y-27225000D01*
X42724999Y-27225000D01*
X42724999Y-27201692D01*
X42724998Y-27201677D01*
X42714855Y-27102392D01*
X42661547Y-26941518D01*
X42661542Y-26941507D01*
X42572575Y-26797271D01*
X42572572Y-26797267D01*
X42452732Y-26677427D01*
X42452728Y-26677424D01*
X42308492Y-26588457D01*
X42308481Y-26588452D01*
X42147606Y-26535144D01*
X42048322Y-26525000D01*
X42000000Y-26525000D01*
X42000000Y-27225000D01*
X41500000Y-27225000D01*
X41500000Y-26525000D01*
X41499999Y-26524999D01*
X41451693Y-26525000D01*
X41451673Y-26525001D01*
X41387101Y-26531598D01*
X41318408Y-26518828D01*
X41267524Y-26470947D01*
X41250500Y-26408240D01*
X41250500Y-22874500D01*
X41270185Y-22807461D01*
X41322989Y-22761706D01*
X41374500Y-22750500D01*
X41653977Y-22750500D01*
X41721016Y-22770185D01*
G37*
%TD.AperFunction*%
%TD*%
M02*
