%TF.GenerationSoftware,KiCad,Pcbnew,9.0.2*%
%TF.CreationDate,2025-10-01T12:11:13+03:00*%
%TF.ProjectId,555_flip_flop,3535355f-666c-4697-905f-666c6f702e6b,rev?*%
%TF.SameCoordinates,Original*%
%TF.FileFunction,Legend,Top*%
%TF.FilePolarity,Positive*%
%FSLAX46Y46*%
G04 Gerber Fmt 4.6, Leading zero omitted, Abs format (unit mm)*
G04 Created by KiCad (PCBNEW 9.0.2) date 2025-10-01 12:11:13*
%MOMM*%
%LPD*%
G01*
G04 APERTURE LIST*
%ADD10C,0.150000*%
%ADD11C,0.120000*%
G04 APERTURE END LIST*
D10*
X46238095Y-24304819D02*
X46238095Y-25114342D01*
X46238095Y-25114342D02*
X46285714Y-25209580D01*
X46285714Y-25209580D02*
X46333333Y-25257200D01*
X46333333Y-25257200D02*
X46428571Y-25304819D01*
X46428571Y-25304819D02*
X46619047Y-25304819D01*
X46619047Y-25304819D02*
X46714285Y-25257200D01*
X46714285Y-25257200D02*
X46761904Y-25209580D01*
X46761904Y-25209580D02*
X46809523Y-25114342D01*
X46809523Y-25114342D02*
X46809523Y-24304819D01*
X47809523Y-25304819D02*
X47238095Y-25304819D01*
X47523809Y-25304819D02*
X47523809Y-24304819D01*
X47523809Y-24304819D02*
X47428571Y-24447676D01*
X47428571Y-24447676D02*
X47333333Y-24542914D01*
X47333333Y-24542914D02*
X47238095Y-24590533D01*
X52511905Y-29054819D02*
X52511905Y-28054819D01*
X52511905Y-28054819D02*
X52750000Y-28054819D01*
X52750000Y-28054819D02*
X52892857Y-28102438D01*
X52892857Y-28102438D02*
X52988095Y-28197676D01*
X52988095Y-28197676D02*
X53035714Y-28292914D01*
X53035714Y-28292914D02*
X53083333Y-28483390D01*
X53083333Y-28483390D02*
X53083333Y-28626247D01*
X53083333Y-28626247D02*
X53035714Y-28816723D01*
X53035714Y-28816723D02*
X52988095Y-28911961D01*
X52988095Y-28911961D02*
X52892857Y-29007200D01*
X52892857Y-29007200D02*
X52750000Y-29054819D01*
X52750000Y-29054819D02*
X52511905Y-29054819D01*
X53464286Y-28150057D02*
X53511905Y-28102438D01*
X53511905Y-28102438D02*
X53607143Y-28054819D01*
X53607143Y-28054819D02*
X53845238Y-28054819D01*
X53845238Y-28054819D02*
X53940476Y-28102438D01*
X53940476Y-28102438D02*
X53988095Y-28150057D01*
X53988095Y-28150057D02*
X54035714Y-28245295D01*
X54035714Y-28245295D02*
X54035714Y-28340533D01*
X54035714Y-28340533D02*
X53988095Y-28483390D01*
X53988095Y-28483390D02*
X53416667Y-29054819D01*
X53416667Y-29054819D02*
X54035714Y-29054819D01*
X50833333Y-23704819D02*
X50500000Y-23228628D01*
X50261905Y-23704819D02*
X50261905Y-22704819D01*
X50261905Y-22704819D02*
X50642857Y-22704819D01*
X50642857Y-22704819D02*
X50738095Y-22752438D01*
X50738095Y-22752438D02*
X50785714Y-22800057D01*
X50785714Y-22800057D02*
X50833333Y-22895295D01*
X50833333Y-22895295D02*
X50833333Y-23038152D01*
X50833333Y-23038152D02*
X50785714Y-23133390D01*
X50785714Y-23133390D02*
X50738095Y-23181009D01*
X50738095Y-23181009D02*
X50642857Y-23228628D01*
X50642857Y-23228628D02*
X50261905Y-23228628D01*
X51785714Y-23704819D02*
X51214286Y-23704819D01*
X51500000Y-23704819D02*
X51500000Y-22704819D01*
X51500000Y-22704819D02*
X51404762Y-22847676D01*
X51404762Y-22847676D02*
X51309524Y-22942914D01*
X51309524Y-22942914D02*
X51214286Y-22990533D01*
X53283333Y-32524819D02*
X52950000Y-32048628D01*
X52711905Y-32524819D02*
X52711905Y-31524819D01*
X52711905Y-31524819D02*
X53092857Y-31524819D01*
X53092857Y-31524819D02*
X53188095Y-31572438D01*
X53188095Y-31572438D02*
X53235714Y-31620057D01*
X53235714Y-31620057D02*
X53283333Y-31715295D01*
X53283333Y-31715295D02*
X53283333Y-31858152D01*
X53283333Y-31858152D02*
X53235714Y-31953390D01*
X53235714Y-31953390D02*
X53188095Y-32001009D01*
X53188095Y-32001009D02*
X53092857Y-32048628D01*
X53092857Y-32048628D02*
X52711905Y-32048628D01*
X53664286Y-31620057D02*
X53711905Y-31572438D01*
X53711905Y-31572438D02*
X53807143Y-31524819D01*
X53807143Y-31524819D02*
X54045238Y-31524819D01*
X54045238Y-31524819D02*
X54140476Y-31572438D01*
X54140476Y-31572438D02*
X54188095Y-31620057D01*
X54188095Y-31620057D02*
X54235714Y-31715295D01*
X54235714Y-31715295D02*
X54235714Y-31810533D01*
X54235714Y-31810533D02*
X54188095Y-31953390D01*
X54188095Y-31953390D02*
X53616667Y-32524819D01*
X53616667Y-32524819D02*
X54235714Y-32524819D01*
X52511905Y-25554819D02*
X52511905Y-24554819D01*
X52511905Y-24554819D02*
X52750000Y-24554819D01*
X52750000Y-24554819D02*
X52892857Y-24602438D01*
X52892857Y-24602438D02*
X52988095Y-24697676D01*
X52988095Y-24697676D02*
X53035714Y-24792914D01*
X53035714Y-24792914D02*
X53083333Y-24983390D01*
X53083333Y-24983390D02*
X53083333Y-25126247D01*
X53083333Y-25126247D02*
X53035714Y-25316723D01*
X53035714Y-25316723D02*
X52988095Y-25411961D01*
X52988095Y-25411961D02*
X52892857Y-25507200D01*
X52892857Y-25507200D02*
X52750000Y-25554819D01*
X52750000Y-25554819D02*
X52511905Y-25554819D01*
X54035714Y-25554819D02*
X53464286Y-25554819D01*
X53750000Y-25554819D02*
X53750000Y-24554819D01*
X53750000Y-24554819D02*
X53654762Y-24697676D01*
X53654762Y-24697676D02*
X53559524Y-24792914D01*
X53559524Y-24792914D02*
X53464286Y-24840533D01*
X45908333Y-23704819D02*
X45575000Y-23228628D01*
X45336905Y-23704819D02*
X45336905Y-22704819D01*
X45336905Y-22704819D02*
X45717857Y-22704819D01*
X45717857Y-22704819D02*
X45813095Y-22752438D01*
X45813095Y-22752438D02*
X45860714Y-22800057D01*
X45860714Y-22800057D02*
X45908333Y-22895295D01*
X45908333Y-22895295D02*
X45908333Y-23038152D01*
X45908333Y-23038152D02*
X45860714Y-23133390D01*
X45860714Y-23133390D02*
X45813095Y-23181009D01*
X45813095Y-23181009D02*
X45717857Y-23228628D01*
X45717857Y-23228628D02*
X45336905Y-23228628D01*
X46765476Y-23038152D02*
X46765476Y-23704819D01*
X46527381Y-22657200D02*
X46289286Y-23371485D01*
X46289286Y-23371485D02*
X46908333Y-23371485D01*
X41583333Y-25204819D02*
X41250000Y-24728628D01*
X41011905Y-25204819D02*
X41011905Y-24204819D01*
X41011905Y-24204819D02*
X41392857Y-24204819D01*
X41392857Y-24204819D02*
X41488095Y-24252438D01*
X41488095Y-24252438D02*
X41535714Y-24300057D01*
X41535714Y-24300057D02*
X41583333Y-24395295D01*
X41583333Y-24395295D02*
X41583333Y-24538152D01*
X41583333Y-24538152D02*
X41535714Y-24633390D01*
X41535714Y-24633390D02*
X41488095Y-24681009D01*
X41488095Y-24681009D02*
X41392857Y-24728628D01*
X41392857Y-24728628D02*
X41011905Y-24728628D01*
X41916667Y-24204819D02*
X42535714Y-24204819D01*
X42535714Y-24204819D02*
X42202381Y-24585771D01*
X42202381Y-24585771D02*
X42345238Y-24585771D01*
X42345238Y-24585771D02*
X42440476Y-24633390D01*
X42440476Y-24633390D02*
X42488095Y-24681009D01*
X42488095Y-24681009D02*
X42535714Y-24776247D01*
X42535714Y-24776247D02*
X42535714Y-25014342D01*
X42535714Y-25014342D02*
X42488095Y-25109580D01*
X42488095Y-25109580D02*
X42440476Y-25157200D01*
X42440476Y-25157200D02*
X42345238Y-25204819D01*
X42345238Y-25204819D02*
X42059524Y-25204819D01*
X42059524Y-25204819D02*
X41964286Y-25157200D01*
X41964286Y-25157200D02*
X41916667Y-25109580D01*
X41416666Y-30204819D02*
X41416666Y-30919104D01*
X41416666Y-30919104D02*
X41369047Y-31061961D01*
X41369047Y-31061961D02*
X41273809Y-31157200D01*
X41273809Y-31157200D02*
X41130952Y-31204819D01*
X41130952Y-31204819D02*
X41035714Y-31204819D01*
X42416666Y-31204819D02*
X41845238Y-31204819D01*
X42130952Y-31204819D02*
X42130952Y-30204819D01*
X42130952Y-30204819D02*
X42035714Y-30347676D01*
X42035714Y-30347676D02*
X41940476Y-30442914D01*
X41940476Y-30442914D02*
X41845238Y-30490533D01*
X41583333Y-26334580D02*
X41535714Y-26382200D01*
X41535714Y-26382200D02*
X41392857Y-26429819D01*
X41392857Y-26429819D02*
X41297619Y-26429819D01*
X41297619Y-26429819D02*
X41154762Y-26382200D01*
X41154762Y-26382200D02*
X41059524Y-26286961D01*
X41059524Y-26286961D02*
X41011905Y-26191723D01*
X41011905Y-26191723D02*
X40964286Y-26001247D01*
X40964286Y-26001247D02*
X40964286Y-25858390D01*
X40964286Y-25858390D02*
X41011905Y-25667914D01*
X41011905Y-25667914D02*
X41059524Y-25572676D01*
X41059524Y-25572676D02*
X41154762Y-25477438D01*
X41154762Y-25477438D02*
X41297619Y-25429819D01*
X41297619Y-25429819D02*
X41392857Y-25429819D01*
X41392857Y-25429819D02*
X41535714Y-25477438D01*
X41535714Y-25477438D02*
X41583333Y-25525057D01*
X41964286Y-25525057D02*
X42011905Y-25477438D01*
X42011905Y-25477438D02*
X42107143Y-25429819D01*
X42107143Y-25429819D02*
X42345238Y-25429819D01*
X42345238Y-25429819D02*
X42440476Y-25477438D01*
X42440476Y-25477438D02*
X42488095Y-25525057D01*
X42488095Y-25525057D02*
X42535714Y-25620295D01*
X42535714Y-25620295D02*
X42535714Y-25715533D01*
X42535714Y-25715533D02*
X42488095Y-25858390D01*
X42488095Y-25858390D02*
X41916667Y-26429819D01*
X41916667Y-26429819D02*
X42535714Y-26429819D01*
X48083333Y-32409580D02*
X48035714Y-32457200D01*
X48035714Y-32457200D02*
X47892857Y-32504819D01*
X47892857Y-32504819D02*
X47797619Y-32504819D01*
X47797619Y-32504819D02*
X47654762Y-32457200D01*
X47654762Y-32457200D02*
X47559524Y-32361961D01*
X47559524Y-32361961D02*
X47511905Y-32266723D01*
X47511905Y-32266723D02*
X47464286Y-32076247D01*
X47464286Y-32076247D02*
X47464286Y-31933390D01*
X47464286Y-31933390D02*
X47511905Y-31742914D01*
X47511905Y-31742914D02*
X47559524Y-31647676D01*
X47559524Y-31647676D02*
X47654762Y-31552438D01*
X47654762Y-31552438D02*
X47797619Y-31504819D01*
X47797619Y-31504819D02*
X47892857Y-31504819D01*
X47892857Y-31504819D02*
X48035714Y-31552438D01*
X48035714Y-31552438D02*
X48083333Y-31600057D01*
X49035714Y-32504819D02*
X48464286Y-32504819D01*
X48750000Y-32504819D02*
X48750000Y-31504819D01*
X48750000Y-31504819D02*
X48654762Y-31647676D01*
X48654762Y-31647676D02*
X48559524Y-31742914D01*
X48559524Y-31742914D02*
X48464286Y-31790533D01*
D11*
%TO.C,U1*%
X44300000Y-25785000D02*
X44060000Y-25455000D01*
X44540000Y-25455000D01*
X44300000Y-25785000D01*
G36*
X44300000Y-25785000D02*
G01*
X44060000Y-25455000D01*
X44540000Y-25455000D01*
X44300000Y-25785000D01*
G37*
X47000000Y-30810000D02*
X48950000Y-30810000D01*
X47000000Y-30810000D02*
X45050000Y-30810000D01*
X47000000Y-25690000D02*
X48950000Y-25690000D01*
X47000000Y-25690000D02*
X45050000Y-25690000D01*
%TO.C,D2*%
X51565000Y-29290000D02*
X51565000Y-31210000D01*
X51565000Y-31210000D02*
X54250000Y-31210000D01*
X54250000Y-29290000D02*
X51565000Y-29290000D01*
%TO.C,R1*%
X53212742Y-23812500D02*
X53687258Y-23812500D01*
X53212742Y-22767500D02*
X53687258Y-22767500D01*
%TO.C,R2*%
X53212742Y-32977500D02*
X53687258Y-32977500D01*
X53212742Y-34022500D02*
X53687258Y-34022500D01*
%TO.C,D1*%
X51565000Y-25790000D02*
X51565000Y-27710000D01*
X51565000Y-27710000D02*
X54250000Y-27710000D01*
X54250000Y-25790000D02*
X51565000Y-25790000D01*
%TO.C,R4*%
X48262742Y-22727500D02*
X48737258Y-22727500D01*
X48262742Y-23772500D02*
X48737258Y-23772500D01*
%TO.C,R3*%
X43262742Y-22727500D02*
X43737258Y-22727500D01*
X43262742Y-23772500D02*
X43737258Y-23772500D01*
%TO.C,J1*%
X41055000Y-33020000D02*
X41055000Y-37020000D01*
X41345000Y-31990000D02*
X41345000Y-38010000D01*
X41345000Y-38010000D02*
X46645000Y-38010000D01*
X41925000Y-31990000D02*
X41925000Y-32590000D01*
X41925000Y-32590000D02*
X43525000Y-32590000D01*
X42725000Y-37010000D02*
X42975000Y-36480000D01*
X42725000Y-37010000D02*
X45265000Y-37010000D01*
X42725000Y-38010000D02*
X42725000Y-37010000D01*
X42975000Y-36480000D02*
X45015000Y-36480000D01*
X42975000Y-38010000D02*
X42975000Y-37010000D01*
X43525000Y-32590000D02*
X43525000Y-31990000D01*
X44465000Y-31990000D02*
X44465000Y-32590000D01*
X44465000Y-32590000D02*
X46065000Y-32590000D01*
X45015000Y-36480000D02*
X45265000Y-37010000D01*
X45015000Y-38010000D02*
X45015000Y-37010000D01*
X45265000Y-37010000D02*
X45265000Y-38010000D01*
X46065000Y-32590000D02*
X46065000Y-31990000D01*
X46645000Y-31990000D02*
X41345000Y-31990000D01*
X46645000Y-38010000D02*
X46645000Y-31990000D01*
%TO.C,C2*%
X41240000Y-28390580D02*
X41240000Y-28109420D01*
X42260000Y-28390580D02*
X42260000Y-28109420D01*
%TO.C,C1*%
X50935000Y-33175000D02*
X50935000Y-33550000D01*
X51122500Y-33362500D02*
X50747500Y-33362500D01*
X50560000Y-33979437D02*
X51260000Y-34679437D01*
X48440000Y-33979437D02*
X47740000Y-34679437D01*
X51260000Y-34679437D02*
X51260000Y-37310000D01*
X47740000Y-34679437D02*
X47740000Y-37310000D01*
X51260000Y-37310000D02*
X50560000Y-37310000D01*
X47740000Y-37310000D02*
X48440000Y-37310000D01*
%TD*%
M02*
