%TF.GenerationSoftware,KiCad,Pcbnew,9.0.2*%
%TF.CreationDate,2025-10-01T12:11:13+03:00*%
%TF.ProjectId,555_flip_flop,3535355f-666c-4697-905f-666c6f702e6b,rev?*%
%TF.SameCoordinates,Original*%
%TF.FileFunction,Legend,Bot*%
%TF.FilePolarity,Positive*%
%FSLAX46Y46*%
G04 Gerber Fmt 4.6, Leading zero omitted, Abs format (unit mm)*
G04 Created by KiCad (PCBNEW 9.0.2) date 2025-10-01 12:11:13*
%MOMM*%
%LPD*%
G01*
G04 APERTURE LIST*
%ADD10C,0.010000*%
G04 APERTURE END LIST*
D10*
%TO.C,REF\u002A\u002A*%
X51724731Y-34046040D02*
X51730486Y-34054625D01*
X51751049Y-34088346D01*
X51784863Y-34145200D01*
X51830634Y-34222968D01*
X51887067Y-34319432D01*
X51952868Y-34432371D01*
X52026742Y-34559568D01*
X52107395Y-34698803D01*
X52193532Y-34847857D01*
X52283859Y-35004512D01*
X52308631Y-35047521D01*
X52406584Y-35217575D01*
X52505193Y-35388754D01*
X52602444Y-35557562D01*
X52696322Y-35720503D01*
X52784815Y-35874082D01*
X52865906Y-36014801D01*
X52937582Y-36139166D01*
X52997828Y-36243680D01*
X53044631Y-36324847D01*
X53265714Y-36708171D01*
X50165760Y-36708171D01*
X50037605Y-36708159D01*
X49732184Y-36708042D01*
X49436116Y-36707802D01*
X49150843Y-36707444D01*
X48877807Y-36706976D01*
X48618449Y-36706403D01*
X48374211Y-36705732D01*
X48146533Y-36704968D01*
X47936858Y-36704119D01*
X47746627Y-36703189D01*
X47577281Y-36702186D01*
X47430262Y-36701115D01*
X47307011Y-36699983D01*
X47208970Y-36698796D01*
X47137580Y-36697559D01*
X47094282Y-36696280D01*
X47080519Y-36694963D01*
X47090738Y-36688304D01*
X47125995Y-36667083D01*
X47183905Y-36632920D01*
X47262114Y-36587171D01*
X47358267Y-36531190D01*
X47470007Y-36466333D01*
X47594980Y-36393954D01*
X47730830Y-36315409D01*
X47875202Y-36232054D01*
X48025740Y-36145243D01*
X48180089Y-36056332D01*
X48335894Y-35966676D01*
X48490800Y-35877629D01*
X48642450Y-35790548D01*
X48788490Y-35706788D01*
X48926565Y-35627703D01*
X49054318Y-35554649D01*
X49169395Y-35488981D01*
X49269440Y-35432054D01*
X49352098Y-35385224D01*
X49415013Y-35349846D01*
X49455831Y-35327274D01*
X49472195Y-35318864D01*
X49482873Y-35320949D01*
X49515042Y-35339908D01*
X49560905Y-35375032D01*
X49615424Y-35422669D01*
X49664529Y-35470356D01*
X49727073Y-35535316D01*
X49797052Y-35611155D01*
X49870880Y-35693698D01*
X49944969Y-35778768D01*
X50015732Y-35862190D01*
X50079582Y-35939789D01*
X50132931Y-36007389D01*
X50172193Y-36060814D01*
X50193779Y-36095889D01*
X50208190Y-36121505D01*
X50247327Y-36174516D01*
X50297642Y-36230912D01*
X50351960Y-36283462D01*
X50403108Y-36324930D01*
X50443911Y-36348086D01*
X50488976Y-36353438D01*
X50549110Y-36338645D01*
X50606263Y-36304726D01*
X50650617Y-36256053D01*
X50658297Y-36243425D01*
X50668076Y-36222743D01*
X50674449Y-36197854D01*
X50677826Y-36163409D01*
X50678615Y-36114062D01*
X50677225Y-36044464D01*
X50674065Y-35949268D01*
X50671800Y-35894202D01*
X50666988Y-35807117D01*
X50661309Y-35730899D01*
X50655292Y-35672249D01*
X50649467Y-35637866D01*
X50635363Y-35598588D01*
X50593550Y-35521240D01*
X50528579Y-35429591D01*
X50439654Y-35322567D01*
X50325984Y-35199090D01*
X50276656Y-35147066D01*
X50219622Y-35085696D01*
X50172548Y-35033665D01*
X50139308Y-34995266D01*
X50123773Y-34974796D01*
X50122176Y-34971546D01*
X50120261Y-34957553D01*
X50129829Y-34942039D01*
X50154799Y-34921659D01*
X50199090Y-34893071D01*
X50266622Y-34852932D01*
X50324031Y-34819422D01*
X50429676Y-34758123D01*
X50512855Y-34710509D01*
X50576362Y-34675033D01*
X50622990Y-34650149D01*
X50655534Y-34634313D01*
X50676788Y-34625977D01*
X50698781Y-34616728D01*
X50711635Y-34604307D01*
X50712838Y-34601378D01*
X50731645Y-34585084D01*
X50766019Y-34564098D01*
X50820403Y-34534810D01*
X50860558Y-34572192D01*
X50874741Y-34587336D01*
X50907739Y-34628493D01*
X50948030Y-34683445D01*
X50989866Y-34744531D01*
X51079020Y-34879489D01*
X51075521Y-35229362D01*
X51072023Y-35579235D01*
X51021077Y-35628733D01*
X51003958Y-35646379D01*
X50949060Y-35725660D01*
X50917014Y-35819935D01*
X50906096Y-35933780D01*
X50908807Y-35994779D01*
X50927945Y-36102378D01*
X50962825Y-36200583D01*
X51010426Y-36279382D01*
X51043479Y-36308114D01*
X51102233Y-36329937D01*
X51168745Y-36332454D01*
X51234500Y-36316828D01*
X51290985Y-36284220D01*
X51329687Y-36235793D01*
X51330954Y-36233168D01*
X51354347Y-36185225D01*
X51379123Y-36135122D01*
X51400156Y-36088087D01*
X51430328Y-36008810D01*
X51463616Y-35911072D01*
X51498863Y-35799228D01*
X51534913Y-35677634D01*
X51570609Y-35550645D01*
X51604794Y-35422616D01*
X51636311Y-35297902D01*
X51664004Y-35180859D01*
X51686716Y-35075843D01*
X51703290Y-34987209D01*
X51712569Y-34919312D01*
X51713398Y-34876507D01*
X51711531Y-34866782D01*
X51693342Y-34817556D01*
X51659591Y-34751699D01*
X51613239Y-34675165D01*
X51595448Y-34647585D01*
X51523966Y-34535122D01*
X51463204Y-34436772D01*
X51414501Y-34354832D01*
X51379198Y-34291605D01*
X51358636Y-34249390D01*
X51354153Y-34230487D01*
X51354672Y-34229820D01*
X51373229Y-34216205D01*
X51412886Y-34191319D01*
X51468210Y-34158476D01*
X51533768Y-34120988D01*
X51539310Y-34117876D01*
X51610491Y-34078712D01*
X51660065Y-34053736D01*
X51692590Y-34041158D01*
X51712626Y-34039189D01*
X51724731Y-34046040D01*
G36*
X51724731Y-34046040D02*
G01*
X51730486Y-34054625D01*
X51751049Y-34088346D01*
X51784863Y-34145200D01*
X51830634Y-34222968D01*
X51887067Y-34319432D01*
X51952868Y-34432371D01*
X52026742Y-34559568D01*
X52107395Y-34698803D01*
X52193532Y-34847857D01*
X52283859Y-35004512D01*
X52308631Y-35047521D01*
X52406584Y-35217575D01*
X52505193Y-35388754D01*
X52602444Y-35557562D01*
X52696322Y-35720503D01*
X52784815Y-35874082D01*
X52865906Y-36014801D01*
X52937582Y-36139166D01*
X52997828Y-36243680D01*
X53044631Y-36324847D01*
X53265714Y-36708171D01*
X50165760Y-36708171D01*
X50037605Y-36708159D01*
X49732184Y-36708042D01*
X49436116Y-36707802D01*
X49150843Y-36707444D01*
X48877807Y-36706976D01*
X48618449Y-36706403D01*
X48374211Y-36705732D01*
X48146533Y-36704968D01*
X47936858Y-36704119D01*
X47746627Y-36703189D01*
X47577281Y-36702186D01*
X47430262Y-36701115D01*
X47307011Y-36699983D01*
X47208970Y-36698796D01*
X47137580Y-36697559D01*
X47094282Y-36696280D01*
X47080519Y-36694963D01*
X47090738Y-36688304D01*
X47125995Y-36667083D01*
X47183905Y-36632920D01*
X47262114Y-36587171D01*
X47358267Y-36531190D01*
X47470007Y-36466333D01*
X47594980Y-36393954D01*
X47730830Y-36315409D01*
X47875202Y-36232054D01*
X48025740Y-36145243D01*
X48180089Y-36056332D01*
X48335894Y-35966676D01*
X48490800Y-35877629D01*
X48642450Y-35790548D01*
X48788490Y-35706788D01*
X48926565Y-35627703D01*
X49054318Y-35554649D01*
X49169395Y-35488981D01*
X49269440Y-35432054D01*
X49352098Y-35385224D01*
X49415013Y-35349846D01*
X49455831Y-35327274D01*
X49472195Y-35318864D01*
X49482873Y-35320949D01*
X49515042Y-35339908D01*
X49560905Y-35375032D01*
X49615424Y-35422669D01*
X49664529Y-35470356D01*
X49727073Y-35535316D01*
X49797052Y-35611155D01*
X49870880Y-35693698D01*
X49944969Y-35778768D01*
X50015732Y-35862190D01*
X50079582Y-35939789D01*
X50132931Y-36007389D01*
X50172193Y-36060814D01*
X50193779Y-36095889D01*
X50208190Y-36121505D01*
X50247327Y-36174516D01*
X50297642Y-36230912D01*
X50351960Y-36283462D01*
X50403108Y-36324930D01*
X50443911Y-36348086D01*
X50488976Y-36353438D01*
X50549110Y-36338645D01*
X50606263Y-36304726D01*
X50650617Y-36256053D01*
X50658297Y-36243425D01*
X50668076Y-36222743D01*
X50674449Y-36197854D01*
X50677826Y-36163409D01*
X50678615Y-36114062D01*
X50677225Y-36044464D01*
X50674065Y-35949268D01*
X50671800Y-35894202D01*
X50666988Y-35807117D01*
X50661309Y-35730899D01*
X50655292Y-35672249D01*
X50649467Y-35637866D01*
X50635363Y-35598588D01*
X50593550Y-35521240D01*
X50528579Y-35429591D01*
X50439654Y-35322567D01*
X50325984Y-35199090D01*
X50276656Y-35147066D01*
X50219622Y-35085696D01*
X50172548Y-35033665D01*
X50139308Y-34995266D01*
X50123773Y-34974796D01*
X50122176Y-34971546D01*
X50120261Y-34957553D01*
X50129829Y-34942039D01*
X50154799Y-34921659D01*
X50199090Y-34893071D01*
X50266622Y-34852932D01*
X50324031Y-34819422D01*
X50429676Y-34758123D01*
X50512855Y-34710509D01*
X50576362Y-34675033D01*
X50622990Y-34650149D01*
X50655534Y-34634313D01*
X50676788Y-34625977D01*
X50698781Y-34616728D01*
X50711635Y-34604307D01*
X50712838Y-34601378D01*
X50731645Y-34585084D01*
X50766019Y-34564098D01*
X50820403Y-34534810D01*
X50860558Y-34572192D01*
X50874741Y-34587336D01*
X50907739Y-34628493D01*
X50948030Y-34683445D01*
X50989866Y-34744531D01*
X51079020Y-34879489D01*
X51075521Y-35229362D01*
X51072023Y-35579235D01*
X51021077Y-35628733D01*
X51003958Y-35646379D01*
X50949060Y-35725660D01*
X50917014Y-35819935D01*
X50906096Y-35933780D01*
X50908807Y-35994779D01*
X50927945Y-36102378D01*
X50962825Y-36200583D01*
X51010426Y-36279382D01*
X51043479Y-36308114D01*
X51102233Y-36329937D01*
X51168745Y-36332454D01*
X51234500Y-36316828D01*
X51290985Y-36284220D01*
X51329687Y-36235793D01*
X51330954Y-36233168D01*
X51354347Y-36185225D01*
X51379123Y-36135122D01*
X51400156Y-36088087D01*
X51430328Y-36008810D01*
X51463616Y-35911072D01*
X51498863Y-35799228D01*
X51534913Y-35677634D01*
X51570609Y-35550645D01*
X51604794Y-35422616D01*
X51636311Y-35297902D01*
X51664004Y-35180859D01*
X51686716Y-35075843D01*
X51703290Y-34987209D01*
X51712569Y-34919312D01*
X51713398Y-34876507D01*
X51711531Y-34866782D01*
X51693342Y-34817556D01*
X51659591Y-34751699D01*
X51613239Y-34675165D01*
X51595448Y-34647585D01*
X51523966Y-34535122D01*
X51463204Y-34436772D01*
X51414501Y-34354832D01*
X51379198Y-34291605D01*
X51358636Y-34249390D01*
X51354153Y-34230487D01*
X51354672Y-34229820D01*
X51373229Y-34216205D01*
X51412886Y-34191319D01*
X51468210Y-34158476D01*
X51533768Y-34120988D01*
X51539310Y-34117876D01*
X51610491Y-34078712D01*
X51660065Y-34053736D01*
X51692590Y-34041158D01*
X51712626Y-34039189D01*
X51724731Y-34046040D01*
G37*
X49860244Y-30823175D02*
X49871777Y-30840511D01*
X49897184Y-30882162D01*
X49935191Y-30945911D01*
X49984521Y-31029545D01*
X50043897Y-31130849D01*
X50112043Y-31247609D01*
X50187684Y-31377608D01*
X50269543Y-31518633D01*
X50356344Y-31668468D01*
X50446810Y-31824900D01*
X50539666Y-31985713D01*
X50633635Y-32148693D01*
X50727441Y-32311624D01*
X50819808Y-32472292D01*
X50909460Y-32628482D01*
X50995120Y-32777980D01*
X51075512Y-32918571D01*
X51149361Y-33048040D01*
X51215389Y-33164172D01*
X51272321Y-33264752D01*
X51318881Y-33347567D01*
X51353792Y-33410400D01*
X51375778Y-33451037D01*
X51383563Y-33467264D01*
X51383571Y-33467388D01*
X51371017Y-33484416D01*
X51334942Y-33513279D01*
X51279101Y-33551247D01*
X51207245Y-33595587D01*
X51159057Y-33623952D01*
X51089716Y-33663396D01*
X51041418Y-33688254D01*
X51010926Y-33699924D01*
X50995004Y-33699806D01*
X50990416Y-33689297D01*
X50990066Y-33687583D01*
X50976952Y-33666682D01*
X50948684Y-33631139D01*
X50910470Y-33587583D01*
X50892839Y-33568875D01*
X50838166Y-33518512D01*
X50777706Y-33475465D01*
X50707866Y-33438473D01*
X50625054Y-33406273D01*
X50525676Y-33377602D01*
X50406139Y-33351198D01*
X50262850Y-33325800D01*
X50092215Y-33300145D01*
X49895818Y-33271227D01*
X49705958Y-33240173D01*
X49539944Y-33209044D01*
X49394066Y-33176942D01*
X49264611Y-33142969D01*
X49147867Y-33106226D01*
X49040124Y-33065817D01*
X48937669Y-33020843D01*
X48862372Y-32983754D01*
X48790449Y-32944725D01*
X48733570Y-32909882D01*
X48696183Y-32881965D01*
X48682733Y-32863714D01*
X48683130Y-32862370D01*
X48693964Y-32840862D01*
X48718529Y-32795822D01*
X48755369Y-32729772D01*
X48803031Y-32645233D01*
X48860060Y-32544727D01*
X48925002Y-32430776D01*
X48996403Y-32305901D01*
X49072808Y-32172624D01*
X49152763Y-32033467D01*
X49234814Y-31890951D01*
X49317506Y-31747598D01*
X49399385Y-31605930D01*
X49478997Y-31468468D01*
X49554888Y-31337734D01*
X49625603Y-31216250D01*
X49689688Y-31106538D01*
X49745688Y-31011118D01*
X49792150Y-30932514D01*
X49827619Y-30873245D01*
X49850641Y-30835835D01*
X49859761Y-30822805D01*
X49860244Y-30823175D01*
G36*
X49860244Y-30823175D02*
G01*
X49871777Y-30840511D01*
X49897184Y-30882162D01*
X49935191Y-30945911D01*
X49984521Y-31029545D01*
X50043897Y-31130849D01*
X50112043Y-31247609D01*
X50187684Y-31377608D01*
X50269543Y-31518633D01*
X50356344Y-31668468D01*
X50446810Y-31824900D01*
X50539666Y-31985713D01*
X50633635Y-32148693D01*
X50727441Y-32311624D01*
X50819808Y-32472292D01*
X50909460Y-32628482D01*
X50995120Y-32777980D01*
X51075512Y-32918571D01*
X51149361Y-33048040D01*
X51215389Y-33164172D01*
X51272321Y-33264752D01*
X51318881Y-33347567D01*
X51353792Y-33410400D01*
X51375778Y-33451037D01*
X51383563Y-33467264D01*
X51383571Y-33467388D01*
X51371017Y-33484416D01*
X51334942Y-33513279D01*
X51279101Y-33551247D01*
X51207245Y-33595587D01*
X51159057Y-33623952D01*
X51089716Y-33663396D01*
X51041418Y-33688254D01*
X51010926Y-33699924D01*
X50995004Y-33699806D01*
X50990416Y-33689297D01*
X50990066Y-33687583D01*
X50976952Y-33666682D01*
X50948684Y-33631139D01*
X50910470Y-33587583D01*
X50892839Y-33568875D01*
X50838166Y-33518512D01*
X50777706Y-33475465D01*
X50707866Y-33438473D01*
X50625054Y-33406273D01*
X50525676Y-33377602D01*
X50406139Y-33351198D01*
X50262850Y-33325800D01*
X50092215Y-33300145D01*
X49895818Y-33271227D01*
X49705958Y-33240173D01*
X49539944Y-33209044D01*
X49394066Y-33176942D01*
X49264611Y-33142969D01*
X49147867Y-33106226D01*
X49040124Y-33065817D01*
X48937669Y-33020843D01*
X48862372Y-32983754D01*
X48790449Y-32944725D01*
X48733570Y-32909882D01*
X48696183Y-32881965D01*
X48682733Y-32863714D01*
X48683130Y-32862370D01*
X48693964Y-32840862D01*
X48718529Y-32795822D01*
X48755369Y-32729772D01*
X48803031Y-32645233D01*
X48860060Y-32544727D01*
X48925002Y-32430776D01*
X48996403Y-32305901D01*
X49072808Y-32172624D01*
X49152763Y-32033467D01*
X49234814Y-31890951D01*
X49317506Y-31747598D01*
X49399385Y-31605930D01*
X49478997Y-31468468D01*
X49554888Y-31337734D01*
X49625603Y-31216250D01*
X49689688Y-31106538D01*
X49745688Y-31011118D01*
X49792150Y-30932514D01*
X49827619Y-30873245D01*
X49850641Y-30835835D01*
X49859761Y-30822805D01*
X49860244Y-30823175D01*
G37*
X48097520Y-33992363D02*
X48111707Y-34006032D01*
X48153076Y-34047719D01*
X48207791Y-34104472D01*
X48273194Y-34173397D01*
X48346627Y-34251599D01*
X48425430Y-34336182D01*
X48506944Y-34424253D01*
X48588511Y-34512916D01*
X48667472Y-34599276D01*
X48741167Y-34680439D01*
X48806938Y-34753510D01*
X48862125Y-34815594D01*
X48904070Y-34863795D01*
X48930115Y-34895220D01*
X48937599Y-34906974D01*
X48935030Y-34908272D01*
X48910469Y-34921978D01*
X48861888Y-34949613D01*
X48791336Y-34989998D01*
X48700857Y-35041955D01*
X48592499Y-35104305D01*
X48468308Y-35175871D01*
X48330329Y-35255475D01*
X48180610Y-35341938D01*
X48021197Y-35434083D01*
X47854135Y-35530732D01*
X47791692Y-35566867D01*
X47627567Y-35661806D01*
X47472042Y-35751714D01*
X47327138Y-35835424D01*
X47194879Y-35911771D01*
X47077288Y-35979589D01*
X46976386Y-36037711D01*
X46894197Y-36084971D01*
X46832743Y-36120203D01*
X46794048Y-36142242D01*
X46780133Y-36149920D01*
X46780759Y-36145831D01*
X46792177Y-36122330D01*
X46813177Y-36084786D01*
X46826060Y-36062564D01*
X46853456Y-36015173D01*
X46893771Y-35945377D01*
X46945693Y-35855444D01*
X47007915Y-35747642D01*
X47079127Y-35624240D01*
X47158019Y-35487506D01*
X47243282Y-35339709D01*
X47333608Y-35183117D01*
X47427686Y-35020000D01*
X47519805Y-34860323D01*
X47609364Y-34705187D01*
X47693577Y-34559412D01*
X47771181Y-34425183D01*
X47840909Y-34304685D01*
X47901498Y-34200102D01*
X47951682Y-34113619D01*
X47990196Y-34047421D01*
X48015776Y-34003693D01*
X48027156Y-33984619D01*
X48050504Y-33948201D01*
X48097520Y-33992363D01*
G36*
X48097520Y-33992363D02*
G01*
X48111707Y-34006032D01*
X48153076Y-34047719D01*
X48207791Y-34104472D01*
X48273194Y-34173397D01*
X48346627Y-34251599D01*
X48425430Y-34336182D01*
X48506944Y-34424253D01*
X48588511Y-34512916D01*
X48667472Y-34599276D01*
X48741167Y-34680439D01*
X48806938Y-34753510D01*
X48862125Y-34815594D01*
X48904070Y-34863795D01*
X48930115Y-34895220D01*
X48937599Y-34906974D01*
X48935030Y-34908272D01*
X48910469Y-34921978D01*
X48861888Y-34949613D01*
X48791336Y-34989998D01*
X48700857Y-35041955D01*
X48592499Y-35104305D01*
X48468308Y-35175871D01*
X48330329Y-35255475D01*
X48180610Y-35341938D01*
X48021197Y-35434083D01*
X47854135Y-35530732D01*
X47791692Y-35566867D01*
X47627567Y-35661806D01*
X47472042Y-35751714D01*
X47327138Y-35835424D01*
X47194879Y-35911771D01*
X47077288Y-35979589D01*
X46976386Y-36037711D01*
X46894197Y-36084971D01*
X46832743Y-36120203D01*
X46794048Y-36142242D01*
X46780133Y-36149920D01*
X46780759Y-36145831D01*
X46792177Y-36122330D01*
X46813177Y-36084786D01*
X46826060Y-36062564D01*
X46853456Y-36015173D01*
X46893771Y-35945377D01*
X46945693Y-35855444D01*
X47007915Y-35747642D01*
X47079127Y-35624240D01*
X47158019Y-35487506D01*
X47243282Y-35339709D01*
X47333608Y-35183117D01*
X47427686Y-35020000D01*
X47519805Y-34860323D01*
X47609364Y-34705187D01*
X47693577Y-34559412D01*
X47771181Y-34425183D01*
X47840909Y-34304685D01*
X47901498Y-34200102D01*
X47951682Y-34113619D01*
X47990196Y-34047421D01*
X48015776Y-34003693D01*
X48027156Y-33984619D01*
X48050504Y-33948201D01*
X48097520Y-33992363D01*
G37*
X50378617Y-24242371D02*
X50454540Y-24242865D01*
X50509175Y-24244135D01*
X50546184Y-24246547D01*
X50569231Y-24250467D01*
X50581980Y-24256262D01*
X50588095Y-24264299D01*
X50591240Y-24274943D01*
X50591330Y-24275325D01*
X50596498Y-24300347D01*
X50605893Y-24348681D01*
X50618551Y-24415260D01*
X50633509Y-24495014D01*
X50649803Y-24582875D01*
X50651132Y-24590064D01*
X50667375Y-24675340D01*
X50682489Y-24750242D01*
X50695492Y-24810219D01*
X50705399Y-24850717D01*
X50711228Y-24867184D01*
X50711259Y-24867210D01*
X50729627Y-24876320D01*
X50767324Y-24891457D01*
X50816227Y-24909358D01*
X50818981Y-24910330D01*
X50881501Y-24933959D01*
X50954227Y-24963595D01*
X51021978Y-24993062D01*
X51133387Y-25043626D01*
X51380083Y-24875160D01*
X51397459Y-24863311D01*
X51471886Y-24812947D01*
X51538298Y-24768612D01*
X51592723Y-24732916D01*
X51631190Y-24708471D01*
X51649726Y-24697889D01*
X51662427Y-24700315D01*
X51691263Y-24719110D01*
X51735827Y-24756330D01*
X51797354Y-24813020D01*
X51877082Y-24890227D01*
X51884216Y-24897255D01*
X51947480Y-24960222D01*
X52003674Y-25017268D01*
X52049361Y-25064817D01*
X52081098Y-25099297D01*
X52095448Y-25117131D01*
X52095494Y-25117217D01*
X52097317Y-25130795D01*
X52090594Y-25152820D01*
X52073630Y-25186304D01*
X52044728Y-25234261D01*
X52002192Y-25299704D01*
X51944328Y-25385645D01*
X51934467Y-25400151D01*
X51884597Y-25473635D01*
X51840589Y-25538687D01*
X51805064Y-25591417D01*
X51780643Y-25627936D01*
X51769948Y-25644356D01*
X51769142Y-25647834D01*
X51774202Y-25673785D01*
X51789361Y-25716159D01*
X51812147Y-25767728D01*
X51843113Y-25835170D01*
X51877688Y-25915195D01*
X51907050Y-25987629D01*
X51914329Y-26006377D01*
X51933394Y-26054246D01*
X51947399Y-26087596D01*
X51953725Y-26100114D01*
X51960709Y-26101050D01*
X51992097Y-26106461D01*
X52043471Y-26115806D01*
X52109486Y-26128069D01*
X52184797Y-26142232D01*
X52264059Y-26157280D01*
X52341927Y-26172195D01*
X52413054Y-26185961D01*
X52472096Y-26197562D01*
X52513706Y-26205980D01*
X52532541Y-26210199D01*
X52535664Y-26211389D01*
X52543275Y-26217805D01*
X52548938Y-26231465D01*
X52552935Y-26255999D01*
X52555550Y-26295038D01*
X52557068Y-26352213D01*
X52557770Y-26431154D01*
X52557941Y-26535492D01*
X52557941Y-26852799D01*
X52481741Y-26867839D01*
X52472524Y-26869642D01*
X52423575Y-26878980D01*
X52355889Y-26891669D01*
X52277162Y-26906273D01*
X52195084Y-26921355D01*
X52162762Y-26927422D01*
X52090539Y-26942181D01*
X52030350Y-26956137D01*
X51987724Y-26967952D01*
X51968194Y-26976287D01*
X51959344Y-26989905D01*
X51943232Y-27025938D01*
X51926749Y-27072572D01*
X51920947Y-27090034D01*
X51899590Y-27147358D01*
X51872043Y-27215201D01*
X51842791Y-27282355D01*
X51827147Y-27317430D01*
X51804858Y-27369822D01*
X51789541Y-27409058D01*
X51783846Y-27428563D01*
X51784162Y-27430036D01*
X51794965Y-27450729D01*
X51819322Y-27490665D01*
X51854765Y-27545972D01*
X51898820Y-27612781D01*
X51949016Y-27687220D01*
X52114185Y-27929623D01*
X51897187Y-28146983D01*
X51876200Y-28167899D01*
X51812026Y-28230505D01*
X51754674Y-28284495D01*
X51707504Y-28326826D01*
X51673876Y-28354457D01*
X51657151Y-28364343D01*
X51638987Y-28356821D01*
X51600949Y-28335227D01*
X51547410Y-28302151D01*
X51482568Y-28260191D01*
X51410624Y-28211943D01*
X51339959Y-28164291D01*
X51276210Y-28122328D01*
X51224197Y-28089165D01*
X51187963Y-28067378D01*
X51171551Y-28059543D01*
X51170589Y-28059614D01*
X51148787Y-28067338D01*
X51110124Y-28085323D01*
X51062296Y-28110013D01*
X51061794Y-28110284D01*
X50998271Y-28142099D01*
X50954744Y-28157642D01*
X50927736Y-28157685D01*
X50913774Y-28143000D01*
X50907864Y-28128544D01*
X50891913Y-28089831D01*
X50867344Y-28030316D01*
X50835463Y-27953165D01*
X50797577Y-27861541D01*
X50754994Y-27758607D01*
X50709021Y-27647526D01*
X50667351Y-27546472D01*
X50624952Y-27442780D01*
X50587440Y-27350119D01*
X50556072Y-27271642D01*
X50532109Y-27210500D01*
X50516807Y-27169843D01*
X50511427Y-27152825D01*
X50521702Y-27137219D01*
X50550247Y-27111162D01*
X50590655Y-27080887D01*
X50687663Y-27001684D01*
X50774477Y-26900475D01*
X50838006Y-26789116D01*
X50877861Y-26670893D01*
X50893649Y-26549095D01*
X50884980Y-26427010D01*
X50851462Y-26307925D01*
X50792705Y-26195129D01*
X50708316Y-26091911D01*
X50664315Y-26051713D01*
X50558895Y-25980638D01*
X50446094Y-25934301D01*
X50329209Y-25911599D01*
X50211537Y-25911428D01*
X50096374Y-25932687D01*
X49987019Y-25974270D01*
X49886767Y-26035076D01*
X49798917Y-26114001D01*
X49726764Y-26209941D01*
X49673606Y-26321795D01*
X49642741Y-26448457D01*
X49637076Y-26509507D01*
X49644869Y-26641776D01*
X49679968Y-26767266D01*
X49741333Y-26883759D01*
X49827927Y-26989039D01*
X49938713Y-27080887D01*
X49977615Y-27109930D01*
X50006788Y-27136272D01*
X50017941Y-27152800D01*
X50013494Y-27167209D01*
X49999062Y-27205815D01*
X49975857Y-27265201D01*
X49945136Y-27342215D01*
X49908158Y-27433703D01*
X49866180Y-27536516D01*
X49820462Y-27647502D01*
X49778862Y-27748072D01*
X49735906Y-27851947D01*
X49697513Y-27944819D01*
X49664989Y-28023525D01*
X49639642Y-28084899D01*
X49622779Y-28125779D01*
X49615709Y-28143000D01*
X49615627Y-28143204D01*
X49601482Y-28157745D01*
X49574343Y-28157579D01*
X49530707Y-28141927D01*
X49467072Y-28110013D01*
X49462063Y-28107326D01*
X49414809Y-28083150D01*
X49377495Y-28066037D01*
X49357817Y-28059543D01*
X49341689Y-28067218D01*
X49305643Y-28088871D01*
X49253776Y-28121928D01*
X49190129Y-28163810D01*
X49118744Y-28211943D01*
X49048408Y-28259131D01*
X48983354Y-28301267D01*
X48929504Y-28334578D01*
X48891058Y-28356469D01*
X48872218Y-28364343D01*
X48869009Y-28363343D01*
X48846638Y-28347584D01*
X48808417Y-28315033D01*
X48757705Y-28268733D01*
X48697865Y-28211726D01*
X48632255Y-28147058D01*
X48415332Y-27929772D01*
X48584285Y-27681253D01*
X48753237Y-27432733D01*
X48701867Y-27321595D01*
X48701715Y-27321266D01*
X48670867Y-27250418D01*
X48639345Y-27171523D01*
X48613950Y-27101600D01*
X48610107Y-27090322D01*
X48590731Y-27037967D01*
X48573258Y-26997283D01*
X48561072Y-26976287D01*
X48556110Y-26973322D01*
X48526318Y-26963375D01*
X48475731Y-26950505D01*
X48409878Y-26936053D01*
X48334284Y-26921355D01*
X48311641Y-26917210D01*
X48229722Y-26902116D01*
X48153284Y-26887899D01*
X48090021Y-26875995D01*
X48047627Y-26867839D01*
X47971427Y-26852799D01*
X47971427Y-26535492D01*
X47971444Y-26496476D01*
X47971766Y-26401292D01*
X47972717Y-26330255D01*
X47974580Y-26279734D01*
X47977639Y-26246098D01*
X47982178Y-26225718D01*
X47988479Y-26214962D01*
X47996827Y-26210199D01*
X48004908Y-26208270D01*
X48037856Y-26201445D01*
X48090420Y-26191022D01*
X48157253Y-26178018D01*
X48233012Y-26163449D01*
X48312349Y-26148333D01*
X48389921Y-26133685D01*
X48460382Y-26120523D01*
X48518386Y-26109863D01*
X48558588Y-26102721D01*
X48575643Y-26100114D01*
X48576796Y-26098541D01*
X48586069Y-26078119D01*
X48602116Y-26039045D01*
X48622319Y-25987629D01*
X48650356Y-25918353D01*
X48684870Y-25838290D01*
X48717222Y-25767728D01*
X48724636Y-25751889D01*
X48745439Y-25702293D01*
X48757903Y-25664038D01*
X48759547Y-25644356D01*
X48758699Y-25642962D01*
X48745232Y-25622420D01*
X48718534Y-25582516D01*
X48681223Y-25527140D01*
X48635918Y-25460177D01*
X48585236Y-25385517D01*
X48528129Y-25300692D01*
X48485291Y-25234800D01*
X48456144Y-25186478D01*
X48439001Y-25152733D01*
X48432179Y-25130572D01*
X48433990Y-25117002D01*
X48434599Y-25115984D01*
X48450981Y-25096210D01*
X48484379Y-25060175D01*
X48531355Y-25011451D01*
X48588470Y-24953612D01*
X48652287Y-24890227D01*
X48718486Y-24825905D01*
X48783332Y-24765447D01*
X48830983Y-24724655D01*
X48862674Y-24702484D01*
X48879642Y-24697889D01*
X48881859Y-24698921D01*
X48905208Y-24712837D01*
X48947596Y-24740030D01*
X49005053Y-24777889D01*
X49073607Y-24823803D01*
X49149285Y-24875160D01*
X49395982Y-25043626D01*
X49507390Y-24993062D01*
X49510627Y-24991597D01*
X49579027Y-24961965D01*
X49651591Y-24932493D01*
X49713141Y-24909358D01*
X49713413Y-24909262D01*
X49762279Y-24891367D01*
X49799896Y-24876253D01*
X49818141Y-24867184D01*
X49818436Y-24866855D01*
X49824630Y-24848282D01*
X49834823Y-24806045D01*
X49848032Y-24744696D01*
X49863274Y-24668789D01*
X49879565Y-24582875D01*
X49880133Y-24579796D01*
X49896397Y-24492128D01*
X49911292Y-24412741D01*
X49923855Y-24346701D01*
X49933122Y-24299079D01*
X49938128Y-24274943D01*
X49938448Y-24273605D01*
X49941744Y-24263273D01*
X49948422Y-24255506D01*
X49962146Y-24249940D01*
X49986579Y-24246207D01*
X50025386Y-24243942D01*
X50082230Y-24242778D01*
X50160774Y-24242348D01*
X50264684Y-24242286D01*
X50277740Y-24242286D01*
X50378617Y-24242371D01*
G36*
X50378617Y-24242371D02*
G01*
X50454540Y-24242865D01*
X50509175Y-24244135D01*
X50546184Y-24246547D01*
X50569231Y-24250467D01*
X50581980Y-24256262D01*
X50588095Y-24264299D01*
X50591240Y-24274943D01*
X50591330Y-24275325D01*
X50596498Y-24300347D01*
X50605893Y-24348681D01*
X50618551Y-24415260D01*
X50633509Y-24495014D01*
X50649803Y-24582875D01*
X50651132Y-24590064D01*
X50667375Y-24675340D01*
X50682489Y-24750242D01*
X50695492Y-24810219D01*
X50705399Y-24850717D01*
X50711228Y-24867184D01*
X50711259Y-24867210D01*
X50729627Y-24876320D01*
X50767324Y-24891457D01*
X50816227Y-24909358D01*
X50818981Y-24910330D01*
X50881501Y-24933959D01*
X50954227Y-24963595D01*
X51021978Y-24993062D01*
X51133387Y-25043626D01*
X51380083Y-24875160D01*
X51397459Y-24863311D01*
X51471886Y-24812947D01*
X51538298Y-24768612D01*
X51592723Y-24732916D01*
X51631190Y-24708471D01*
X51649726Y-24697889D01*
X51662427Y-24700315D01*
X51691263Y-24719110D01*
X51735827Y-24756330D01*
X51797354Y-24813020D01*
X51877082Y-24890227D01*
X51884216Y-24897255D01*
X51947480Y-24960222D01*
X52003674Y-25017268D01*
X52049361Y-25064817D01*
X52081098Y-25099297D01*
X52095448Y-25117131D01*
X52095494Y-25117217D01*
X52097317Y-25130795D01*
X52090594Y-25152820D01*
X52073630Y-25186304D01*
X52044728Y-25234261D01*
X52002192Y-25299704D01*
X51944328Y-25385645D01*
X51934467Y-25400151D01*
X51884597Y-25473635D01*
X51840589Y-25538687D01*
X51805064Y-25591417D01*
X51780643Y-25627936D01*
X51769948Y-25644356D01*
X51769142Y-25647834D01*
X51774202Y-25673785D01*
X51789361Y-25716159D01*
X51812147Y-25767728D01*
X51843113Y-25835170D01*
X51877688Y-25915195D01*
X51907050Y-25987629D01*
X51914329Y-26006377D01*
X51933394Y-26054246D01*
X51947399Y-26087596D01*
X51953725Y-26100114D01*
X51960709Y-26101050D01*
X51992097Y-26106461D01*
X52043471Y-26115806D01*
X52109486Y-26128069D01*
X52184797Y-26142232D01*
X52264059Y-26157280D01*
X52341927Y-26172195D01*
X52413054Y-26185961D01*
X52472096Y-26197562D01*
X52513706Y-26205980D01*
X52532541Y-26210199D01*
X52535664Y-26211389D01*
X52543275Y-26217805D01*
X52548938Y-26231465D01*
X52552935Y-26255999D01*
X52555550Y-26295038D01*
X52557068Y-26352213D01*
X52557770Y-26431154D01*
X52557941Y-26535492D01*
X52557941Y-26852799D01*
X52481741Y-26867839D01*
X52472524Y-26869642D01*
X52423575Y-26878980D01*
X52355889Y-26891669D01*
X52277162Y-26906273D01*
X52195084Y-26921355D01*
X52162762Y-26927422D01*
X52090539Y-26942181D01*
X52030350Y-26956137D01*
X51987724Y-26967952D01*
X51968194Y-26976287D01*
X51959344Y-26989905D01*
X51943232Y-27025938D01*
X51926749Y-27072572D01*
X51920947Y-27090034D01*
X51899590Y-27147358D01*
X51872043Y-27215201D01*
X51842791Y-27282355D01*
X51827147Y-27317430D01*
X51804858Y-27369822D01*
X51789541Y-27409058D01*
X51783846Y-27428563D01*
X51784162Y-27430036D01*
X51794965Y-27450729D01*
X51819322Y-27490665D01*
X51854765Y-27545972D01*
X51898820Y-27612781D01*
X51949016Y-27687220D01*
X52114185Y-27929623D01*
X51897187Y-28146983D01*
X51876200Y-28167899D01*
X51812026Y-28230505D01*
X51754674Y-28284495D01*
X51707504Y-28326826D01*
X51673876Y-28354457D01*
X51657151Y-28364343D01*
X51638987Y-28356821D01*
X51600949Y-28335227D01*
X51547410Y-28302151D01*
X51482568Y-28260191D01*
X51410624Y-28211943D01*
X51339959Y-28164291D01*
X51276210Y-28122328D01*
X51224197Y-28089165D01*
X51187963Y-28067378D01*
X51171551Y-28059543D01*
X51170589Y-28059614D01*
X51148787Y-28067338D01*
X51110124Y-28085323D01*
X51062296Y-28110013D01*
X51061794Y-28110284D01*
X50998271Y-28142099D01*
X50954744Y-28157642D01*
X50927736Y-28157685D01*
X50913774Y-28143000D01*
X50907864Y-28128544D01*
X50891913Y-28089831D01*
X50867344Y-28030316D01*
X50835463Y-27953165D01*
X50797577Y-27861541D01*
X50754994Y-27758607D01*
X50709021Y-27647526D01*
X50667351Y-27546472D01*
X50624952Y-27442780D01*
X50587440Y-27350119D01*
X50556072Y-27271642D01*
X50532109Y-27210500D01*
X50516807Y-27169843D01*
X50511427Y-27152825D01*
X50521702Y-27137219D01*
X50550247Y-27111162D01*
X50590655Y-27080887D01*
X50687663Y-27001684D01*
X50774477Y-26900475D01*
X50838006Y-26789116D01*
X50877861Y-26670893D01*
X50893649Y-26549095D01*
X50884980Y-26427010D01*
X50851462Y-26307925D01*
X50792705Y-26195129D01*
X50708316Y-26091911D01*
X50664315Y-26051713D01*
X50558895Y-25980638D01*
X50446094Y-25934301D01*
X50329209Y-25911599D01*
X50211537Y-25911428D01*
X50096374Y-25932687D01*
X49987019Y-25974270D01*
X49886767Y-26035076D01*
X49798917Y-26114001D01*
X49726764Y-26209941D01*
X49673606Y-26321795D01*
X49642741Y-26448457D01*
X49637076Y-26509507D01*
X49644869Y-26641776D01*
X49679968Y-26767266D01*
X49741333Y-26883759D01*
X49827927Y-26989039D01*
X49938713Y-27080887D01*
X49977615Y-27109930D01*
X50006788Y-27136272D01*
X50017941Y-27152800D01*
X50013494Y-27167209D01*
X49999062Y-27205815D01*
X49975857Y-27265201D01*
X49945136Y-27342215D01*
X49908158Y-27433703D01*
X49866180Y-27536516D01*
X49820462Y-27647502D01*
X49778862Y-27748072D01*
X49735906Y-27851947D01*
X49697513Y-27944819D01*
X49664989Y-28023525D01*
X49639642Y-28084899D01*
X49622779Y-28125779D01*
X49615709Y-28143000D01*
X49615627Y-28143204D01*
X49601482Y-28157745D01*
X49574343Y-28157579D01*
X49530707Y-28141927D01*
X49467072Y-28110013D01*
X49462063Y-28107326D01*
X49414809Y-28083150D01*
X49377495Y-28066037D01*
X49357817Y-28059543D01*
X49341689Y-28067218D01*
X49305643Y-28088871D01*
X49253776Y-28121928D01*
X49190129Y-28163810D01*
X49118744Y-28211943D01*
X49048408Y-28259131D01*
X48983354Y-28301267D01*
X48929504Y-28334578D01*
X48891058Y-28356469D01*
X48872218Y-28364343D01*
X48869009Y-28363343D01*
X48846638Y-28347584D01*
X48808417Y-28315033D01*
X48757705Y-28268733D01*
X48697865Y-28211726D01*
X48632255Y-28147058D01*
X48415332Y-27929772D01*
X48584285Y-27681253D01*
X48753237Y-27432733D01*
X48701867Y-27321595D01*
X48701715Y-27321266D01*
X48670867Y-27250418D01*
X48639345Y-27171523D01*
X48613950Y-27101600D01*
X48610107Y-27090322D01*
X48590731Y-27037967D01*
X48573258Y-26997283D01*
X48561072Y-26976287D01*
X48556110Y-26973322D01*
X48526318Y-26963375D01*
X48475731Y-26950505D01*
X48409878Y-26936053D01*
X48334284Y-26921355D01*
X48311641Y-26917210D01*
X48229722Y-26902116D01*
X48153284Y-26887899D01*
X48090021Y-26875995D01*
X48047627Y-26867839D01*
X47971427Y-26852799D01*
X47971427Y-26535492D01*
X47971444Y-26496476D01*
X47971766Y-26401292D01*
X47972717Y-26330255D01*
X47974580Y-26279734D01*
X47977639Y-26246098D01*
X47982178Y-26225718D01*
X47988479Y-26214962D01*
X47996827Y-26210199D01*
X48004908Y-26208270D01*
X48037856Y-26201445D01*
X48090420Y-26191022D01*
X48157253Y-26178018D01*
X48233012Y-26163449D01*
X48312349Y-26148333D01*
X48389921Y-26133685D01*
X48460382Y-26120523D01*
X48518386Y-26109863D01*
X48558588Y-26102721D01*
X48575643Y-26100114D01*
X48576796Y-26098541D01*
X48586069Y-26078119D01*
X48602116Y-26039045D01*
X48622319Y-25987629D01*
X48650356Y-25918353D01*
X48684870Y-25838290D01*
X48717222Y-25767728D01*
X48724636Y-25751889D01*
X48745439Y-25702293D01*
X48757903Y-25664038D01*
X48759547Y-25644356D01*
X48758699Y-25642962D01*
X48745232Y-25622420D01*
X48718534Y-25582516D01*
X48681223Y-25527140D01*
X48635918Y-25460177D01*
X48585236Y-25385517D01*
X48528129Y-25300692D01*
X48485291Y-25234800D01*
X48456144Y-25186478D01*
X48439001Y-25152733D01*
X48432179Y-25130572D01*
X48433990Y-25117002D01*
X48434599Y-25115984D01*
X48450981Y-25096210D01*
X48484379Y-25060175D01*
X48531355Y-25011451D01*
X48588470Y-24953612D01*
X48652287Y-24890227D01*
X48718486Y-24825905D01*
X48783332Y-24765447D01*
X48830983Y-24724655D01*
X48862674Y-24702484D01*
X48879642Y-24697889D01*
X48881859Y-24698921D01*
X48905208Y-24712837D01*
X48947596Y-24740030D01*
X49005053Y-24777889D01*
X49073607Y-24823803D01*
X49149285Y-24875160D01*
X49395982Y-25043626D01*
X49507390Y-24993062D01*
X49510627Y-24991597D01*
X49579027Y-24961965D01*
X49651591Y-24932493D01*
X49713141Y-24909358D01*
X49713413Y-24909262D01*
X49762279Y-24891367D01*
X49799896Y-24876253D01*
X49818141Y-24867184D01*
X49818436Y-24866855D01*
X49824630Y-24848282D01*
X49834823Y-24806045D01*
X49848032Y-24744696D01*
X49863274Y-24668789D01*
X49879565Y-24582875D01*
X49880133Y-24579796D01*
X49896397Y-24492128D01*
X49911292Y-24412741D01*
X49923855Y-24346701D01*
X49933122Y-24299079D01*
X49938128Y-24274943D01*
X49938448Y-24273605D01*
X49941744Y-24263273D01*
X49948422Y-24255506D01*
X49962146Y-24249940D01*
X49986579Y-24246207D01*
X50025386Y-24243942D01*
X50082230Y-24242778D01*
X50160774Y-24242348D01*
X50264684Y-24242286D01*
X50277740Y-24242286D01*
X50378617Y-24242371D01*
G37*
X48232179Y-28946220D02*
X48263283Y-28954121D01*
X48292243Y-28973817D01*
X48329515Y-29010484D01*
X48353485Y-29036378D01*
X48378454Y-29069997D01*
X48389715Y-29101506D01*
X48392341Y-29141485D01*
X48392341Y-29206917D01*
X48347719Y-29183842D01*
X48312357Y-29155724D01*
X48288135Y-29117848D01*
X48283975Y-29107551D01*
X48252278Y-29067637D01*
X48208238Y-29047624D01*
X48160215Y-29049572D01*
X48116570Y-29075543D01*
X48098104Y-29096635D01*
X48087347Y-29123619D01*
X48098862Y-29147634D01*
X48134665Y-29171791D01*
X48196774Y-29199199D01*
X48206199Y-29202985D01*
X48262742Y-29227759D01*
X48311264Y-29252189D01*
X48342135Y-29271486D01*
X48373055Y-29305953D01*
X48393611Y-29360957D01*
X48391428Y-29419983D01*
X48367108Y-29475845D01*
X48321252Y-29521355D01*
X48284122Y-29540727D01*
X48212395Y-29554292D01*
X48172536Y-29552462D01*
X48135637Y-29542568D01*
X48121481Y-29521806D01*
X48126775Y-29487613D01*
X48128315Y-29483092D01*
X48140526Y-29459116D01*
X48160858Y-29450042D01*
X48199592Y-29450649D01*
X48226941Y-29451474D01*
X48258941Y-29444392D01*
X48280866Y-29423219D01*
X48293354Y-29397152D01*
X48294746Y-29369845D01*
X48294682Y-29369685D01*
X48278491Y-29354930D01*
X48243839Y-29333457D01*
X48199005Y-29309458D01*
X48152266Y-29287125D01*
X48111901Y-29270652D01*
X48086188Y-29264229D01*
X48082363Y-29270518D01*
X48077548Y-29300115D01*
X48074250Y-29348447D01*
X48073027Y-29409372D01*
X48072742Y-29451542D01*
X48071402Y-29504653D01*
X48069212Y-29541025D01*
X48066453Y-29554514D01*
X48052028Y-29549981D01*
X48022910Y-29537670D01*
X47985941Y-29520826D01*
X47985941Y-29304721D01*
X47986177Y-29249327D01*
X47988413Y-29165207D01*
X47994107Y-29102800D01*
X48004587Y-29057358D01*
X48021181Y-29024133D01*
X48045215Y-28998378D01*
X48078017Y-28975344D01*
X48119808Y-28956335D01*
X48196971Y-28944914D01*
X48232179Y-28946220D01*
G36*
X48232179Y-28946220D02*
G01*
X48263283Y-28954121D01*
X48292243Y-28973817D01*
X48329515Y-29010484D01*
X48353485Y-29036378D01*
X48378454Y-29069997D01*
X48389715Y-29101506D01*
X48392341Y-29141485D01*
X48392341Y-29206917D01*
X48347719Y-29183842D01*
X48312357Y-29155724D01*
X48288135Y-29117848D01*
X48283975Y-29107551D01*
X48252278Y-29067637D01*
X48208238Y-29047624D01*
X48160215Y-29049572D01*
X48116570Y-29075543D01*
X48098104Y-29096635D01*
X48087347Y-29123619D01*
X48098862Y-29147634D01*
X48134665Y-29171791D01*
X48196774Y-29199199D01*
X48206199Y-29202985D01*
X48262742Y-29227759D01*
X48311264Y-29252189D01*
X48342135Y-29271486D01*
X48373055Y-29305953D01*
X48393611Y-29360957D01*
X48391428Y-29419983D01*
X48367108Y-29475845D01*
X48321252Y-29521355D01*
X48284122Y-29540727D01*
X48212395Y-29554292D01*
X48172536Y-29552462D01*
X48135637Y-29542568D01*
X48121481Y-29521806D01*
X48126775Y-29487613D01*
X48128315Y-29483092D01*
X48140526Y-29459116D01*
X48160858Y-29450042D01*
X48199592Y-29450649D01*
X48226941Y-29451474D01*
X48258941Y-29444392D01*
X48280866Y-29423219D01*
X48293354Y-29397152D01*
X48294746Y-29369845D01*
X48294682Y-29369685D01*
X48278491Y-29354930D01*
X48243839Y-29333457D01*
X48199005Y-29309458D01*
X48152266Y-29287125D01*
X48111901Y-29270652D01*
X48086188Y-29264229D01*
X48082363Y-29270518D01*
X48077548Y-29300115D01*
X48074250Y-29348447D01*
X48073027Y-29409372D01*
X48072742Y-29451542D01*
X48071402Y-29504653D01*
X48069212Y-29541025D01*
X48066453Y-29554514D01*
X48052028Y-29549981D01*
X48022910Y-29537670D01*
X47985941Y-29520826D01*
X47985941Y-29304721D01*
X47986177Y-29249327D01*
X47988413Y-29165207D01*
X47994107Y-29102800D01*
X48004587Y-29057358D01*
X48021181Y-29024133D01*
X48045215Y-28998378D01*
X48078017Y-28975344D01*
X48119808Y-28956335D01*
X48196971Y-28944914D01*
X48232179Y-28946220D01*
G37*
X52974499Y-29301524D02*
X52975936Y-29413000D01*
X52976335Y-29445339D01*
X52977613Y-29553455D01*
X52977869Y-29636186D01*
X52976318Y-29696426D01*
X52972174Y-29737073D01*
X52964648Y-29761023D01*
X52952955Y-29771171D01*
X52936308Y-29770414D01*
X52913920Y-29761648D01*
X52885005Y-29747769D01*
X52878826Y-29744808D01*
X52853097Y-29730311D01*
X52839660Y-29713065D01*
X52834518Y-29684308D01*
X52833674Y-29635283D01*
X52833636Y-29547257D01*
X52742960Y-29547257D01*
X52687182Y-29544815D01*
X52643324Y-29534908D01*
X52606902Y-29514886D01*
X52604187Y-29512929D01*
X52567230Y-29479869D01*
X52541510Y-29439931D01*
X52525290Y-29387657D01*
X52516832Y-29317588D01*
X52514767Y-29238430D01*
X52659541Y-29238430D01*
X52659566Y-29251697D01*
X52660945Y-29311584D01*
X52665371Y-29350732D01*
X52674145Y-29376153D01*
X52688570Y-29394857D01*
X52689468Y-29395750D01*
X52724921Y-29419952D01*
X52759280Y-29417567D01*
X52798087Y-29388260D01*
X52807579Y-29378244D01*
X52821560Y-29357708D01*
X52829444Y-29330997D01*
X52832929Y-29290499D01*
X52833713Y-29228603D01*
X52833034Y-29191130D01*
X52825667Y-29122980D01*
X52808852Y-29078330D01*
X52780918Y-29053926D01*
X52740193Y-29046514D01*
X52723034Y-29048094D01*
X52693344Y-29063766D01*
X52673715Y-29098691D01*
X52662872Y-29155901D01*
X52659541Y-29238430D01*
X52514767Y-29238430D01*
X52514398Y-29224267D01*
X52514937Y-29156169D01*
X52517391Y-29104587D01*
X52522842Y-29068816D01*
X52532370Y-29042015D01*
X52547055Y-29017338D01*
X52560536Y-28998480D01*
X52609483Y-28947568D01*
X52664940Y-28919918D01*
X52734612Y-28911165D01*
X52814348Y-28919890D01*
X52883279Y-28951185D01*
X52937797Y-29006381D01*
X52941907Y-29012224D01*
X52951492Y-29027753D01*
X52958835Y-29045498D01*
X52964296Y-29069290D01*
X52968234Y-29102958D01*
X52971007Y-29150333D01*
X52972976Y-29215245D01*
X52973212Y-29228603D01*
X52974499Y-29301524D01*
G36*
X52974499Y-29301524D02*
G01*
X52975936Y-29413000D01*
X52976335Y-29445339D01*
X52977613Y-29553455D01*
X52977869Y-29636186D01*
X52976318Y-29696426D01*
X52972174Y-29737073D01*
X52964648Y-29761023D01*
X52952955Y-29771171D01*
X52936308Y-29770414D01*
X52913920Y-29761648D01*
X52885005Y-29747769D01*
X52878826Y-29744808D01*
X52853097Y-29730311D01*
X52839660Y-29713065D01*
X52834518Y-29684308D01*
X52833674Y-29635283D01*
X52833636Y-29547257D01*
X52742960Y-29547257D01*
X52687182Y-29544815D01*
X52643324Y-29534908D01*
X52606902Y-29514886D01*
X52604187Y-29512929D01*
X52567230Y-29479869D01*
X52541510Y-29439931D01*
X52525290Y-29387657D01*
X52516832Y-29317588D01*
X52514767Y-29238430D01*
X52659541Y-29238430D01*
X52659566Y-29251697D01*
X52660945Y-29311584D01*
X52665371Y-29350732D01*
X52674145Y-29376153D01*
X52688570Y-29394857D01*
X52689468Y-29395750D01*
X52724921Y-29419952D01*
X52759280Y-29417567D01*
X52798087Y-29388260D01*
X52807579Y-29378244D01*
X52821560Y-29357708D01*
X52829444Y-29330997D01*
X52832929Y-29290499D01*
X52833713Y-29228603D01*
X52833034Y-29191130D01*
X52825667Y-29122980D01*
X52808852Y-29078330D01*
X52780918Y-29053926D01*
X52740193Y-29046514D01*
X52723034Y-29048094D01*
X52693344Y-29063766D01*
X52673715Y-29098691D01*
X52662872Y-29155901D01*
X52659541Y-29238430D01*
X52514767Y-29238430D01*
X52514398Y-29224267D01*
X52514937Y-29156169D01*
X52517391Y-29104587D01*
X52522842Y-29068816D01*
X52532370Y-29042015D01*
X52547055Y-29017338D01*
X52560536Y-28998480D01*
X52609483Y-28947568D01*
X52664940Y-28919918D01*
X52734612Y-28911165D01*
X52814348Y-28919890D01*
X52883279Y-28951185D01*
X52937797Y-29006381D01*
X52941907Y-29012224D01*
X52951492Y-29027753D01*
X52958835Y-29045498D01*
X52964296Y-29069290D01*
X52968234Y-29102958D01*
X52971007Y-29150333D01*
X52972976Y-29215245D01*
X52973212Y-29228603D01*
X52974499Y-29301524D01*
G37*
X50354167Y-28960569D02*
X50404060Y-28989661D01*
X50426009Y-29012327D01*
X50468188Y-29080082D01*
X50482398Y-29153950D01*
X50482398Y-29204770D01*
X50435683Y-29185128D01*
X50403376Y-29165308D01*
X50377915Y-29124160D01*
X50375300Y-29115675D01*
X50347162Y-29072451D01*
X50304751Y-29049103D01*
X50256054Y-29048100D01*
X50209057Y-29071914D01*
X50202041Y-29078056D01*
X50178577Y-29104745D01*
X50174703Y-29128014D01*
X50192452Y-29150862D01*
X50233863Y-29176287D01*
X50300970Y-29207288D01*
X50305508Y-29209252D01*
X50380006Y-29243990D01*
X50430887Y-29274763D01*
X50462209Y-29305488D01*
X50478027Y-29340082D01*
X50482398Y-29382462D01*
X50476670Y-29429446D01*
X50447746Y-29489585D01*
X50396862Y-29532788D01*
X50360058Y-29545759D01*
X50308118Y-29552856D01*
X50257683Y-29551340D01*
X50221667Y-29540632D01*
X50217842Y-29537966D01*
X50207682Y-29519337D01*
X50214732Y-29486505D01*
X50226981Y-29460735D01*
X50246623Y-29450006D01*
X50283875Y-29450539D01*
X50335592Y-29447462D01*
X50369385Y-29426212D01*
X50380798Y-29386877D01*
X50380788Y-29385747D01*
X50373871Y-29362913D01*
X50350343Y-29341963D01*
X50304598Y-29317815D01*
X50242388Y-29288741D01*
X50201183Y-29272925D01*
X50177396Y-29273944D01*
X50166281Y-29294837D01*
X50163092Y-29338641D01*
X50163084Y-29408393D01*
X50162728Y-29451452D01*
X50161097Y-29504626D01*
X50158445Y-29541022D01*
X50155106Y-29554514D01*
X50154214Y-29554423D01*
X50134921Y-29547110D01*
X50102968Y-29531678D01*
X50058808Y-29508842D01*
X50064055Y-29303078D01*
X50064420Y-29289432D01*
X50068588Y-29193651D01*
X50075952Y-29121462D01*
X50088014Y-29068058D01*
X50106277Y-29028633D01*
X50132244Y-28998380D01*
X50167417Y-28972493D01*
X50168068Y-28972087D01*
X50224940Y-28950968D01*
X50290717Y-28947400D01*
X50354167Y-28960569D01*
G36*
X50354167Y-28960569D02*
G01*
X50404060Y-28989661D01*
X50426009Y-29012327D01*
X50468188Y-29080082D01*
X50482398Y-29153950D01*
X50482398Y-29204770D01*
X50435683Y-29185128D01*
X50403376Y-29165308D01*
X50377915Y-29124160D01*
X50375300Y-29115675D01*
X50347162Y-29072451D01*
X50304751Y-29049103D01*
X50256054Y-29048100D01*
X50209057Y-29071914D01*
X50202041Y-29078056D01*
X50178577Y-29104745D01*
X50174703Y-29128014D01*
X50192452Y-29150862D01*
X50233863Y-29176287D01*
X50300970Y-29207288D01*
X50305508Y-29209252D01*
X50380006Y-29243990D01*
X50430887Y-29274763D01*
X50462209Y-29305488D01*
X50478027Y-29340082D01*
X50482398Y-29382462D01*
X50476670Y-29429446D01*
X50447746Y-29489585D01*
X50396862Y-29532788D01*
X50360058Y-29545759D01*
X50308118Y-29552856D01*
X50257683Y-29551340D01*
X50221667Y-29540632D01*
X50217842Y-29537966D01*
X50207682Y-29519337D01*
X50214732Y-29486505D01*
X50226981Y-29460735D01*
X50246623Y-29450006D01*
X50283875Y-29450539D01*
X50335592Y-29447462D01*
X50369385Y-29426212D01*
X50380798Y-29386877D01*
X50380788Y-29385747D01*
X50373871Y-29362913D01*
X50350343Y-29341963D01*
X50304598Y-29317815D01*
X50242388Y-29288741D01*
X50201183Y-29272925D01*
X50177396Y-29273944D01*
X50166281Y-29294837D01*
X50163092Y-29338641D01*
X50163084Y-29408393D01*
X50162728Y-29451452D01*
X50161097Y-29504626D01*
X50158445Y-29541022D01*
X50155106Y-29554514D01*
X50154214Y-29554423D01*
X50134921Y-29547110D01*
X50102968Y-29531678D01*
X50058808Y-29508842D01*
X50064055Y-29303078D01*
X50064420Y-29289432D01*
X50068588Y-29193651D01*
X50075952Y-29121462D01*
X50088014Y-29068058D01*
X50106277Y-29028633D01*
X50132244Y-28998380D01*
X50167417Y-28972493D01*
X50168068Y-28972087D01*
X50224940Y-28950968D01*
X50290717Y-28947400D01*
X50354167Y-28960569D01*
G37*
X52426983Y-29194055D02*
X52422368Y-29304078D01*
X52419762Y-29327387D01*
X52400344Y-29410352D01*
X52365257Y-29473448D01*
X52311896Y-29521808D01*
X52308880Y-29523804D01*
X52241046Y-29552185D01*
X52170219Y-29554711D01*
X52101973Y-29533097D01*
X52041880Y-29489062D01*
X51995513Y-29424322D01*
X51994734Y-29422761D01*
X51979327Y-29382558D01*
X51968041Y-29336866D01*
X51962054Y-29293972D01*
X51962545Y-29262160D01*
X51970691Y-29249714D01*
X51977928Y-29250471D01*
X52012535Y-29264235D01*
X52051762Y-29289546D01*
X52085132Y-29318845D01*
X52102167Y-29344572D01*
X52119876Y-29379471D01*
X52156169Y-29411212D01*
X52198314Y-29423886D01*
X52213761Y-29420221D01*
X52244253Y-29401774D01*
X52270812Y-29376166D01*
X52282170Y-29352934D01*
X52282166Y-29352848D01*
X52269280Y-29342179D01*
X52234925Y-29322933D01*
X52184277Y-29297813D01*
X52122513Y-29269524D01*
X52122173Y-29269374D01*
X52055072Y-29239498D01*
X52010095Y-29217973D01*
X51982829Y-29201437D01*
X51968862Y-29186531D01*
X51963781Y-29169893D01*
X51963174Y-29148162D01*
X51967396Y-29107013D01*
X52110684Y-29107013D01*
X52125475Y-29119949D01*
X52162328Y-29139333D01*
X52163409Y-29139881D01*
X52206889Y-29160587D01*
X52245786Y-29177105D01*
X52270462Y-29184093D01*
X52280360Y-29174753D01*
X52282170Y-29142748D01*
X52274650Y-29102915D01*
X52248581Y-29066717D01*
X52210838Y-29047950D01*
X52168761Y-29049845D01*
X52129689Y-29075632D01*
X52114331Y-29093451D01*
X52110684Y-29107013D01*
X51967396Y-29107013D01*
X51968517Y-29096086D01*
X51994935Y-29025335D01*
X52039157Y-28969735D01*
X52096381Y-28931239D01*
X52161804Y-28911797D01*
X52230621Y-28913359D01*
X52298031Y-28937878D01*
X52359228Y-28987302D01*
X52393134Y-29036212D01*
X52417490Y-29106027D01*
X52421451Y-29142748D01*
X52426983Y-29194055D01*
G36*
X52426983Y-29194055D02*
G01*
X52422368Y-29304078D01*
X52419762Y-29327387D01*
X52400344Y-29410352D01*
X52365257Y-29473448D01*
X52311896Y-29521808D01*
X52308880Y-29523804D01*
X52241046Y-29552185D01*
X52170219Y-29554711D01*
X52101973Y-29533097D01*
X52041880Y-29489062D01*
X51995513Y-29424322D01*
X51994734Y-29422761D01*
X51979327Y-29382558D01*
X51968041Y-29336866D01*
X51962054Y-29293972D01*
X51962545Y-29262160D01*
X51970691Y-29249714D01*
X51977928Y-29250471D01*
X52012535Y-29264235D01*
X52051762Y-29289546D01*
X52085132Y-29318845D01*
X52102167Y-29344572D01*
X52119876Y-29379471D01*
X52156169Y-29411212D01*
X52198314Y-29423886D01*
X52213761Y-29420221D01*
X52244253Y-29401774D01*
X52270812Y-29376166D01*
X52282170Y-29352934D01*
X52282166Y-29352848D01*
X52269280Y-29342179D01*
X52234925Y-29322933D01*
X52184277Y-29297813D01*
X52122513Y-29269524D01*
X52122173Y-29269374D01*
X52055072Y-29239498D01*
X52010095Y-29217973D01*
X51982829Y-29201437D01*
X51968862Y-29186531D01*
X51963781Y-29169893D01*
X51963174Y-29148162D01*
X51967396Y-29107013D01*
X52110684Y-29107013D01*
X52125475Y-29119949D01*
X52162328Y-29139333D01*
X52163409Y-29139881D01*
X52206889Y-29160587D01*
X52245786Y-29177105D01*
X52270462Y-29184093D01*
X52280360Y-29174753D01*
X52282170Y-29142748D01*
X52274650Y-29102915D01*
X52248581Y-29066717D01*
X52210838Y-29047950D01*
X52168761Y-29049845D01*
X52129689Y-29075632D01*
X52114331Y-29093451D01*
X52110684Y-29107013D01*
X51967396Y-29107013D01*
X51968517Y-29096086D01*
X51994935Y-29025335D01*
X52039157Y-28969735D01*
X52096381Y-28931239D01*
X52161804Y-28911797D01*
X52230621Y-28913359D01*
X52298031Y-28937878D01*
X52359228Y-28987302D01*
X52393134Y-29036212D01*
X52417490Y-29106027D01*
X52421451Y-29142748D01*
X52426983Y-29194055D01*
G37*
X49495382Y-29249714D02*
X49494221Y-29306313D01*
X49486029Y-29383462D01*
X49468203Y-29441276D01*
X49438659Y-29485422D01*
X49395309Y-29521568D01*
X49354016Y-29542463D01*
X49284671Y-29554090D01*
X49215420Y-29541377D01*
X49152829Y-29505945D01*
X49103463Y-29449418D01*
X49097502Y-29438995D01*
X49089629Y-29420733D01*
X49083790Y-29397429D01*
X49079683Y-29365085D01*
X49077009Y-29319704D01*
X49075465Y-29257287D01*
X49075418Y-29251748D01*
X49176113Y-29251748D01*
X49176456Y-29304577D01*
X49178626Y-29352362D01*
X49183991Y-29383209D01*
X49193901Y-29403935D01*
X49209705Y-29421356D01*
X49213408Y-29424705D01*
X49260983Y-29449419D01*
X49311319Y-29446890D01*
X49358201Y-29417288D01*
X49372161Y-29401953D01*
X49383844Y-29381622D01*
X49390370Y-29353514D01*
X49393208Y-29310550D01*
X49393827Y-29245647D01*
X49393521Y-29196122D01*
X49391406Y-29147782D01*
X49386074Y-29116587D01*
X49376144Y-29095647D01*
X49360234Y-29078073D01*
X49350888Y-29070159D01*
X49302460Y-29048843D01*
X49251724Y-29052198D01*
X49207671Y-29080107D01*
X49198188Y-29091173D01*
X49186623Y-29112009D01*
X49179936Y-29141106D01*
X49176857Y-29185381D01*
X49176113Y-29251748D01*
X49075418Y-29251748D01*
X49074751Y-29173837D01*
X49074567Y-29065358D01*
X49074513Y-28728601D01*
X49121684Y-28748362D01*
X49134156Y-28753770D01*
X49154008Y-28765985D01*
X49165371Y-28784482D01*
X49171617Y-28816829D01*
X49176113Y-28870593D01*
X49180219Y-28918866D01*
X49185647Y-28950557D01*
X49193423Y-28962383D01*
X49205141Y-28959212D01*
X49235002Y-28948067D01*
X49288368Y-28945304D01*
X49345777Y-28955625D01*
X49395309Y-28977861D01*
X49422560Y-28998443D01*
X49457549Y-29038600D01*
X49479958Y-29090086D01*
X49491874Y-29158568D01*
X49495226Y-29245647D01*
X49495382Y-29249714D01*
G36*
X49495382Y-29249714D02*
G01*
X49494221Y-29306313D01*
X49486029Y-29383462D01*
X49468203Y-29441276D01*
X49438659Y-29485422D01*
X49395309Y-29521568D01*
X49354016Y-29542463D01*
X49284671Y-29554090D01*
X49215420Y-29541377D01*
X49152829Y-29505945D01*
X49103463Y-29449418D01*
X49097502Y-29438995D01*
X49089629Y-29420733D01*
X49083790Y-29397429D01*
X49079683Y-29365085D01*
X49077009Y-29319704D01*
X49075465Y-29257287D01*
X49075418Y-29251748D01*
X49176113Y-29251748D01*
X49176456Y-29304577D01*
X49178626Y-29352362D01*
X49183991Y-29383209D01*
X49193901Y-29403935D01*
X49209705Y-29421356D01*
X49213408Y-29424705D01*
X49260983Y-29449419D01*
X49311319Y-29446890D01*
X49358201Y-29417288D01*
X49372161Y-29401953D01*
X49383844Y-29381622D01*
X49390370Y-29353514D01*
X49393208Y-29310550D01*
X49393827Y-29245647D01*
X49393521Y-29196122D01*
X49391406Y-29147782D01*
X49386074Y-29116587D01*
X49376144Y-29095647D01*
X49360234Y-29078073D01*
X49350888Y-29070159D01*
X49302460Y-29048843D01*
X49251724Y-29052198D01*
X49207671Y-29080107D01*
X49198188Y-29091173D01*
X49186623Y-29112009D01*
X49179936Y-29141106D01*
X49176857Y-29185381D01*
X49176113Y-29251748D01*
X49075418Y-29251748D01*
X49074751Y-29173837D01*
X49074567Y-29065358D01*
X49074513Y-28728601D01*
X49121684Y-28748362D01*
X49134156Y-28753770D01*
X49154008Y-28765985D01*
X49165371Y-28784482D01*
X49171617Y-28816829D01*
X49176113Y-28870593D01*
X49180219Y-28918866D01*
X49185647Y-28950557D01*
X49193423Y-28962383D01*
X49205141Y-28959212D01*
X49235002Y-28948067D01*
X49288368Y-28945304D01*
X49345777Y-28955625D01*
X49395309Y-28977861D01*
X49422560Y-28998443D01*
X49457549Y-29038600D01*
X49479958Y-29090086D01*
X49491874Y-29158568D01*
X49495226Y-29245647D01*
X49495382Y-29249714D01*
G37*
X47405274Y-29252622D02*
X47404991Y-29291305D01*
X47401446Y-29367521D01*
X47392167Y-29423294D01*
X47375059Y-29464613D01*
X47348028Y-29497467D01*
X47308976Y-29527846D01*
X47284129Y-29541660D01*
X47244299Y-29550965D01*
X47188349Y-29550230D01*
X47157069Y-29547283D01*
X47119337Y-29538283D01*
X47089178Y-29518720D01*
X47054092Y-29482267D01*
X47049404Y-29476943D01*
X47017861Y-29435969D01*
X47002812Y-29400283D01*
X46998970Y-29357966D01*
X46998970Y-29295779D01*
X47042426Y-29312182D01*
X47074108Y-29331356D01*
X47101646Y-29376347D01*
X47107395Y-29390752D01*
X47139539Y-29431546D01*
X47183295Y-29452081D01*
X47230938Y-29450235D01*
X47274741Y-29423886D01*
X47289795Y-29407455D01*
X47303447Y-29382667D01*
X47299177Y-29360144D01*
X47274600Y-29336964D01*
X47227335Y-29310202D01*
X47154998Y-29276934D01*
X47006227Y-29211816D01*
X47002279Y-29147308D01*
X47003763Y-29106220D01*
X47100694Y-29106220D01*
X47108052Y-29131657D01*
X47141532Y-29158814D01*
X47202298Y-29189714D01*
X47212353Y-29194190D01*
X47260435Y-29215017D01*
X47296410Y-29229665D01*
X47313128Y-29235200D01*
X47315661Y-29231126D01*
X47316677Y-29206247D01*
X47313053Y-29166257D01*
X47303926Y-29127152D01*
X47275457Y-29077884D01*
X47234362Y-29050122D01*
X47185274Y-29046364D01*
X47132828Y-29069109D01*
X47118293Y-29080481D01*
X47100694Y-29106220D01*
X47003763Y-29106220D01*
X47004022Y-29099064D01*
X47025965Y-29038096D01*
X47053663Y-29004497D01*
X47111089Y-28966966D01*
X47179211Y-28948006D01*
X47249631Y-28949507D01*
X47313951Y-28973355D01*
X47328110Y-28982513D01*
X47360588Y-29010849D01*
X47382800Y-29046695D01*
X47396488Y-29095384D01*
X47403399Y-29162249D01*
X47404312Y-29206247D01*
X47405274Y-29252622D01*
G36*
X47405274Y-29252622D02*
G01*
X47404991Y-29291305D01*
X47401446Y-29367521D01*
X47392167Y-29423294D01*
X47375059Y-29464613D01*
X47348028Y-29497467D01*
X47308976Y-29527846D01*
X47284129Y-29541660D01*
X47244299Y-29550965D01*
X47188349Y-29550230D01*
X47157069Y-29547283D01*
X47119337Y-29538283D01*
X47089178Y-29518720D01*
X47054092Y-29482267D01*
X47049404Y-29476943D01*
X47017861Y-29435969D01*
X47002812Y-29400283D01*
X46998970Y-29357966D01*
X46998970Y-29295779D01*
X47042426Y-29312182D01*
X47074108Y-29331356D01*
X47101646Y-29376347D01*
X47107395Y-29390752D01*
X47139539Y-29431546D01*
X47183295Y-29452081D01*
X47230938Y-29450235D01*
X47274741Y-29423886D01*
X47289795Y-29407455D01*
X47303447Y-29382667D01*
X47299177Y-29360144D01*
X47274600Y-29336964D01*
X47227335Y-29310202D01*
X47154998Y-29276934D01*
X47006227Y-29211816D01*
X47002279Y-29147308D01*
X47003763Y-29106220D01*
X47100694Y-29106220D01*
X47108052Y-29131657D01*
X47141532Y-29158814D01*
X47202298Y-29189714D01*
X47212353Y-29194190D01*
X47260435Y-29215017D01*
X47296410Y-29229665D01*
X47313128Y-29235200D01*
X47315661Y-29231126D01*
X47316677Y-29206247D01*
X47313053Y-29166257D01*
X47303926Y-29127152D01*
X47275457Y-29077884D01*
X47234362Y-29050122D01*
X47185274Y-29046364D01*
X47132828Y-29069109D01*
X47118293Y-29080481D01*
X47100694Y-29106220D01*
X47003763Y-29106220D01*
X47004022Y-29099064D01*
X47025965Y-29038096D01*
X47053663Y-29004497D01*
X47111089Y-28966966D01*
X47179211Y-28948006D01*
X47249631Y-28949507D01*
X47313951Y-28973355D01*
X47328110Y-28982513D01*
X47360588Y-29010849D01*
X47382800Y-29046695D01*
X47396488Y-29095384D01*
X47403399Y-29162249D01*
X47404312Y-29206247D01*
X47405274Y-29252622D01*
G37*
X53530398Y-29235200D02*
X53530385Y-29250935D01*
X53529598Y-29321119D01*
X53526894Y-29370022D01*
X53521290Y-29404178D01*
X53511803Y-29430124D01*
X53497452Y-29454397D01*
X53493921Y-29459433D01*
X53456562Y-29499143D01*
X53413995Y-29529092D01*
X53392136Y-29538810D01*
X53313592Y-29555020D01*
X53235915Y-29544535D01*
X53164329Y-29508707D01*
X53104058Y-29448887D01*
X53098970Y-29440873D01*
X53082414Y-29394342D01*
X53071257Y-29329552D01*
X53065844Y-29254727D01*
X53066452Y-29185513D01*
X53212932Y-29185513D01*
X53214086Y-29281399D01*
X53214550Y-29287569D01*
X53221313Y-29340478D01*
X53233355Y-29374029D01*
X53253689Y-29397016D01*
X53287781Y-29418548D01*
X53321498Y-29419680D01*
X53356227Y-29394857D01*
X53362268Y-29388325D01*
X53374101Y-29368779D01*
X53381088Y-29340386D01*
X53384411Y-29296430D01*
X53385255Y-29230192D01*
X53383809Y-29168150D01*
X53376591Y-29109042D01*
X53361690Y-29071686D01*
X53337320Y-29052152D01*
X53301692Y-29046514D01*
X53288124Y-29047635D01*
X53250114Y-29068194D01*
X53224996Y-29114299D01*
X53212932Y-29185513D01*
X53066452Y-29185513D01*
X53066517Y-29178096D01*
X53073621Y-29107882D01*
X53087499Y-29052312D01*
X53105333Y-29015301D01*
X53155539Y-28957733D01*
X53223569Y-28921962D01*
X53306842Y-28909665D01*
X53329082Y-28910331D01*
X53394575Y-28923947D01*
X53448371Y-28958249D01*
X53497741Y-29017338D01*
X53500679Y-29021722D01*
X53513971Y-29045299D01*
X53522616Y-29071949D01*
X53527588Y-29108159D01*
X53529858Y-29160413D01*
X53530362Y-29230192D01*
X53530398Y-29235200D01*
G36*
X53530398Y-29235200D02*
G01*
X53530385Y-29250935D01*
X53529598Y-29321119D01*
X53526894Y-29370022D01*
X53521290Y-29404178D01*
X53511803Y-29430124D01*
X53497452Y-29454397D01*
X53493921Y-29459433D01*
X53456562Y-29499143D01*
X53413995Y-29529092D01*
X53392136Y-29538810D01*
X53313592Y-29555020D01*
X53235915Y-29544535D01*
X53164329Y-29508707D01*
X53104058Y-29448887D01*
X53098970Y-29440873D01*
X53082414Y-29394342D01*
X53071257Y-29329552D01*
X53065844Y-29254727D01*
X53066452Y-29185513D01*
X53212932Y-29185513D01*
X53214086Y-29281399D01*
X53214550Y-29287569D01*
X53221313Y-29340478D01*
X53233355Y-29374029D01*
X53253689Y-29397016D01*
X53287781Y-29418548D01*
X53321498Y-29419680D01*
X53356227Y-29394857D01*
X53362268Y-29388325D01*
X53374101Y-29368779D01*
X53381088Y-29340386D01*
X53384411Y-29296430D01*
X53385255Y-29230192D01*
X53383809Y-29168150D01*
X53376591Y-29109042D01*
X53361690Y-29071686D01*
X53337320Y-29052152D01*
X53301692Y-29046514D01*
X53288124Y-29047635D01*
X53250114Y-29068194D01*
X53224996Y-29114299D01*
X53212932Y-29185513D01*
X53066452Y-29185513D01*
X53066517Y-29178096D01*
X53073621Y-29107882D01*
X53087499Y-29052312D01*
X53105333Y-29015301D01*
X53155539Y-28957733D01*
X53223569Y-28921962D01*
X53306842Y-28909665D01*
X53329082Y-28910331D01*
X53394575Y-28923947D01*
X53448371Y-28958249D01*
X53497741Y-29017338D01*
X53500679Y-29021722D01*
X53513971Y-29045299D01*
X53522616Y-29071949D01*
X53527588Y-29108159D01*
X53529858Y-29160413D01*
X53530362Y-29230192D01*
X53530398Y-29235200D01*
G37*
X48918625Y-28949282D02*
X48950458Y-28961758D01*
X48987427Y-28978602D01*
X48987427Y-29465196D01*
X48941496Y-29511127D01*
X48931004Y-29521427D01*
X48901939Y-29544320D01*
X48872627Y-29551735D01*
X48829010Y-29548321D01*
X48811252Y-29546114D01*
X48765451Y-29541445D01*
X48733427Y-29539585D01*
X48723928Y-29539869D01*
X48684958Y-29542948D01*
X48637844Y-29548321D01*
X48622769Y-29550168D01*
X48584794Y-29550893D01*
X48557009Y-29539429D01*
X48525358Y-29511127D01*
X48479427Y-29465196D01*
X48479427Y-29205055D01*
X48479785Y-29128180D01*
X48480900Y-29054886D01*
X48482636Y-28996850D01*
X48484851Y-28958663D01*
X48487405Y-28944914D01*
X48487940Y-28944951D01*
X48506492Y-28951793D01*
X48537837Y-28966868D01*
X48580292Y-28988822D01*
X48584288Y-29217240D01*
X48588284Y-29445657D01*
X48675370Y-29445657D01*
X48679341Y-29195286D01*
X48680600Y-29127227D01*
X48682402Y-29054482D01*
X48684355Y-28996730D01*
X48686296Y-28958648D01*
X48688061Y-28944914D01*
X48688569Y-28944962D01*
X48706166Y-28950015D01*
X48738518Y-28960849D01*
X48784227Y-28976783D01*
X48784449Y-29196706D01*
X48784672Y-29234909D01*
X48786215Y-29309146D01*
X48788976Y-29371145D01*
X48792661Y-29415308D01*
X48796976Y-29436041D01*
X48812416Y-29447131D01*
X48843925Y-29450556D01*
X48878570Y-29445657D01*
X48882541Y-29195286D01*
X48883962Y-29131663D01*
X48886909Y-29056356D01*
X48890763Y-28997286D01*
X48895226Y-28958718D01*
X48900001Y-28944914D01*
X48918625Y-28949282D01*
G36*
X48918625Y-28949282D02*
G01*
X48950458Y-28961758D01*
X48987427Y-28978602D01*
X48987427Y-29465196D01*
X48941496Y-29511127D01*
X48931004Y-29521427D01*
X48901939Y-29544320D01*
X48872627Y-29551735D01*
X48829010Y-29548321D01*
X48811252Y-29546114D01*
X48765451Y-29541445D01*
X48733427Y-29539585D01*
X48723928Y-29539869D01*
X48684958Y-29542948D01*
X48637844Y-29548321D01*
X48622769Y-29550168D01*
X48584794Y-29550893D01*
X48557009Y-29539429D01*
X48525358Y-29511127D01*
X48479427Y-29465196D01*
X48479427Y-29205055D01*
X48479785Y-29128180D01*
X48480900Y-29054886D01*
X48482636Y-28996850D01*
X48484851Y-28958663D01*
X48487405Y-28944914D01*
X48487940Y-28944951D01*
X48506492Y-28951793D01*
X48537837Y-28966868D01*
X48580292Y-28988822D01*
X48584288Y-29217240D01*
X48588284Y-29445657D01*
X48675370Y-29445657D01*
X48679341Y-29195286D01*
X48680600Y-29127227D01*
X48682402Y-29054482D01*
X48684355Y-28996730D01*
X48686296Y-28958648D01*
X48688061Y-28944914D01*
X48688569Y-28944962D01*
X48706166Y-28950015D01*
X48738518Y-28960849D01*
X48784227Y-28976783D01*
X48784449Y-29196706D01*
X48784672Y-29234909D01*
X48786215Y-29309146D01*
X48788976Y-29371145D01*
X48792661Y-29415308D01*
X48796976Y-29436041D01*
X48812416Y-29447131D01*
X48843925Y-29450556D01*
X48878570Y-29445657D01*
X48882541Y-29195286D01*
X48883962Y-29131663D01*
X48886909Y-29056356D01*
X48890763Y-28997286D01*
X48895226Y-28958718D01*
X48900001Y-28944914D01*
X48918625Y-28949282D01*
G37*
X50943227Y-28749444D02*
X50990398Y-28769342D01*
X50990398Y-29166509D01*
X50990203Y-29269498D01*
X50989682Y-29362141D01*
X50988883Y-29440700D01*
X50987856Y-29501439D01*
X50986647Y-29540623D01*
X50985307Y-29554514D01*
X50984783Y-29554468D01*
X50966971Y-29549420D01*
X50934507Y-29538580D01*
X50888798Y-29522646D01*
X50888798Y-29318173D01*
X50888508Y-29237832D01*
X50887158Y-29179562D01*
X50884053Y-29139909D01*
X50878496Y-29113618D01*
X50869791Y-29095436D01*
X50857240Y-29080107D01*
X50848683Y-29071955D01*
X50802412Y-29049375D01*
X50751412Y-29051375D01*
X50704677Y-29078073D01*
X50697873Y-29084698D01*
X50686977Y-29098456D01*
X50679520Y-29116642D01*
X50674853Y-29144177D01*
X50672326Y-29185981D01*
X50671286Y-29246973D01*
X50671084Y-29332073D01*
X50670987Y-29375234D01*
X50670358Y-29446224D01*
X50669240Y-29503076D01*
X50667747Y-29540828D01*
X50665993Y-29554514D01*
X50665469Y-29554468D01*
X50647657Y-29549420D01*
X50615193Y-29538580D01*
X50569484Y-29522646D01*
X50569507Y-29317237D01*
X50569541Y-29298951D01*
X50571462Y-29203626D01*
X50577362Y-29131543D01*
X50588685Y-29077813D01*
X50606871Y-29037549D01*
X50633363Y-29005861D01*
X50669602Y-28977861D01*
X50704947Y-28960333D01*
X50761457Y-28946785D01*
X50817040Y-28946015D01*
X50859770Y-28959195D01*
X50862982Y-28961015D01*
X50872889Y-28960820D01*
X50879659Y-28945572D01*
X50884545Y-28910613D01*
X50888798Y-28851289D01*
X50896055Y-28729547D01*
X50943227Y-28749444D01*
G36*
X50943227Y-28749444D02*
G01*
X50990398Y-28769342D01*
X50990398Y-29166509D01*
X50990203Y-29269498D01*
X50989682Y-29362141D01*
X50988883Y-29440700D01*
X50987856Y-29501439D01*
X50986647Y-29540623D01*
X50985307Y-29554514D01*
X50984783Y-29554468D01*
X50966971Y-29549420D01*
X50934507Y-29538580D01*
X50888798Y-29522646D01*
X50888798Y-29318173D01*
X50888508Y-29237832D01*
X50887158Y-29179562D01*
X50884053Y-29139909D01*
X50878496Y-29113618D01*
X50869791Y-29095436D01*
X50857240Y-29080107D01*
X50848683Y-29071955D01*
X50802412Y-29049375D01*
X50751412Y-29051375D01*
X50704677Y-29078073D01*
X50697873Y-29084698D01*
X50686977Y-29098456D01*
X50679520Y-29116642D01*
X50674853Y-29144177D01*
X50672326Y-29185981D01*
X50671286Y-29246973D01*
X50671084Y-29332073D01*
X50670987Y-29375234D01*
X50670358Y-29446224D01*
X50669240Y-29503076D01*
X50667747Y-29540828D01*
X50665993Y-29554514D01*
X50665469Y-29554468D01*
X50647657Y-29549420D01*
X50615193Y-29538580D01*
X50569484Y-29522646D01*
X50569507Y-29317237D01*
X50569541Y-29298951D01*
X50571462Y-29203626D01*
X50577362Y-29131543D01*
X50588685Y-29077813D01*
X50606871Y-29037549D01*
X50633363Y-29005861D01*
X50669602Y-28977861D01*
X50704947Y-28960333D01*
X50761457Y-28946785D01*
X50817040Y-28946015D01*
X50859770Y-28959195D01*
X50862982Y-28961015D01*
X50872889Y-28960820D01*
X50879659Y-28945572D01*
X50884545Y-28910613D01*
X50888798Y-28851289D01*
X50896055Y-28729547D01*
X50943227Y-28749444D01*
G37*
X49872375Y-28966467D02*
X49876957Y-28969003D01*
X49914388Y-28998057D01*
X49947854Y-29035410D01*
X49953691Y-29043852D01*
X49964849Y-29063553D01*
X49972820Y-29086935D01*
X49978302Y-29119067D01*
X49981991Y-29165019D01*
X49984583Y-29229859D01*
X49986776Y-29318657D01*
X49987086Y-29333669D01*
X49988084Y-29430999D01*
X49986678Y-29499934D01*
X49982848Y-29540948D01*
X49976573Y-29554514D01*
X49957582Y-29550452D01*
X49925322Y-29538144D01*
X49917725Y-29534545D01*
X49905860Y-29526398D01*
X49897678Y-29513004D01*
X49892327Y-29489608D01*
X49888953Y-29451455D01*
X49886703Y-29393790D01*
X49884724Y-29311857D01*
X49884182Y-29287907D01*
X49882087Y-29212266D01*
X49879367Y-29159328D01*
X49875199Y-29124075D01*
X49868763Y-29101487D01*
X49859234Y-29086544D01*
X49845790Y-29074227D01*
X49805989Y-29052634D01*
X49757025Y-29048476D01*
X49713213Y-29064999D01*
X49681692Y-29099210D01*
X49669598Y-29148114D01*
X49669262Y-29161407D01*
X49662656Y-29185472D01*
X49643154Y-29189144D01*
X49604967Y-29174813D01*
X49596122Y-29170217D01*
X49572218Y-29143186D01*
X49571745Y-29102994D01*
X49594520Y-29047409D01*
X49615411Y-29017117D01*
X49668826Y-28974084D01*
X49734758Y-28949755D01*
X49805258Y-28946443D01*
X49872375Y-28966467D01*
G36*
X49872375Y-28966467D02*
G01*
X49876957Y-28969003D01*
X49914388Y-28998057D01*
X49947854Y-29035410D01*
X49953691Y-29043852D01*
X49964849Y-29063553D01*
X49972820Y-29086935D01*
X49978302Y-29119067D01*
X49981991Y-29165019D01*
X49984583Y-29229859D01*
X49986776Y-29318657D01*
X49987086Y-29333669D01*
X49988084Y-29430999D01*
X49986678Y-29499934D01*
X49982848Y-29540948D01*
X49976573Y-29554514D01*
X49957582Y-29550452D01*
X49925322Y-29538144D01*
X49917725Y-29534545D01*
X49905860Y-29526398D01*
X49897678Y-29513004D01*
X49892327Y-29489608D01*
X49888953Y-29451455D01*
X49886703Y-29393790D01*
X49884724Y-29311857D01*
X49884182Y-29287907D01*
X49882087Y-29212266D01*
X49879367Y-29159328D01*
X49875199Y-29124075D01*
X49868763Y-29101487D01*
X49859234Y-29086544D01*
X49845790Y-29074227D01*
X49805989Y-29052634D01*
X49757025Y-29048476D01*
X49713213Y-29064999D01*
X49681692Y-29099210D01*
X49669598Y-29148114D01*
X49669262Y-29161407D01*
X49662656Y-29185472D01*
X49643154Y-29189144D01*
X49604967Y-29174813D01*
X49596122Y-29170217D01*
X49572218Y-29143186D01*
X49571745Y-29102994D01*
X49594520Y-29047409D01*
X49615411Y-29017117D01*
X49668826Y-28974084D01*
X49734758Y-28949755D01*
X49805258Y-28946443D01*
X49872375Y-28966467D01*
G37*
X51695704Y-28917822D02*
X51763494Y-28949680D01*
X51819050Y-29004770D01*
X51830565Y-29022016D01*
X51840116Y-29041562D01*
X51846890Y-29066198D01*
X51851503Y-29100711D01*
X51854572Y-29149889D01*
X51856713Y-29218519D01*
X51858543Y-29311389D01*
X51863088Y-29569007D01*
X51824909Y-29554491D01*
X51789952Y-29541156D01*
X51763781Y-29528323D01*
X51746697Y-29511780D01*
X51736770Y-29486465D01*
X51732070Y-29447316D01*
X51730666Y-29389268D01*
X51730627Y-29307261D01*
X51730428Y-29241895D01*
X51729243Y-29179173D01*
X51726413Y-29136334D01*
X51721293Y-29108220D01*
X51713237Y-29089675D01*
X51701598Y-29075543D01*
X51672987Y-29055600D01*
X51624923Y-29048083D01*
X51577372Y-29067079D01*
X51574234Y-29069511D01*
X51564453Y-29080748D01*
X51557237Y-29098770D01*
X51551983Y-29128026D01*
X51548086Y-29172962D01*
X51544940Y-29238028D01*
X51541941Y-29327670D01*
X51534684Y-29567697D01*
X51472998Y-29540044D01*
X51411313Y-29512391D01*
X51411313Y-29293246D01*
X51411568Y-29233711D01*
X51413770Y-29150892D01*
X51419345Y-29089227D01*
X51429625Y-29043748D01*
X51445942Y-29009484D01*
X51469627Y-28981466D01*
X51502012Y-28954723D01*
X51548591Y-28927780D01*
X51621971Y-28910191D01*
X51695704Y-28917822D01*
G36*
X51695704Y-28917822D02*
G01*
X51763494Y-28949680D01*
X51819050Y-29004770D01*
X51830565Y-29022016D01*
X51840116Y-29041562D01*
X51846890Y-29066198D01*
X51851503Y-29100711D01*
X51854572Y-29149889D01*
X51856713Y-29218519D01*
X51858543Y-29311389D01*
X51863088Y-29569007D01*
X51824909Y-29554491D01*
X51789952Y-29541156D01*
X51763781Y-29528323D01*
X51746697Y-29511780D01*
X51736770Y-29486465D01*
X51732070Y-29447316D01*
X51730666Y-29389268D01*
X51730627Y-29307261D01*
X51730428Y-29241895D01*
X51729243Y-29179173D01*
X51726413Y-29136334D01*
X51721293Y-29108220D01*
X51713237Y-29089675D01*
X51701598Y-29075543D01*
X51672987Y-29055600D01*
X51624923Y-29048083D01*
X51577372Y-29067079D01*
X51574234Y-29069511D01*
X51564453Y-29080748D01*
X51557237Y-29098770D01*
X51551983Y-29128026D01*
X51548086Y-29172962D01*
X51544940Y-29238028D01*
X51541941Y-29327670D01*
X51534684Y-29567697D01*
X51472998Y-29540044D01*
X51411313Y-29512391D01*
X51411313Y-29293246D01*
X51411568Y-29233711D01*
X51413770Y-29150892D01*
X51419345Y-29089227D01*
X51429625Y-29043748D01*
X51445942Y-29009484D01*
X51469627Y-28981466D01*
X51502012Y-28954723D01*
X51548591Y-28927780D01*
X51621971Y-28910191D01*
X51695704Y-28917822D01*
G37*
X47747513Y-28951097D02*
X47807437Y-28973355D01*
X47832357Y-28990080D01*
X47857594Y-29014043D01*
X47875596Y-29044526D01*
X47887542Y-29086023D01*
X47894614Y-29143032D01*
X47897992Y-29220047D01*
X47898855Y-29321565D01*
X47898686Y-29374027D01*
X47897837Y-29445715D01*
X47896395Y-29502925D01*
X47894498Y-29540809D01*
X47892281Y-29554514D01*
X47877856Y-29549981D01*
X47848738Y-29537670D01*
X47847865Y-29537272D01*
X47832744Y-29529356D01*
X47822575Y-29518495D01*
X47816375Y-29499471D01*
X47813162Y-29467069D01*
X47811954Y-29416071D01*
X47811770Y-29341261D01*
X47811398Y-29293804D01*
X47807434Y-29204615D01*
X47798357Y-29139287D01*
X47783208Y-29094393D01*
X47761029Y-29066507D01*
X47730859Y-29052203D01*
X47726674Y-29051206D01*
X47670164Y-29050427D01*
X47626094Y-29075744D01*
X47595656Y-29126502D01*
X47590228Y-29141175D01*
X47577855Y-29173649D01*
X47571589Y-29188572D01*
X47558720Y-29186516D01*
X47530617Y-29175357D01*
X47504405Y-29156927D01*
X47492455Y-29122098D01*
X47496020Y-29097151D01*
X47517919Y-29046547D01*
X47553328Y-28999128D01*
X47594736Y-28966334D01*
X47612084Y-28958752D01*
X47677773Y-28946076D01*
X47747513Y-28951097D01*
G36*
X47747513Y-28951097D02*
G01*
X47807437Y-28973355D01*
X47832357Y-28990080D01*
X47857594Y-29014043D01*
X47875596Y-29044526D01*
X47887542Y-29086023D01*
X47894614Y-29143032D01*
X47897992Y-29220047D01*
X47898855Y-29321565D01*
X47898686Y-29374027D01*
X47897837Y-29445715D01*
X47896395Y-29502925D01*
X47894498Y-29540809D01*
X47892281Y-29554514D01*
X47877856Y-29549981D01*
X47848738Y-29537670D01*
X47847865Y-29537272D01*
X47832744Y-29529356D01*
X47822575Y-29518495D01*
X47816375Y-29499471D01*
X47813162Y-29467069D01*
X47811954Y-29416071D01*
X47811770Y-29341261D01*
X47811398Y-29293804D01*
X47807434Y-29204615D01*
X47798357Y-29139287D01*
X47783208Y-29094393D01*
X47761029Y-29066507D01*
X47730859Y-29052203D01*
X47726674Y-29051206D01*
X47670164Y-29050427D01*
X47626094Y-29075744D01*
X47595656Y-29126502D01*
X47590228Y-29141175D01*
X47577855Y-29173649D01*
X47571589Y-29188572D01*
X47558720Y-29186516D01*
X47530617Y-29175357D01*
X47504405Y-29156927D01*
X47492455Y-29122098D01*
X47496020Y-29097151D01*
X47517919Y-29046547D01*
X47553328Y-28999128D01*
X47594736Y-28966334D01*
X47612084Y-28958752D01*
X47677773Y-28946076D01*
X47747513Y-28951097D01*
G37*
%TD*%
M02*
