%TF.GenerationSoftware,KiCad,Pcbnew,9.0.2*%
%TF.CreationDate,2025-10-01T10:40:14+03:00*%
%TF.ProjectId,555_flip_flop,3535355f-666c-4697-905f-666c6f702e6b,rev?*%
%TF.SameCoordinates,Original*%
%TF.FileFunction,Copper,L2,Bot*%
%TF.FilePolarity,Positive*%
%FSLAX46Y46*%
G04 Gerber Fmt 4.6, Leading zero omitted, Abs format (unit mm)*
G04 Created by KiCad (PCBNEW 9.0.2) date 2025-10-01 10:40:14*
%MOMM*%
%LPD*%
G01*
G04 APERTURE LIST*
G04 Aperture macros list*
%AMRoundRect*
0 Rectangle with rounded corners*
0 $1 Rounding radius*
0 $2 $3 $4 $5 $6 $7 $8 $9 X,Y pos of 4 corners*
0 Add a 4 corners polygon primitive as box body*
4,1,4,$2,$3,$4,$5,$6,$7,$8,$9,$2,$3,0*
0 Add four circle primitives for the rounded corners*
1,1,$1+$1,$2,$3*
1,1,$1+$1,$4,$5*
1,1,$1+$1,$6,$7*
1,1,$1+$1,$8,$9*
0 Add four rect primitives between the rounded corners*
20,1,$1+$1,$2,$3,$4,$5,0*
20,1,$1+$1,$4,$5,$6,$7,0*
20,1,$1+$1,$6,$7,$8,$9,0*
20,1,$1+$1,$8,$9,$2,$3,0*%
G04 Aperture macros list end*
%TA.AperFunction,ComponentPad*%
%ADD10C,1.400000*%
%TD*%
%TA.AperFunction,ComponentPad*%
%ADD11R,1.800000X1.800000*%
%TD*%
%TA.AperFunction,ComponentPad*%
%ADD12C,1.800000*%
%TD*%
%TA.AperFunction,ComponentPad*%
%ADD13RoundRect,0.250000X-0.950000X-0.550000X0.950000X-0.550000X0.950000X0.550000X-0.950000X0.550000X0*%
%TD*%
%TA.AperFunction,ComponentPad*%
%ADD14O,2.400000X1.600000*%
%TD*%
%TA.AperFunction,ComponentPad*%
%ADD15RoundRect,0.250000X0.620000X0.845000X-0.620000X0.845000X-0.620000X-0.845000X0.620000X-0.845000X0*%
%TD*%
%TA.AperFunction,ComponentPad*%
%ADD16O,1.740000X2.190000*%
%TD*%
%TA.AperFunction,ComponentPad*%
%ADD17C,1.600000*%
%TD*%
%TA.AperFunction,ComponentPad*%
%ADD18RoundRect,0.250000X-0.550000X-0.550000X0.550000X-0.550000X0.550000X0.550000X-0.550000X0.550000X0*%
%TD*%
%TA.AperFunction,ViaPad*%
%ADD19C,0.600000*%
%TD*%
%TA.AperFunction,Conductor*%
%ADD20C,0.500000*%
%TD*%
G04 APERTURE END LIST*
D10*
%TO.P,R2,1*%
%TO.N,Net-(D2-K)*%
X60120000Y-35250000D03*
%TO.P,R2,2*%
%TO.N,GND*%
X65200000Y-35250000D03*
%TD*%
%TO.P,R1,1*%
%TO.N,+5V*%
X60120000Y-31100000D03*
%TO.P,R1,2*%
%TO.N,Net-(D1-A)*%
X65200000Y-31100000D03*
%TD*%
D11*
%TO.P,D2,1,K*%
%TO.N,Net-(D2-K)*%
X62460000Y-40500000D03*
D12*
%TO.P,D2,2,A*%
%TO.N,Net-(D1-K)*%
X65000000Y-40500000D03*
%TD*%
D13*
%TO.P,U1,1,GND*%
%TO.N,GND*%
X49690000Y-29690000D03*
D14*
%TO.P,U1,2,TR*%
%TO.N,Net-(U1-THR)*%
X49690000Y-32230000D03*
%TO.P,U1,3,Q*%
%TO.N,Net-(D1-K)*%
X49690000Y-34770000D03*
%TO.P,U1,4,R*%
%TO.N,+5V*%
X49690000Y-37310000D03*
%TO.P,U1,5,CV*%
%TO.N,Net-(U1-CV)*%
X57310000Y-37310000D03*
%TO.P,U1,6,THR*%
%TO.N,Net-(U1-THR)*%
X57310000Y-34770000D03*
%TO.P,U1,7,DIS*%
%TO.N,Net-(U1-DIS)*%
X57310000Y-32230000D03*
%TO.P,U1,8,VCC*%
%TO.N,+5V*%
X57310000Y-29690000D03*
%TD*%
D10*
%TO.P,R4,1*%
%TO.N,Net-(U1-DIS)*%
X52040000Y-25250000D03*
%TO.P,R4,2*%
%TO.N,Net-(U1-THR)*%
X46960000Y-25250000D03*
%TD*%
%TO.P,R3,1*%
%TO.N,+5V*%
X59540000Y-25250000D03*
%TO.P,R3,2*%
%TO.N,Net-(U1-DIS)*%
X54460000Y-25250000D03*
%TD*%
D15*
%TO.P,J1,1,Pin_1*%
%TO.N,+5V*%
X49540000Y-42980000D03*
D16*
%TO.P,J1,2,Pin_2*%
%TO.N,GND*%
X47000000Y-42980000D03*
%TD*%
D11*
%TO.P,D1,1,K*%
%TO.N,Net-(D1-K)*%
X62460000Y-26410000D03*
D12*
%TO.P,D1,2,A*%
%TO.N,Net-(D1-A)*%
X65000000Y-26410000D03*
%TD*%
D17*
%TO.P,C2,1*%
%TO.N,Net-(U1-CV)*%
X46470000Y-33000000D03*
%TO.P,C2,2*%
%TO.N,GND*%
X46470000Y-30500000D03*
%TD*%
D18*
%TO.P,C1,1*%
%TO.N,Net-(U1-THR)*%
X56000000Y-43000000D03*
D17*
%TO.P,C1,2*%
%TO.N,GND*%
X58500000Y-43000000D03*
%TD*%
D19*
%TO.N,Net-(D1-K)*%
X54250000Y-38000000D03*
%TD*%
D20*
%TO.N,Net-(D1-K)*%
X62750000Y-42750000D02*
X65000000Y-40500000D01*
X58250000Y-40000000D02*
X61000000Y-42750000D01*
X61000000Y-42750000D02*
X62750000Y-42750000D01*
X56250000Y-40000000D02*
X58250000Y-40000000D01*
X54250000Y-38000000D02*
X56250000Y-40000000D01*
%TO.N,Net-(U1-THR)*%
X55230000Y-34770000D02*
X57310000Y-34770000D01*
X52500000Y-37500000D02*
X55230000Y-34770000D01*
X52500000Y-39500000D02*
X52500000Y-37500000D01*
X56000000Y-43000000D02*
X52500000Y-39500000D01*
%TO.N,Net-(D1-K)*%
X62460000Y-37960000D02*
X62460000Y-26410000D01*
X65000000Y-40500000D02*
X62460000Y-37960000D01*
%TO.N,Net-(D2-K)*%
X60120000Y-38160000D02*
X62460000Y-40500000D01*
X60120000Y-35250000D02*
X60120000Y-38160000D01*
%TO.N,+5V*%
X60120000Y-27972164D02*
X59573918Y-27426082D01*
X60120000Y-31100000D02*
X60120000Y-27972164D01*
%TO.N,Net-(D1-A)*%
X65000000Y-30900000D02*
X65200000Y-31100000D01*
X65000000Y-26410000D02*
X65000000Y-30900000D01*
%TO.N,Net-(U1-THR)*%
X51020000Y-32230000D02*
X49690000Y-32230000D01*
X52250000Y-31000000D02*
X51020000Y-32230000D01*
X52250000Y-29250000D02*
X52250000Y-31000000D01*
X48250000Y-25250000D02*
X52250000Y-29250000D01*
X46960000Y-25250000D02*
X48250000Y-25250000D01*
%TO.N,Net-(U1-DIS)*%
X52040000Y-25250000D02*
X54460000Y-25250000D01*
%TO.N,+5V*%
X59573918Y-27426082D02*
X59573918Y-25283918D01*
X57310000Y-29690000D02*
X59573918Y-27426082D01*
X59573918Y-25283918D02*
X59540000Y-25250000D01*
X49690000Y-37310000D02*
X57310000Y-29690000D01*
X49540000Y-37460000D02*
X49690000Y-37310000D01*
X49540000Y-42980000D02*
X49540000Y-37460000D01*
%TD*%
%TA.AperFunction,Conductor*%
%TO.N,GND*%
G36*
X47975203Y-30371823D02*
G01*
X48011706Y-30426532D01*
X48055641Y-30559119D01*
X48055643Y-30559124D01*
X48147684Y-30708345D01*
X48271654Y-30832315D01*
X48420875Y-30924356D01*
X48420882Y-30924359D01*
X48503067Y-30951592D01*
X48560512Y-30991364D01*
X48587336Y-31055880D01*
X48575021Y-31124656D01*
X48536949Y-31169616D01*
X48442787Y-31238028D01*
X48442782Y-31238032D01*
X48298028Y-31382786D01*
X48177715Y-31548386D01*
X48084781Y-31730776D01*
X48021522Y-31925465D01*
X47989500Y-32127648D01*
X47989500Y-32332351D01*
X48021522Y-32534534D01*
X48084781Y-32729223D01*
X48177715Y-32911613D01*
X48298028Y-33077213D01*
X48442786Y-33221971D01*
X48556427Y-33304534D01*
X48608390Y-33342287D01*
X48699840Y-33388883D01*
X48701080Y-33389515D01*
X48751876Y-33437490D01*
X48768671Y-33505311D01*
X48746134Y-33571446D01*
X48701080Y-33610485D01*
X48608386Y-33657715D01*
X48442786Y-33778028D01*
X48298028Y-33922786D01*
X48177715Y-34088386D01*
X48084781Y-34270776D01*
X48021522Y-34465465D01*
X47989500Y-34667648D01*
X47989500Y-34872351D01*
X48021522Y-35074534D01*
X48084781Y-35269223D01*
X48177715Y-35451613D01*
X48298028Y-35617213D01*
X48442786Y-35761971D01*
X48597749Y-35874556D01*
X48608390Y-35882287D01*
X48662048Y-35909627D01*
X48701080Y-35929515D01*
X48751876Y-35977490D01*
X48768671Y-36045311D01*
X48746134Y-36111446D01*
X48701080Y-36150485D01*
X48608386Y-36197715D01*
X48442786Y-36318028D01*
X48298028Y-36462786D01*
X48177715Y-36628386D01*
X48084781Y-36810776D01*
X48021522Y-37005465D01*
X47989500Y-37207648D01*
X47989500Y-37412351D01*
X48021522Y-37614534D01*
X48084781Y-37809223D01*
X48177715Y-37991613D01*
X48298028Y-38157213D01*
X48442786Y-38301971D01*
X48608388Y-38422286D01*
X48721794Y-38480069D01*
X48772591Y-38528043D01*
X48789500Y-38590554D01*
X48789500Y-41298071D01*
X48769815Y-41365110D01*
X48717011Y-41410865D01*
X48704505Y-41415777D01*
X48600666Y-41450186D01*
X48600663Y-41450187D01*
X48451342Y-41542289D01*
X48327289Y-41666342D01*
X48235182Y-41815672D01*
X48234638Y-41816840D01*
X48234051Y-41817505D01*
X48231395Y-41821813D01*
X48230658Y-41821358D01*
X48188461Y-41869275D01*
X48121266Y-41888422D01*
X48054387Y-41868201D01*
X48034579Y-41852107D01*
X47892497Y-41710025D01*
X47718036Y-41583271D01*
X47525899Y-41485372D01*
X47320805Y-41418733D01*
X47250000Y-41407518D01*
X47250000Y-42437290D01*
X47229661Y-42425548D01*
X47078333Y-42385000D01*
X46921667Y-42385000D01*
X46770339Y-42425548D01*
X46750000Y-42437290D01*
X46750000Y-41407518D01*
X46749999Y-41407518D01*
X46679194Y-41418733D01*
X46474100Y-41485372D01*
X46281963Y-41583271D01*
X46107503Y-41710025D01*
X46107502Y-41710025D01*
X45955025Y-41862502D01*
X45955025Y-41862503D01*
X45828271Y-42036963D01*
X45730372Y-42229098D01*
X45663734Y-42434190D01*
X45630000Y-42647179D01*
X45630000Y-42730000D01*
X46457291Y-42730000D01*
X46445548Y-42750339D01*
X46405000Y-42901667D01*
X46405000Y-43058333D01*
X46445548Y-43209661D01*
X46457291Y-43230000D01*
X45630000Y-43230000D01*
X45630000Y-43312820D01*
X45663734Y-43525809D01*
X45730372Y-43730901D01*
X45828271Y-43923036D01*
X45955025Y-44097496D01*
X45955025Y-44097497D01*
X46107502Y-44249974D01*
X46281963Y-44376728D01*
X46474098Y-44474627D01*
X46679190Y-44541266D01*
X46750000Y-44552481D01*
X46750000Y-43522709D01*
X46770339Y-43534452D01*
X46921667Y-43575000D01*
X47078333Y-43575000D01*
X47229661Y-43534452D01*
X47250000Y-43522709D01*
X47250000Y-44552480D01*
X47320809Y-44541266D01*
X47525901Y-44474627D01*
X47718036Y-44376728D01*
X47892493Y-44249977D01*
X48034578Y-44107892D01*
X48095901Y-44074407D01*
X48165593Y-44079391D01*
X48221527Y-44121262D01*
X48234640Y-44143165D01*
X48235181Y-44144325D01*
X48235185Y-44144331D01*
X48235186Y-44144334D01*
X48327288Y-44293656D01*
X48451344Y-44417712D01*
X48600666Y-44509814D01*
X48767203Y-44564999D01*
X48869991Y-44575500D01*
X50210008Y-44575499D01*
X50312797Y-44564999D01*
X50479334Y-44509814D01*
X50628656Y-44417712D01*
X50752712Y-44293656D01*
X50844814Y-44144334D01*
X50899999Y-43977797D01*
X50910500Y-43875009D01*
X50910499Y-42084992D01*
X50899999Y-41982203D01*
X50844814Y-41815666D01*
X50752712Y-41666344D01*
X50628656Y-41542288D01*
X50479334Y-41450186D01*
X50375495Y-41415777D01*
X50318051Y-41376004D01*
X50291228Y-41311488D01*
X50290500Y-41298071D01*
X50290500Y-38700860D01*
X50310185Y-38633821D01*
X50362989Y-38588066D01*
X50389886Y-38579959D01*
X50389803Y-38579613D01*
X50394528Y-38578477D01*
X50394534Y-38578477D01*
X50589219Y-38515220D01*
X50771610Y-38422287D01*
X50918598Y-38315495D01*
X50937213Y-38301971D01*
X50937215Y-38301968D01*
X50937219Y-38301966D01*
X51081966Y-38157219D01*
X51081968Y-38157215D01*
X51081971Y-38157213D01*
X51171547Y-38033920D01*
X51202287Y-37991610D01*
X51295220Y-37809219D01*
X51358477Y-37614534D01*
X51390500Y-37412352D01*
X51390500Y-37207648D01*
X51358477Y-37005466D01*
X51352879Y-36988238D01*
X51307755Y-36849361D01*
X51305760Y-36779519D01*
X51338003Y-36723363D01*
X55470316Y-32591049D01*
X55531637Y-32557566D01*
X55601329Y-32562550D01*
X55657262Y-32604422D01*
X55675924Y-32640411D01*
X55704780Y-32729219D01*
X55772530Y-32862186D01*
X55797715Y-32911613D01*
X55918028Y-33077213D01*
X56062786Y-33221971D01*
X56176427Y-33304534D01*
X56228390Y-33342287D01*
X56319840Y-33388883D01*
X56321080Y-33389515D01*
X56371876Y-33437490D01*
X56388671Y-33505311D01*
X56366134Y-33571446D01*
X56321080Y-33610485D01*
X56228386Y-33657715D01*
X56062786Y-33778028D01*
X55918032Y-33922782D01*
X55918028Y-33922787D01*
X55884900Y-33968385D01*
X55829571Y-34011051D01*
X55784582Y-34019500D01*
X55156080Y-34019500D01*
X55011092Y-34048340D01*
X55011082Y-34048343D01*
X54874511Y-34104912D01*
X54874498Y-34104919D01*
X54825811Y-34137452D01*
X54825810Y-34137453D01*
X54751582Y-34187049D01*
X51917048Y-37021583D01*
X51899844Y-37047333D01*
X51899843Y-37047334D01*
X51834913Y-37144508D01*
X51778343Y-37281082D01*
X51778340Y-37281092D01*
X51749500Y-37426079D01*
X51749500Y-37426082D01*
X51749500Y-39573918D01*
X51749500Y-39573920D01*
X51749499Y-39573920D01*
X51778340Y-39718907D01*
X51778343Y-39718917D01*
X51834913Y-39855490D01*
X51834914Y-39855492D01*
X51860706Y-39894092D01*
X51860707Y-39894094D01*
X51917043Y-39978410D01*
X51917047Y-39978415D01*
X51917048Y-39978416D01*
X53303742Y-41365110D01*
X54663181Y-42724548D01*
X54696666Y-42785871D01*
X54699500Y-42812229D01*
X54699500Y-43600001D01*
X54699501Y-43600019D01*
X54710000Y-43702796D01*
X54710001Y-43702799D01*
X54765185Y-43869331D01*
X54765187Y-43869336D01*
X54798309Y-43923036D01*
X54857288Y-44018656D01*
X54981344Y-44142712D01*
X55130666Y-44234814D01*
X55297203Y-44289999D01*
X55399991Y-44300500D01*
X56600008Y-44300499D01*
X56702797Y-44289999D01*
X56869334Y-44234814D01*
X57018656Y-44142712D01*
X57142712Y-44018656D01*
X57234814Y-43869334D01*
X57258102Y-43799054D01*
X57262110Y-43791050D01*
X57280060Y-43771772D01*
X57295055Y-43750116D01*
X57303495Y-43746606D01*
X57309725Y-43739917D01*
X57335249Y-43733404D01*
X57359571Y-43723292D01*
X57375834Y-43723048D01*
X57377425Y-43722643D01*
X57378523Y-43723008D01*
X57382719Y-43722946D01*
X57420525Y-43725921D01*
X58100000Y-43046446D01*
X58100000Y-43052661D01*
X58127259Y-43154394D01*
X58179920Y-43245606D01*
X58254394Y-43320080D01*
X58345606Y-43372741D01*
X58447339Y-43400000D01*
X58453553Y-43400000D01*
X57774076Y-44079474D01*
X57818650Y-44111859D01*
X58000968Y-44204755D01*
X58195582Y-44267990D01*
X58397683Y-44300000D01*
X58602317Y-44300000D01*
X58804417Y-44267990D01*
X58999031Y-44204755D01*
X59181349Y-44111859D01*
X59225921Y-44079474D01*
X58546447Y-43400000D01*
X58552661Y-43400000D01*
X58654394Y-43372741D01*
X58745606Y-43320080D01*
X58820080Y-43245606D01*
X58872741Y-43154394D01*
X58900000Y-43052661D01*
X58900000Y-43046446D01*
X59579474Y-43725921D01*
X59611859Y-43681349D01*
X59704755Y-43499031D01*
X59767990Y-43304417D01*
X59800000Y-43102317D01*
X59800000Y-42910729D01*
X59819685Y-42843690D01*
X59872489Y-42797935D01*
X59941647Y-42787991D01*
X60005203Y-42817016D01*
X60011678Y-42823045D01*
X60417049Y-43228416D01*
X60493050Y-43304417D01*
X60521585Y-43332952D01*
X60644498Y-43415080D01*
X60644511Y-43415087D01*
X60743570Y-43456118D01*
X60781087Y-43471658D01*
X60781091Y-43471658D01*
X60781092Y-43471659D01*
X60926079Y-43500500D01*
X60926082Y-43500500D01*
X62823920Y-43500500D01*
X62921462Y-43481096D01*
X62968913Y-43471658D01*
X63105495Y-43415084D01*
X63154729Y-43382186D01*
X63228416Y-43332952D01*
X64647492Y-41913874D01*
X64708813Y-41880391D01*
X64754565Y-41879084D01*
X64889778Y-41900500D01*
X64889780Y-41900500D01*
X65110221Y-41900500D01*
X65110222Y-41900500D01*
X65327951Y-41866015D01*
X65537606Y-41797895D01*
X65734022Y-41697815D01*
X65912365Y-41568242D01*
X66037819Y-41442788D01*
X66099142Y-41409303D01*
X66168834Y-41414287D01*
X66224767Y-41456159D01*
X66249184Y-41521623D01*
X66249500Y-41530469D01*
X66249500Y-46375500D01*
X66229815Y-46442539D01*
X66177011Y-46488294D01*
X66125500Y-46499500D01*
X45374500Y-46499500D01*
X45307461Y-46479815D01*
X45261706Y-46427011D01*
X45250500Y-46375500D01*
X45250500Y-33915678D01*
X45270185Y-33848639D01*
X45322989Y-33802884D01*
X45392147Y-33792940D01*
X45455703Y-33821965D01*
X45474822Y-33842798D01*
X45478032Y-33847217D01*
X45622786Y-33991971D01*
X45743328Y-34079548D01*
X45788390Y-34112287D01*
X45904607Y-34171503D01*
X45970776Y-34205218D01*
X45970778Y-34205218D01*
X45970781Y-34205220D01*
X46075137Y-34239127D01*
X46165465Y-34268477D01*
X46266557Y-34284488D01*
X46367648Y-34300500D01*
X46367649Y-34300500D01*
X46572351Y-34300500D01*
X46572352Y-34300500D01*
X46774534Y-34268477D01*
X46969219Y-34205220D01*
X47151610Y-34112287D01*
X47244590Y-34044732D01*
X47317213Y-33991971D01*
X47317215Y-33991968D01*
X47317219Y-33991966D01*
X47461966Y-33847219D01*
X47461968Y-33847215D01*
X47461971Y-33847213D01*
X47514732Y-33774590D01*
X47582287Y-33681610D01*
X47675220Y-33499219D01*
X47738477Y-33304534D01*
X47770500Y-33102352D01*
X47770500Y-32897648D01*
X47738477Y-32695466D01*
X47675220Y-32500781D01*
X47675218Y-32500778D01*
X47675218Y-32500776D01*
X47641503Y-32434607D01*
X47582287Y-32318390D01*
X47547813Y-32270940D01*
X47461971Y-32152786D01*
X47317213Y-32008028D01*
X47151611Y-31887713D01*
X47097621Y-31860203D01*
X47046825Y-31812228D01*
X47030031Y-31744407D01*
X47052569Y-31678272D01*
X47097624Y-31639233D01*
X47151349Y-31611859D01*
X47195921Y-31579474D01*
X46516447Y-30900000D01*
X46522661Y-30900000D01*
X46624394Y-30872741D01*
X46715606Y-30820080D01*
X46790080Y-30745606D01*
X46842741Y-30654394D01*
X46870000Y-30552661D01*
X46870000Y-30546447D01*
X47549474Y-31225921D01*
X47581859Y-31181349D01*
X47674755Y-30999031D01*
X47737990Y-30804417D01*
X47770000Y-30602317D01*
X47770000Y-30465536D01*
X47789685Y-30398497D01*
X47842489Y-30352742D01*
X47911647Y-30342798D01*
X47975203Y-30371823D01*
G37*
%TD.AperFunction*%
%TA.AperFunction,Conductor*%
G36*
X53455703Y-38208477D02*
G01*
X53489061Y-38254738D01*
X53540602Y-38379172D01*
X53540609Y-38379185D01*
X53628210Y-38510288D01*
X53628213Y-38510292D01*
X53739710Y-38621789D01*
X53858049Y-38700860D01*
X53870821Y-38709394D01*
X53894475Y-38719191D01*
X53934703Y-38746071D01*
X55667049Y-40478416D01*
X55771584Y-40582951D01*
X55771585Y-40582952D01*
X55894498Y-40665080D01*
X55894511Y-40665087D01*
X56031082Y-40721656D01*
X56031087Y-40721658D01*
X56031091Y-40721658D01*
X56031092Y-40721659D01*
X56176079Y-40750500D01*
X56176082Y-40750500D01*
X56176083Y-40750500D01*
X56323917Y-40750500D01*
X57887770Y-40750500D01*
X57954809Y-40770185D01*
X57975451Y-40786819D01*
X58676951Y-41488319D01*
X58710436Y-41549642D01*
X58705452Y-41619334D01*
X58663580Y-41675267D01*
X58598116Y-41699684D01*
X58589270Y-41700000D01*
X58397683Y-41700000D01*
X58195582Y-41732009D01*
X58000968Y-41795244D01*
X57818644Y-41888143D01*
X57774077Y-41920523D01*
X57774077Y-41920524D01*
X58453554Y-42600000D01*
X58447339Y-42600000D01*
X58345606Y-42627259D01*
X58254394Y-42679920D01*
X58179920Y-42754394D01*
X58127259Y-42845606D01*
X58100000Y-42947339D01*
X58100000Y-42953553D01*
X57420524Y-42274077D01*
X57382719Y-42277053D01*
X57314341Y-42262689D01*
X57264584Y-42213638D01*
X57255285Y-42192444D01*
X57234814Y-42130666D01*
X57142712Y-41981344D01*
X57018656Y-41857288D01*
X56869334Y-41765186D01*
X56702797Y-41710001D01*
X56702795Y-41710000D01*
X56600016Y-41699500D01*
X56600009Y-41699500D01*
X55812229Y-41699500D01*
X55745190Y-41679815D01*
X55724548Y-41663181D01*
X53286819Y-39225451D01*
X53253334Y-39164128D01*
X53250500Y-39137770D01*
X53250500Y-38302190D01*
X53270185Y-38235151D01*
X53322989Y-38189396D01*
X53392147Y-38179452D01*
X53455703Y-38208477D01*
G37*
%TD.AperFunction*%
%TA.AperFunction,Conductor*%
G36*
X63969177Y-27398211D02*
G01*
X63997892Y-27401465D01*
X64005693Y-27406154D01*
X64009209Y-27406919D01*
X64018350Y-27413762D01*
X64028142Y-27419648D01*
X64033010Y-27423617D01*
X64087635Y-27478242D01*
X64201191Y-27560745D01*
X64203859Y-27562920D01*
X64221746Y-27589000D01*
X64241051Y-27614035D01*
X64241356Y-27617594D01*
X64243377Y-27620540D01*
X64249500Y-27659024D01*
X64249500Y-30325548D01*
X64229815Y-30392587D01*
X64225818Y-30398434D01*
X64173240Y-30470800D01*
X64087454Y-30639163D01*
X64029059Y-30818881D01*
X63999500Y-31005513D01*
X63999500Y-31194486D01*
X64029059Y-31381118D01*
X64087454Y-31560836D01*
X64173240Y-31729199D01*
X64284310Y-31882073D01*
X64417927Y-32015690D01*
X64570801Y-32126760D01*
X64621880Y-32152786D01*
X64739163Y-32212545D01*
X64739165Y-32212545D01*
X64739168Y-32212547D01*
X64835497Y-32243846D01*
X64918881Y-32270940D01*
X65105514Y-32300500D01*
X65105519Y-32300500D01*
X65294486Y-32300500D01*
X65481118Y-32270940D01*
X65660832Y-32212547D01*
X65829199Y-32126760D01*
X65982073Y-32015690D01*
X66037819Y-31959944D01*
X66099142Y-31926459D01*
X66168834Y-31931443D01*
X66224767Y-31973315D01*
X66249184Y-32038779D01*
X66249500Y-32047625D01*
X66249500Y-34502690D01*
X66229815Y-34569729D01*
X66213181Y-34590371D01*
X65553554Y-35249999D01*
X65553554Y-35250000D01*
X66213181Y-35909627D01*
X66246666Y-35970950D01*
X66249500Y-35997308D01*
X66249500Y-39469531D01*
X66229815Y-39536570D01*
X66177011Y-39582325D01*
X66107853Y-39592269D01*
X66044297Y-39563244D01*
X66037819Y-39557212D01*
X65912363Y-39431756D01*
X65912358Y-39431752D01*
X65734025Y-39302187D01*
X65734024Y-39302186D01*
X65734022Y-39302185D01*
X65671096Y-39270122D01*
X65537606Y-39202104D01*
X65537603Y-39202103D01*
X65327952Y-39133985D01*
X65219086Y-39116742D01*
X65110222Y-39099500D01*
X64889778Y-39099500D01*
X64889773Y-39099500D01*
X64754569Y-39120914D01*
X64685275Y-39111959D01*
X64647490Y-39086122D01*
X63246819Y-37685451D01*
X63213334Y-37624128D01*
X63210500Y-37597770D01*
X63210500Y-36257882D01*
X64545669Y-36257882D01*
X64545670Y-36257883D01*
X64571059Y-36276329D01*
X64739362Y-36362085D01*
X64918997Y-36420451D01*
X65105553Y-36450000D01*
X65294447Y-36450000D01*
X65481002Y-36420451D01*
X65660637Y-36362085D01*
X65828937Y-36276331D01*
X65854328Y-36257883D01*
X65854328Y-36257882D01*
X65200001Y-35603554D01*
X65200000Y-35603554D01*
X64545669Y-36257882D01*
X63210500Y-36257882D01*
X63210500Y-35155552D01*
X64000000Y-35155552D01*
X64000000Y-35344447D01*
X64029548Y-35531002D01*
X64087914Y-35710637D01*
X64173666Y-35878933D01*
X64192116Y-35904328D01*
X64846446Y-35250000D01*
X64846446Y-35249999D01*
X64800369Y-35203922D01*
X64850000Y-35203922D01*
X64850000Y-35296078D01*
X64873852Y-35385095D01*
X64919930Y-35464905D01*
X64985095Y-35530070D01*
X65064905Y-35576148D01*
X65153922Y-35600000D01*
X65246078Y-35600000D01*
X65335095Y-35576148D01*
X65414905Y-35530070D01*
X65480070Y-35464905D01*
X65526148Y-35385095D01*
X65550000Y-35296078D01*
X65550000Y-35203922D01*
X65526148Y-35114905D01*
X65480070Y-35035095D01*
X65414905Y-34969930D01*
X65335095Y-34923852D01*
X65246078Y-34900000D01*
X65153922Y-34900000D01*
X65064905Y-34923852D01*
X64985095Y-34969930D01*
X64919930Y-35035095D01*
X64873852Y-35114905D01*
X64850000Y-35203922D01*
X64800369Y-35203922D01*
X64192116Y-34595669D01*
X64192116Y-34595670D01*
X64173669Y-34621060D01*
X64087914Y-34789362D01*
X64029548Y-34968997D01*
X64000000Y-35155552D01*
X63210500Y-35155552D01*
X63210500Y-34242116D01*
X64545669Y-34242116D01*
X65200000Y-34896446D01*
X65200001Y-34896446D01*
X65854328Y-34242116D01*
X65828933Y-34223666D01*
X65660637Y-34137914D01*
X65481002Y-34079548D01*
X65294447Y-34050000D01*
X65105553Y-34050000D01*
X64918997Y-34079548D01*
X64739362Y-34137914D01*
X64571060Y-34223669D01*
X64545670Y-34242116D01*
X64545669Y-34242116D01*
X63210500Y-34242116D01*
X63210500Y-27934499D01*
X63230185Y-27867460D01*
X63282989Y-27821705D01*
X63334500Y-27810499D01*
X63407871Y-27810499D01*
X63407872Y-27810499D01*
X63467483Y-27804091D01*
X63602331Y-27753796D01*
X63717546Y-27667546D01*
X63803796Y-27552331D01*
X63810433Y-27534537D01*
X63833601Y-27472420D01*
X63850919Y-27449284D01*
X63865809Y-27424514D01*
X63871600Y-27421656D01*
X63875471Y-27416486D01*
X63902549Y-27406385D01*
X63928467Y-27393598D01*
X63934884Y-27394325D01*
X63940936Y-27392068D01*
X63969177Y-27398211D01*
G37*
%TD.AperFunction*%
%TA.AperFunction,Conductor*%
G36*
X46070000Y-30552661D02*
G01*
X46097259Y-30654394D01*
X46149920Y-30745606D01*
X46224394Y-30820080D01*
X46315606Y-30872741D01*
X46417339Y-30900000D01*
X46423553Y-30900000D01*
X45744076Y-31579474D01*
X45788652Y-31611861D01*
X45842376Y-31639234D01*
X45893172Y-31687208D01*
X45909968Y-31755028D01*
X45887431Y-31821164D01*
X45842379Y-31860203D01*
X45788386Y-31887714D01*
X45622786Y-32008028D01*
X45478032Y-32152782D01*
X45474818Y-32157207D01*
X45419488Y-32199872D01*
X45349875Y-32205851D01*
X45288080Y-32173245D01*
X45253722Y-32112406D01*
X45250500Y-32084321D01*
X45250500Y-31349044D01*
X45270185Y-31282005D01*
X45322989Y-31236250D01*
X45384230Y-31225426D01*
X45390525Y-31225921D01*
X46070000Y-30546446D01*
X46070000Y-30552661D01*
G37*
%TD.AperFunction*%
%TA.AperFunction,Conductor*%
G36*
X46029414Y-24270185D02*
G01*
X46075169Y-24322989D01*
X46085113Y-24392147D01*
X46056088Y-24455703D01*
X46050056Y-24462181D01*
X46044312Y-24467924D01*
X46044312Y-24467925D01*
X46044310Y-24467927D01*
X46032391Y-24484332D01*
X45933240Y-24620800D01*
X45847454Y-24789163D01*
X45789059Y-24968881D01*
X45759500Y-25155513D01*
X45759500Y-25344486D01*
X45789059Y-25531118D01*
X45847454Y-25710836D01*
X45933240Y-25879199D01*
X46044310Y-26032073D01*
X46177927Y-26165690D01*
X46330801Y-26276760D01*
X46410347Y-26317290D01*
X46499163Y-26362545D01*
X46499165Y-26362545D01*
X46499168Y-26362547D01*
X46595497Y-26393846D01*
X46678881Y-26420940D01*
X46865514Y-26450500D01*
X46865519Y-26450500D01*
X47054486Y-26450500D01*
X47241118Y-26420940D01*
X47420832Y-26362547D01*
X47589199Y-26276760D01*
X47742073Y-26165690D01*
X47835519Y-26072243D01*
X47896838Y-26038761D01*
X47966530Y-26043745D01*
X48010878Y-26072246D01*
X50116951Y-28178319D01*
X50150436Y-28239642D01*
X50145452Y-28309334D01*
X50103580Y-28365267D01*
X50038116Y-28389684D01*
X50029270Y-28390000D01*
X49940000Y-28390000D01*
X49940000Y-29374314D01*
X49935606Y-29369920D01*
X49844394Y-29317259D01*
X49742661Y-29290000D01*
X49637339Y-29290000D01*
X49535606Y-29317259D01*
X49444394Y-29369920D01*
X49440000Y-29374314D01*
X49440000Y-28390000D01*
X48690028Y-28390000D01*
X48690012Y-28390001D01*
X48587302Y-28400494D01*
X48420880Y-28455641D01*
X48420875Y-28455643D01*
X48271654Y-28547684D01*
X48147684Y-28671654D01*
X48055643Y-28820875D01*
X48055641Y-28820880D01*
X48000494Y-28987302D01*
X48000493Y-28987309D01*
X47990000Y-29090013D01*
X47990000Y-29440000D01*
X49374314Y-29440000D01*
X49369920Y-29444394D01*
X49317259Y-29535606D01*
X49290000Y-29637339D01*
X49290000Y-29742661D01*
X49317259Y-29844394D01*
X49369920Y-29935606D01*
X49374314Y-29940000D01*
X47990001Y-29940000D01*
X47990001Y-30211149D01*
X47970316Y-30278188D01*
X47917512Y-30323943D01*
X47848354Y-30333887D01*
X47784798Y-30304862D01*
X47747024Y-30246084D01*
X47743528Y-30230547D01*
X47737990Y-30195582D01*
X47674755Y-30000968D01*
X47581859Y-29818650D01*
X47549474Y-29774077D01*
X47549474Y-29774076D01*
X46870000Y-30453551D01*
X46870000Y-30447339D01*
X46842741Y-30345606D01*
X46790080Y-30254394D01*
X46715606Y-30179920D01*
X46624394Y-30127259D01*
X46522661Y-30100000D01*
X46516446Y-30100000D01*
X47195922Y-29420524D01*
X47195921Y-29420523D01*
X47151359Y-29388147D01*
X47151350Y-29388141D01*
X46969031Y-29295244D01*
X46774417Y-29232009D01*
X46631268Y-29209337D01*
X46572317Y-29200000D01*
X46367683Y-29200000D01*
X46165582Y-29232009D01*
X45970968Y-29295244D01*
X45788644Y-29388143D01*
X45744077Y-29420523D01*
X45744077Y-29420524D01*
X46423554Y-30100000D01*
X46417339Y-30100000D01*
X46315606Y-30127259D01*
X46224394Y-30179920D01*
X46149920Y-30254394D01*
X46097259Y-30345606D01*
X46070000Y-30447339D01*
X46070000Y-30453553D01*
X45390523Y-29774076D01*
X45384228Y-29774572D01*
X45370618Y-29771712D01*
X45356853Y-29773692D01*
X45337099Y-29764671D01*
X45315851Y-29760207D01*
X45305947Y-29750444D01*
X45293297Y-29744667D01*
X45281557Y-29726400D01*
X45266094Y-29711156D01*
X45262267Y-29696383D01*
X45255523Y-29685889D01*
X45250500Y-29650954D01*
X45250500Y-24374500D01*
X45270185Y-24307461D01*
X45322989Y-24261706D01*
X45374500Y-24250500D01*
X45962375Y-24250500D01*
X46029414Y-24270185D01*
G37*
%TD.AperFunction*%
%TD*%
M02*
